<?xml version="1.0" encoding="UTF-8"?>
<svg xmlns="http://www.w3.org/2000/svg" xmlns:xlink="http://www.w3.org/1999/xlink" width="512pt" height="512pt" viewBox="0 0 512 512" version="1.1">
<g id="surface1">
<path style=" stroke:none;fill-rule:nonzero;fill:#F0D6BF;fill-opacity:1;" d="M 422.800781 336 L 341.601563 363.601563 C 344 359.601563 345.601563 355.199219 345.199219 350 C 344.398438 338.800781 334.398438 330.398438 322.800781 330.398438 L 264.800781 330.398438 C 242.398438 298 181.199219 298 181.199219 298 L 132.398438 298 L 132.398438 396 L 247.601563 432 C 247.601563 432 282.398438 442 307.199219 432 C 328.398438 423.601563 413.601563 378.800781 440.398438 364.398438 C 445.601563 361.601563 452.800781 353.601563 448.800781 344.398438 C 445.199219 336.800781 439.199219 331.601563 422.800781 336 Z "/>
<path style=" stroke:none;fill-rule:nonzero;fill:#454B54;fill-opacity:1;" d="M 323.601563 385.199219 L 239.199219 385.199219 C 232.398438 385.199219 227.199219 380 227.199219 373.199219 C 227.199219 366.398438 232.398438 361.199219 239.199219 361.199219 L 324 361.199219 C 329.199219 361.199219 333.601563 357.199219 333.601563 352 C 333.601563 345.199219 338.800781 340 345.601563 340 C 352.398438 340 357.601563 345.199219 357.601563 352 C 357.199219 370.398438 342.398438 385.199219 323.601563 385.199219 Z "/>
<path style=" stroke:none;fill-rule:nonzero;fill:#454B54;fill-opacity:1;" d="M 280.398438 448.398438 C 261.199219 448.398438 245.199219 443.601563 244 443.601563 L 128.800781 407.601563 C 123.601563 406 120.398438 401.199219 120.398438 396 L 120.398438 298.398438 C 120.398438 291.601563 125.601563 286.398438 132.398438 286.398438 L 181.199219 286.398438 C 184 286.398438 242.800781 286.800781 270.398438 318.800781 L 322.800781 318.800781 C 340.398438 318.800781 355.601563 332 357.199219 349.199219 C 358 356.800781 356 363.601563 352 370 C 349.199219 374.398438 343.601563 376.800781 338.398438 375.199219 C 334.800781 374 331.601563 371.199219 330.398438 367.601563 C 329.199219 364 329.601563 360 331.601563 356.800781 C 332.398438 355.601563 333.199219 353.601563 333.199219 350.800781 C 332.800781 346 328 342.398438 322.800781 342.398438 L 264.800781 342.398438 C 260.800781 342.398438 257.199219 340.398438 254.800781 337.199219 C 239.199219 314.800781 196.398438 310 181.199219 310 L 144.398438 310 L 144.398438 386.800781 L 251.199219 420 C 251.199219 420 282 428.800781 302.800781 420.398438 C 323.601563 412 409.199219 366.800781 434.800781 353.199219 C 435.199219 352.800781 438.398438 350.398438 437.601563 348.800781 C 436.800781 346.800781 436 344.800781 426.398438 347.199219 L 380 362.800781 C 373.601563 364.800781 366.800781 361.601563 364.800781 355.199219 C 362.800781 348.800781 366 342 372.398438 340 L 418.800781 324.398438 C 418.800781 324.398438 419.199219 324.398438 419.199219 324.398438 C 445.601563 317.199219 455.601563 330.800781 459.199219 339.601563 C 465.601563 354.398438 456.800781 368.800781 445.199219 374.800781 C 412 392.398438 332 434.398438 311.199219 442.800781 C 301.601563 446.800781 290.398438 448.398438 280.398438 448.398438 Z "/>
<path style=" stroke:none;fill-rule:nonzero;fill:#FFFFFF;fill-opacity:1;" d="M 120.398438 412 C 127.199219 412 132.398438 406.800781 132.398438 400 L 132.398438 295.601563 C 132.398438 288.800781 126.800781 283.199219 119.601563 283.199219 L 62.398438 283.199219 C 60.800781 283.199219 62.398438 412 62.398438 412 Z "/>
<path style=" stroke:none;fill-rule:nonzero;fill:#454B54;fill-opacity:1;" d="M 120.398438 424 L 62.398438 424 C 55.601563 424 50.398438 418.800781 50.398438 412 C 50.398438 405.199219 55.601563 400 62.398438 400 L 120.398438 400 L 120.398438 295.601563 C 120.398438 295.199219 120 295.199219 119.601563 295.199219 L 62.398438 295.199219 C 55.601563 295.199219 50.398438 290 50.398438 283.199219 C 50.398438 276.398438 55.601563 271.199219 62.398438 271.199219 L 119.601563 271.199219 C 133.199219 271.199219 144.398438 282 144.398438 295.601563 L 144.398438 400 C 144.398438 413.199219 133.601563 424 120.398438 424 Z "/>
<path style=" stroke:none;fill-rule:nonzero;fill:#F27788;fill-opacity:1;" d="M 269.601563 93.601563 C 288 93.601563 304.398438 101.199219 316 113.199219 C 327.199219 101.199219 344 93.601563 362.398438 93.601563 C 396.398438 93.601563 424 119.199219 424 151.199219 C 424 169.199219 415.199219 185.199219 401.199219 196 L 316 258.398438 L 232.398438 196.800781 C 217.601563 186.398438 208 169.601563 208 151.199219 C 208 119.199219 235.601563 93.601563 269.601563 93.601563 Z "/>
<path style=" stroke:none;fill-rule:nonzero;fill:#FFFFFF;fill-opacity:1;" d="M 248 163.199219 C 241.199219 163.199219 236 158 236 151.199219 C 236 134.800781 251.199219 121.601563 269.601563 121.601563 C 276.398438 121.601563 281.601563 126.800781 281.601563 133.601563 C 281.601563 140.398438 276.398438 145.601563 269.601563 145.601563 C 263.601563 145.601563 260 149.199219 260 151.199219 C 260 157.601563 254.800781 163.199219 248 163.199219 Z "/>
</g>
</svg>
