<?xml version="1.0" encoding="UTF-8"?>
<svg xmlns="http://www.w3.org/2000/svg" xmlns:xlink="http://www.w3.org/1999/xlink" width="512pt" height="512pt" viewBox="0 0 512 512" version="1.1">
<g id="surface1">
<path style=" stroke:none;fill-rule:nonzero;fill:#FFFFFF;fill-opacity:1;" d="M 495.601563 349.601563 C 488.398438 333.601563 468.800781 327.199219 452.800781 334 L 438.800781 340 L 436 334.398438 C 429.199219 318 410.398438 310.398438 394 317.601563 L 310.800781 354 C 307.601563 348.800781 302.800781 344.800781 296.800781 342 L 193.601563 295.601563 C 153.601563 277.601563 106.800781 283.199219 72 310 L 56.398438 322 L 52.398438 326 L 16 326 C 9.199219 326 4 331.199219 4 338 L 4 466 L 52 466 L 52 445.199219 L 55.601563 443.199219 C 68.800781 435.601563 85.199219 435.199219 98.800781 442 L 187.601563 486.398438 C 208.398438 496.398438 232.398438 497.199219 254 488 L 479.601563 392.800781 C 495.601563 385.601563 503.199219 366 495.601563 349.601563 Z "/>
<path style=" stroke:none;fill-rule:nonzero;fill:#444B54;fill-opacity:1;" d="M 507.199219 346 C 502.800781 335.199219 494 326.800781 483.199219 322.398438 C 472.398438 318 460.398438 318 449.601563 322.800781 L 444.800781 324.800781 C 433.601563 306 410.398438 298 389.601563 306.800781 L 343.199219 326.398438 C 337.199219 328.800781 334.398438 336 336.800781 342 C 338.800781 346.398438 343.199219 349.199219 348 349.199219 C 349.601563 349.199219 351.199219 348.800781 352.800781 348.398438 L 399.199219 328.800781 C 407.601563 325.199219 416.800781 328 422.398438 334.398438 L 328.398438 374.398438 C 329.601563 356.398438 320 338.800781 302.398438 331.199219 L 198.398438 284.800781 C 154.398438 265.199219 103.199219 271.199219 64.800781 300.398438 L 49.199219 312.398438 C 48.800781 312.800781 48.398438 313.199219 48 313.601563 L 44 317.601563 C 41.601563 320 40.398438 322.800781 40.398438 326 L 40.398438 454 L 16 454 C 9.199219 454 4 459.199219 4 466 C 4 472.800781 9.199219 478 16 478 L 52 478 C 58.800781 478 64 472.800781 64 466 L 64 330.800781 L 79.199219 319.199219 C 110.800781 295.199219 152.398438 290.398438 188.800781 306.398438 L 292 352.800781 C 296.800781 354.800781 300.800781 358.800781 302.398438 364 C 304 369.199219 304 374.398438 302 379.199219 C 300 384 296 387.601563 291.199219 389.601563 C 286.398438 391.601563 280.800781 391.199219 276 389.199219 L 196 353.601563 C 190 350.800781 182.800781 353.601563 180 359.601563 C 177.199219 365.601563 180 372.800781 186 375.601563 L 266 411.199219 C 276.800781 416 288.800781 416.398438 299.601563 412 C 301.199219 411.601563 302.800781 410.800781 304 410 C 304.800781 410 305.199219 409.601563 305.601563 409.601563 L 458.398438 344.800781 C 463.199219 342.800781 468.800781 342.800781 473.601563 344.800781 C 478.398438 346.800781 482.398438 350.800781 484.398438 355.601563 C 486.398438 360.398438 486.398438 366 484.398438 370.800781 C 482.398438 375.601563 478.398438 379.601563 473.601563 381.601563 L 248 476.800781 C 230 484.398438 209.199219 484 191.601563 475.199219 L 96.398438 428.800781 C 90.398438 426 83.199219 428.398438 80.398438 434.398438 C 77.601563 440.398438 80 447.601563 86 450.398438 L 181.199219 496.800781 C 194 503.199219 207.601563 506 221.601563 506 C 233.601563 506 246 503.601563 257.601563 498.800781 L 483.199219 403.601563 C 494 399.199219 502.398438 390.398438 506.800781 379.601563 C 511.601563 368.800781 511.601563 356.800781 507.199219 346 Z "/>
<path style=" stroke:none;fill-rule:nonzero;fill:#71C2FF;fill-opacity:1;" d="M 284 4 C 233.199219 4 196 45.199219 196 96 C 196 146.800781 237.199219 188 288 188 C 338.800781 188 380 146.800781 380 96 C 380 45.199219 334.800781 4 284 4 Z "/>
<path style=" stroke:none;fill-rule:nonzero;fill:#2298E0;fill-opacity:1;" d="M 380 96 C 380 45.199219 334.800781 4 284 4 L 288 188 C 338.800781 188 380 146.800781 380 96 Z "/>
<path style=" stroke:none;fill-rule:nonzero;fill:#71C2FF;fill-opacity:1;" d="M 288 36 C 254.800781 36 228 62.800781 228 96 C 228 129.199219 254.800781 156 288 156 C 321.199219 156 348 129.199219 348 96 C 348 62.800781 321.199219 36 288 36 Z "/>
</g>
</svg>
