<?xml version="1.0" encoding="UTF-8"?>
<svg xmlns="http://www.w3.org/2000/svg" xmlns:xlink="http://www.w3.org/1999/xlink" width="500pt" height="500pt" viewBox="0 0 500 500" version="1.1">
<g id="surface1">
<path style=" stroke:none;fill-rule:nonzero;fill:#F8F2F2;fill-opacity:1;" d="M 248.015625 46.503906 C 156.753906 46.503906 83.394531 120.171875 83.394531 211.433594 C 83.394531 297.734375 149.121094 367.722656 233.445313 375.125 C 238.328125 375.628906 243.015625 376.015625 248.015625 376.054688 C 253.710938 376.054688 259.214844 375.667969 264.757813 375.125 C 347.996094 367.683594 412.636719 298.550781 412.636719 213.292969 C 412.636719 212.984375 412.636719 212.671875 412.636719 212.363281 C 412.636719 212.054688 412.636719 211.742188 412.636719 211.433594 C 412.636719 120.171875 339.277344 46.503906 248.015625 46.503906 Z M 385.042969 48.671875 C 385.042969 48.671875 398.917969 72.542969 404.886719 77.503906 C 411.824219 83.472656 427.515625 91.144531 427.515625 91.144531 C 427.515625 91.144531 419.765625 68.398438 409.847656 60.453125 C 399.925781 52.507813 385.042969 48.671875 385.042969 48.671875 Z M 112.226563 50.535156 C 112.226563 50.535156 91.339844 58.476563 83.394531 65.414063 C 70.492188 78.320313 67.585938 94.246094 67.585938 94.246094 C 67.585938 94.246094 81.417969 87.230469 93.316406 75.335938 C 103.238281 65.414063 112.226563 50.535156 112.226563 50.535156 Z M 248.015625 61.382813 C 250.109375 61.382813 252.125 61.617188 254.214844 61.695313 L 254.835938 88.355469 C 254.835938 88.355469 247.898438 89.402344 239.957031 87.425781 C 232.011719 85.449219 229.105469 83.394531 229.105469 83.394531 C 229.105469 83.394531 233.058594 75.527344 239.023438 67.585938 C 240.652344 65.21875 242.046875 63.242188 243.367188 61.695313 C 244.914063 61.65625 246.425781 61.382813 248.015625 61.382813 Z M 238.09375 62.003906 C 236.234375 64.289063 234.296875 66.769531 233.136719 69.445313 C 230.152344 76.382813 225.074219 82.464844 225.074219 82.464844 L 215.152344 77.503906 C 211.199219 74.519531 209.261719 72.542969 209.261719 72.542969 C 209.261719 72.542969 213.0625 68.320313 220.113281 64.175781 C 225.964844 63.050781 232.011719 62.390625 238.09375 62.003906 Z M 258.867188 62.003906 C 263.554688 62.351563 268.246094 62.777344 272.816406 63.554688 C 272.816406 63.554688 272.816406 63.863281 272.816406 63.863281 C 273.785156 65.183594 274.988281 66.730469 275.917969 68.515625 C 279.871094 76.457031 283.667969 85.253906 283.667969 85.253906 C 283.667969 85.253906 277.855469 88.355469 271.886719 88.355469 C 265.917969 89.363281 258.867188 88.355469 258.867188 88.355469 Z M 278.398438 64.484375 C 286.921875 66.265625 295.253906 69.058594 303.199219 72.234375 C 304.828125 73.707031 306.609375 75.335938 306.609375 75.335938 C 306.609375 75.335938 303.433594 77.3125 299.480469 80.296875 C 295.527344 83.277344 289.558594 84.324219 289.558594 84.324219 C 289.558594 84.324219 285.722656 75.335938 282.738281 70.375 C 281.730469 68.707031 280.027344 66.578125 278.398438 64.484375 Z M 69.445313 66.34375 C 69.445313 66.34375 50.535156 77.273438 45.574219 91.144531 C 41.621094 102.074219 43.519531 113.078125 41.542969 124.007813 C 39.566406 134.9375 42.78125 142.917969 42.78125 142.917969 C 42.78125 142.917969 43.597656 139.933594 50.535156 133 C 57.46875 126.0625 67.46875 122.148438 74.40625 117.1875 C 90.292969 106.257813 97.347656 89.285156 97.347656 89.285156 C 97.347656 89.285156 88.355469 97.152344 83.394531 100.136719 C 79.441406 102.113281 70.453125 107.035156 64.484375 110.988281 C 59.523438 113.972656 56.421875 124.007813 56.421875 124.007813 C 56.421875 124.007813 50.726563 119.125 52.703125 113.15625 C 54.679688 107.1875 57.585938 102.074219 58.59375 96.105469 C 59.601563 90.136719 61.5 81.457031 64.484375 77.503906 C 66.460938 73.550781 69.445313 66.34375 69.445313 66.34375 Z M 427.515625 66.34375 C 427.515625 66.34375 430.421875 75.414063 433.40625 79.363281 C 436.390625 83.316406 436.507813 94.246094 441.46875 104.167969 C 444.453125 114.085938 447.476563 118.96875 445.5 119.976563 C 443.523438 121.953125 437.4375 115.949219 432.476563 110.988281 C 427.515625 106.027344 418.644531 103.238281 411.707031 98.277344 C 404.769531 93.316406 400.855469 89.285156 400.855469 89.285156 C 400.855469 89.285156 404.886719 104.28125 414.804688 112.226563 C 420.773438 116.179688 436.390625 128.039063 443.328125 133 C 450.265625 137.957031 453.25 142.917969 453.25 142.917969 C 453.25 142.917969 453.441406 105.214844 450.457031 93.316406 C 446.507813 81.417969 427.515625 66.34375 427.515625 66.34375 Z M 210.195313 66.652344 C 209.378906 67.234375 207.402344 68.515625 207.402344 68.515625 C 207.402344 68.515625 206.785156 68.089844 206.164063 67.585938 C 207.480469 67.195313 208.835938 67.003906 210.195313 66.652344 Z M 203.371094 68.515625 L 204.304688 69.445313 C 204.304688 69.445313 198.335938 73.476563 194.382813 78.433594 C 189.421875 83.394531 187.5625 87.425781 187.5625 87.425781 L 190.351563 90.214844 C 190.351563 90.214844 193.53125 85.179688 197.484375 81.226563 C 201.433594 77.273438 206.472656 73.476563 206.472656 73.476563 C 206.472656 73.476563 212.167969 79.25 215.152344 81.226563 C 219.105469 83.203125 224.144531 85.253906 224.144531 85.253906 C 224.144531 85.253906 224.261719 88.160156 222.285156 91.144531 C 221.277344 94.128906 219.183594 99.207031 219.183594 99.207031 L 222.285156 101.066406 C 222.285156 101.066406 224.339844 94.363281 226.316406 92.386719 C 227.320313 89.402344 228.175781 87.425781 228.175781 87.425781 C 228.175781 87.425781 236.117188 90.410156 243.054688 92.386719 C 249.992188 93.394531 254.835938 93.316406 254.835938 93.316406 L 254.835938 120.90625 L 244.914063 120.90625 L 244.914063 125.867188 L 256.078125 125.867188 L 256.078125 160.589844 L 247.085938 160.589844 L 247.085938 164.621094 L 256.078125 164.621094 L 256.078125 177.640625 L 259.796875 177.640625 L 259.796875 164.621094 L 279.636719 164.621094 C 294.519531 163.613281 303.507813 162.761719 303.507813 162.761719 C 303.507813 162.761719 303.625 149.738281 301.648438 139.820313 C 300.640625 129.898438 298.550781 122.148438 298.550781 122.148438 C 298.550781 122.148438 306.609375 121.140625 316.53125 117.1875 C 325.441406 113.234375 333.269531 110.058594 333.269531 110.058594 C 333.269531 110.058594 338.308594 117.1875 342.261719 127.109375 C 346.214844 137.027344 349.082031 146.949219 349.082031 146.949219 L 343.191406 149.738281 L 344.121094 152.839844 L 351.253906 150.667969 L 353.113281 154.699219 L 356.210938 153.769531 L 354.042969 149.738281 C 354.042969 149.738281 363.148438 146.871094 371.09375 142.917969 C 374.195313 141.214844 376.285156 139.625 378.535156 138.269531 C 390.78125 159.929688 397.753906 184.925781 397.753906 211.433594 C 397.753906 266.617188 367.488281 314.707031 322.730469 340.710938 C 316.957031 337.84375 309.398438 332.109375 309.398438 320.558594 C 309.398438 311.648438 307.539063 304.441406 332.339844 304.441406 C 363.070313 304.441406 385.976563 262.898438 385.976563 228.175781 C 385.976563 208.332031 358.152344 171.75 317.460938 171.75 C 307.539063 171.75 303.433594 178.6875 299.480469 181.671875 C 295.527344 184.65625 280.878906 186.398438 275.917969 190.351563 C 272.933594 193.335938 269.71875 198.414063 269.71875 198.414063 C 269.71875 198.414063 260.921875 199.34375 257.9375 199.34375 C 254.953125 199.34375 251 198.527344 248.015625 201.511719 C 245.03125 204.496094 247.085938 209.261719 247.085938 209.261719 C 247.085938 209.261719 245.03125 210.386719 243.054688 212.363281 C 242.046875 213.371094 238.09375 215.152344 238.09375 215.152344 L 237.164063 222.285156 C 237.164063 222.285156 235.1875 223.136719 232.203125 224.144531 C 229.222656 224.144531 230.113281 227.320313 229.105469 231.273438 C 229.105469 235.226563 222.285156 239.21875 222.285156 246.15625 C 222.285156 253.09375 240.03125 265.765625 243.984375 269.71875 C 247.9375 273.671875 247.085938 281.613281 247.085938 289.558594 C 247.085938 297.503906 251.117188 301.570313 251.117188 312.5 C 251.117188 323.429688 233.210938 325.519531 222.285156 325.519531 C 211.355469 325.519531 202.367188 327.457031 193.453125 331.410156 C 185.703125 335.710938 176.480469 337.765625 168.960938 338.230469 C 167.410156 337.261719 165.820313 336.449219 164.308594 335.441406 C 153.613281 328.195313 144.277344 319.398438 135.789063 309.710938 L 135.789063 308.46875 C 135.789063 303.507813 135.867188 302.578125 139.820313 302.578125 C 143.773438 302.578125 153.847656 305.679688 187.5625 305.679688 C 221.277344 305.679688 230.035156 299.710938 230.035156 290.796875 C 230.035156 281.886719 212.363281 281.808594 207.402344 281.808594 C 203.449219 281.808594 203.296875 285.839844 199.34375 285.839844 C 195.390625 285.839844 185.507813 281.613281 173.609375 274.675781 C 160.707031 267.742188 159.660156 261.964844 159.660156 261.964844 L 159.660156 213.292969 C 159.660156 213.292969 163.574219 207.402344 170.511719 207.402344 C 177.449219 207.402344 176.480469 211.433594 190.351563 211.433594 C 203.257813 211.433594 205.347656 204.304688 208.332031 199.34375 C 211.316406 194.382813 214.417969 195.3125 216.394531 190.351563 C 218.371094 187.367188 217.324219 178.570313 217.324219 178.570313 C 217.324219 178.570313 230.035156 167.527344 230.035156 150.667969 C 230.035156 123.890625 193.375 104.167969 174.542969 104.167969 C 160.667969 104.167969 147.761719 110.058594 139.820313 119.976563 C 133.851563 128.890625 132.070313 141.871094 132.070313 148.808594 C 132.070313 163.691406 134.859375 166.675781 134.859375 173.609375 C 134.859375 181.554688 120.09375 190.46875 113.15625 193.453125 C 108.042969 195.660156 102.074219 200.039063 98.585938 202.753906 C 98.703125 200.503906 98.664063 198.140625 98.894531 195.933594 C 105.058594 135.867188 147.375 86.222656 203.371094 68.515625 Z M 308.46875 77.503906 C 308.46875 77.503906 316.53125 85.449219 321.492188 92.386719 C 327.457031 99.324219 331.410156 106.027344 331.410156 106.027344 C 331.410156 106.027344 324.511719 109.203125 315.601563 113.15625 C 307.65625 117.109375 296.6875 118.117188 296.6875 118.117188 C 296.6875 118.117188 297.734375 112.109375 295.757813 104.167969 C 294.75 96.222656 289.558594 89.285156 289.558594 89.285156 C 289.558594 89.285156 296.765625 86.378906 300.71875 83.394531 C 305.679688 80.410156 308.46875 77.503906 308.46875 77.503906 Z M 319.628906 79.984375 C 329.085938 85.179688 337.882813 91.261719 345.980469 98.277344 C 342.144531 100.910156 337.300781 103.238281 337.300781 103.238281 C 337.300781 103.238281 331.332031 95.253906 327.382813 89.285156 C 324.4375 85.757813 322.382813 83.394531 319.628906 79.984375 Z M 285.839844 91.144531 C 285.839844 91.144531 287.816406 94.246094 290.796875 104.167969 C 292.773438 113.078125 293.589844 119.976563 293.589844 119.976563 C 293.589844 119.976563 285.839844 122.070313 275.917969 123.078125 C 264.988281 124.085938 258.867188 122.148438 258.867188 122.148438 L 258.867188 93.316406 C 258.867188 93.316406 264.949219 94.324219 271.886719 93.316406 C 278.824219 93.316406 285.839844 91.144531 285.839844 91.144531 Z M 349.082031 101.066406 C 359.699219 110.792969 368.886719 122.148438 376.363281 134.546875 C 374.699219 135.789063 372.953125 137.027344 371.09375 137.957031 C 364.15625 140.941406 352.183594 145.710938 352.183594 145.710938 C 352.183594 145.710938 348.074219 131.875 344.121094 124.9375 C 340.167969 118 337.300781 109.128906 337.300781 109.128906 C 337.300781 109.128906 341.332031 107.1875 346.292969 103.238281 C 347.804688 101.996094 347.84375 102.035156 349.082031 101.066406 Z M 464.410156 103.238281 C 464.410156 103.238281 466.191406 112.148438 467.199219 118.117188 C 468.207031 124.085938 466.347656 147.878906 465.339844 152.839844 C 464.332031 157.800781 467.394531 170.742188 464.410156 171.75 C 461.425781 172.757813 453.441406 156.753906 445.5 148.808594 C 438.5625 141.871094 423.488281 133 423.488281 133 C 423.488281 133 429.609375 145.710938 435.578125 155.628906 C 439.53125 166.558594 452.242188 179.695313 458.210938 186.632813 C 463.167969 194.578125 466.269531 199.34375 466.269531 199.34375 C 466.269531 199.34375 469.136719 188.609375 473.089844 181.671875 C 482.003906 167.796875 481.152344 163.574219 481.152344 145.710938 C 481.152344 127.84375 464.410156 103.238281 464.410156 103.238281 Z M 31.621094 105.097656 C 31.621094 105.097656 17.789063 123.890625 15.8125 140.75 C 13.835938 157.605469 14.765625 171.632813 21.703125 183.53125 C 26.660156 191.476563 27.902344 202.441406 27.902344 202.441406 C 27.902344 202.441406 29.683594 196.320313 35.652344 190.351563 C 41.621094 184.382813 51.65625 175.585938 58.59375 163.691406 C 65.53125 151.792969 71.304688 135.789063 71.304688 135.789063 C 71.304688 135.789063 60.570313 141.910156 53.632813 147.878906 C 37.746094 161.753906 29.761719 175.472656 29.761719 175.472656 C 29.761719 175.472656 25.652344 171.519531 26.660156 165.550781 C 29.644531 160.589844 30.769531 151.714844 29.761719 144.777344 C 28.753906 138.8125 26.855469 135.050781 28.832031 127.109375 C 29.839844 119.164063 31.621094 105.097656 31.621094 105.097656 Z M 296.6875 124.9375 C 296.6875 124.9375 297.582031 130.90625 298.550781 139.820313 C 299.558594 147.761719 300.71875 159.660156 300.71875 159.660156 C 300.71875 159.660156 296.574219 160.824219 283.667969 161.832031 C 270.761719 162.839844 259.796875 161.832031 259.796875 161.832031 L 259.796875 125.867188 C 259.796875 125.867188 269.910156 127.109375 276.847656 127.109375 C 283.785156 127.109375 296.6875 124.9375 296.6875 124.9375 Z M 491.070313 171.75 C 491.070313 171.75 488.046875 181.59375 487.042969 187.5625 C 485.066406 195.507813 476.074219 205.464844 473.089844 216.394531 C 470.105469 227.320313 470.105469 234.066406 468.128906 234.066406 C 465.144531 234.066406 462.238281 226.082031 462.238281 220.113281 C 461.230469 213.175781 453.367188 202.441406 446.429688 192.523438 C 439.492188 182.601563 436.507813 178.570313 436.507813 178.570313 C 436.507813 178.570313 438.367188 210.269531 443.328125 219.183594 C 448.289063 230.113281 453.480469 238.171875 459.449219 252.046875 C 463.167969 260.726563 463.519531 262.898438 463.480469 263.515625 C 463.945313 263.050781 467.511719 259.796875 469.371094 257.007813 C 471.347656 254.023438 484.171875 243.171875 490.140625 221.355469 C 496.109375 198.527344 491.070313 171.75 491.070313 171.75 Z M 4.960938 172.679688 C 4.960938 172.679688 2.867188 207.324219 6.820313 223.214844 C 13.757813 249.023438 33.792969 264.757813 33.792969 264.757813 C 33.792969 264.757813 35.730469 256 39.683594 247.085938 C 43.636719 238.171875 50.648438 229.222656 53.632813 222.285156 C 58.59375 208.410156 60.453125 182.601563 60.453125 182.601563 C 60.453125 182.601563 55.417969 189.34375 51.464844 195.3125 C 47.511719 201.28125 42.78125 208.410156 37.824219 217.324219 C 33.871094 227.246094 32.785156 235.226563 28.832031 236.234375 C 22.863281 237.242188 27.902344 227.050781 22.941406 215.152344 C 17.980469 203.257813 10 190.429688 8.992188 184.460938 C 7.984375 178.492188 4.960938 172.679688 4.960938 172.679688 Z M 437.4375 234.066406 C 437.4375 234.066406 433.640625 258.867188 434.648438 268.789063 C 435.65625 278.707031 438.445313 294.636719 437.4375 307.539063 C 436.429688 320.445313 434.648438 327.382813 434.648438 327.382813 C 434.648438 327.382813 474.332031 303.433594 484.25 279.636719 C 491.1875 265.765625 496.03125 242.125 496.03125 242.125 C 496.03125 242.125 493.9375 244.992188 487.972656 253.90625 C 483.011719 261.851563 473.207031 265.917969 466.269531 276.847656 C 457.355469 290.722656 448.289063 298.550781 448.289063 298.550781 C 448.289063 298.550781 450.535156 276.730469 449.527344 268.789063 C 448.558594 260.84375 437.4375 234.066406 437.4375 234.066406 Z M 60.453125 237.164063 C 60.453125 237.164063 48.480469 259.875 46.503906 278.707031 C 44.527344 289.636719 49.488281 300.640625 46.503906 301.648438 C 43.519531 301.648438 31.621094 279.714844 26.660156 273.746094 C 19.726563 265.804688 15.886719 262.972656 9.921875 257.007813 C 3.953125 252.046875 0 242.125 0 242.125 C 0 242.125 1.125 252.859375 3.101563 259.796875 C 5.078125 267.742188 16.855469 293.78125 29.761719 305.679688 C 42.667969 317.578125 61.382813 330.480469 61.382813 330.480469 C 61.382813 330.480469 60.570313 320.445313 58.59375 312.5 C 56.617188 304.554688 61.617188 288.550781 62.625 274.675781 C 63.632813 260.804688 60.453125 237.164063 60.453125 237.164063 Z M 422.558594 282.738281 C 422.558594 282.738281 410.582031 307.460938 408.605469 318.390625 C 404.652344 330.289063 403.761719 349.160156 401.785156 358.074219 C 399.808594 366.984375 395.894531 371.09375 395.894531 371.09375 C 395.894531 371.09375 432.554688 368.1875 451.390625 355.28125 C 479.175781 335.441406 485.179688 301.648438 485.179688 301.648438 C 485.179688 301.648438 475.144531 316.335938 462.238281 324.28125 C 453.328125 329.242188 438.5625 337.261719 430.617188 343.191406 C 421.703125 349.160156 420.621094 357.257813 416.667969 355.28125 C 413.683594 353.304688 418.644531 342.378906 421.628906 335.441406 C 424.609375 328.503906 425.734375 319.515625 424.726563 311.570313 C 422.75 304.632813 422.558594 282.738281 422.558594 282.738281 Z M 74.40625 284.597656 C 74.40625 284.597656 74.480469 292.660156 73.476563 297.617188 C 71.5 307.539063 73.28125 331.410156 76.265625 341.332031 C 78.242188 350.246094 84.246094 356.097656 80.296875 358.074219 C 76.34375 360.050781 73.550781 354.160156 67.585938 347.222656 C 60.648438 340.285156 42.589844 334.203125 30.691406 324.28125 C 18.796875 314.359375 10.851563 303.507813 10.851563 303.507813 C 10.851563 303.507813 20.769531 324.511719 30.691406 340.402344 C 40.613281 356.289063 66.421875 364.972656 75.335938 368.921875 C 84.246094 371.90625 103.238281 372.953125 103.238281 372.953125 C 103.238281 372.953125 97.230469 366.210938 94.246094 355.28125 C 92.269531 345.363281 92.152344 322.34375 86.183594 308.46875 C 80.21875 293.589844 74.40625 284.597656 74.40625 284.597656 Z M 391.863281 332.339844 C 391.863281 332.339844 371.945313 350.207031 363.035156 362.101563 C 355.089844 373.03125 353.035156 383.921875 344.121094 391.863281 C 334.203125 400.816406 328.3125 402.714844 328.3125 402.714844 C 328.3125 402.714844 339.160156 404.769531 344.121094 401.785156 C 350.089844 399.808594 358.265625 401.863281 365.203125 405.816406 C 372.140625 409.769531 393.800781 409.730469 412.636719 401.785156 C 442.398438 389.890625 449.527344 367.0625 449.527344 367.0625 C 449.527344 367.0625 439.414063 374.078125 427.515625 381.015625 C 415.621094 387.949219 403.878906 387.914063 394.964844 386.90625 C 386.050781 385.898438 378.921875 388.882813 372.953125 391.863281 C 366.984375 394.847656 362.101563 391.863281 362.101563 391.863281 C 362.101563 391.863281 372.140625 385.78125 380.085938 368.921875 C 386.050781 357.027344 391.863281 332.339844 391.863281 332.339844 Z M 107.265625 334.203125 C 107.265625 334.203125 113.234375 361.09375 122.148438 376.984375 C 128.117188 387.914063 136.796875 390.820313 135.789063 392.796875 C 134.78125 393.800781 126.992188 392.871094 124.007813 391.863281 C 122.03125 390.859375 113.078125 387.914063 104.167969 386.90625 C 94.246094 385.898438 82.464844 388.957031 67.585938 381.015625 C 60.648438 377.0625 46.503906 366.132813 46.503906 366.132813 C 46.503906 366.132813 47.511719 371.015625 61.382813 386.90625 C 80.21875 408.722656 104.050781 409.847656 115.949219 409.847656 C 128.851563 409.847656 142.726563 404.652344 150.667969 403.644531 C 158.613281 402.636719 170.511719 403.644531 170.511719 403.644531 C 170.511719 403.644531 161.753906 399.808594 152.839844 391.863281 C 143.925781 384.929688 145.902344 377.101563 133 360.242188 C 121.101563 344.355469 107.265625 334.203125 107.265625 334.203125 Z M 211.433594 405.816406 C 201.203125 405.542969 186.863281 407.25 170.511719 411.707031 C 148.691406 416.667969 136.953125 421.550781 123.078125 422.558594 C 110.171875 423.566406 92.386719 414.804688 92.386719 414.804688 C 92.386719 414.804688 95.253906 422.480469 109.128906 428.449219 C 125.015625 434.414063 149.855469 437.554688 162.761719 435.578125 C 175.664063 434.570313 181.671875 431.46875 196.550781 422.558594 C 211.433594 413.644531 218.332031 412.714844 227.246094 411.707031 C 236.15625 411.707031 236.234375 412.636719 236.234375 412.636719 C 236.234375 412.636719 221.355469 419.765625 206.472656 429.6875 C 192.601563 438.601563 181.671875 449.527344 181.671875 449.527344 L 187.5625 455.417969 C 187.5625 455.417969 189.5 451.273438 203.371094 438.367188 C 218.253906 425.464844 241.078125 414.804688 248.015625 414.804688 C 254.953125 414.804688 273.824219 424.726563 287.699219 434.648438 C 301.570313 444.570313 309.398438 456.347656 309.398438 456.347656 L 316.53125 450.457031 C 316.53125 450.457031 294.710938 433.523438 286.769531 426.585938 C 278.824219 419.652344 261.964844 413.566406 261.964844 413.566406 L 276.847656 413.566406 C 282.816406 414.574219 295.644531 420.503906 307.539063 428.449219 C 319.4375 436.390625 330.289063 438.5625 358.074219 435.578125 C 403.722656 430.617188 405.816406 416.667969 405.816406 416.667969 C 405.816406 416.667969 390.859375 423.488281 372.023438 423.488281 C 358.152344 423.488281 335.324219 415.660156 322.421875 411.707031 C 309.515625 407.753906 297.542969 404.808594 288.628906 405.816406 C 270.761719 406.824219 248.015625 410.777344 248.015625 410.777344 C 248.015625 410.777344 230.035156 408.722656 220.113281 406.746094 C 217.632813 406.242188 214.84375 405.894531 211.433594 405.816406 Z "/>
</g>
</svg>
