<?xml version="1.0" encoding="UTF-8"?>
<svg xmlns="http://www.w3.org/2000/svg" xmlns:xlink="http://www.w3.org/1999/xlink" width="480pt" height="480pt" viewBox="0 0 480 480" version="1.1">
<g id="surface1">
<path style=" stroke:none;fill-rule:nonzero;fill:#4788C7;fill-opacity:1;" d="M 240 60.097656 C 319.140625 60.097656 384 124.921875 384 204.035156 C 384 283.164063 319.140625 348 240 348 C 160.859375 348 96 283.164063 96 204.035156 C 96 124.921875 160.859375 60.097656 240 60.097656 M 240 48.070313 C 153.527344 48.070313 84 117.589844 84 204.011719 C 84 290.472656 153.527344 360 240 360 C 326.472656 360 396 290.472656 396 204.023438 C 396 117.589844 326.472656 48.070313 240 48.070313 Z "/>
<path style=" stroke:none;fill-rule:nonzero;fill:#4788C7;fill-opacity:1;" d="M 189.742188 109.753906 C 210.503906 113.257813 228 122.003906 228 145.621094 C 228 161.183594 216.277344 171.550781 216.277344 171.550781 C 216.277344 171.550781 216.277344 180.203125 216.277344 183.660156 C 214.546875 188.832031 211.078125 187.105469 209.363281 192.3125 C 205.921875 197.484375 205.921875 204.40625 192.070313 204.40625 C 179.964844 204.40625 182.519531 200.929688 175.621094 200.929688 C 168.707031 200.929688 166.894531 209.292969 166.894531 209.292969 L 166.957031 245.101563 C 166.957031 245.101563 168.394531 260.304688 191.964844 260.304688 C 200.027344 260.304688 201.238281 253.03125 210 253.03125 C 215.171875 253.03125 225.203125 253.03125 225.203125 261.683594 C 225.203125 270.3125 216.539063 275.507813 185.449219 275.507813 C 154.402344 275.507813 150.3125 275.507813 146.867188 275.507813 C 143.398438 275.507813 143.398438 275.507813 143.398438 280.679688 C 143.398438 285.863281 143.398438 308.410156 143.398438 308.410156 C 143.398438 308.410156 157.488281 320.148438 164.398438 323.617188 C 164.398438 323.617188 172.691406 323.617188 179.605469 323.617188 C 186.515625 323.617188 188.902344 320.507813 197.542969 315.335938 C 206.195313 311.867188 214.824219 308.425781 225.203125 308.425781 C 235.570313 308.425781 255.601563 303.589844 255.601563 293.21875 C 255.601563 282.839844 252.144531 279.382813 252.144531 270.730469 C 252.144531 262.09375 253.871094 255.179688 250.429688 251.734375 C 246.960938 248.257813 228.324219 233.21875 228.324219 226.308594 C 228.324219 219.394531 235.234375 215.941406 235.234375 212.484375 C 235.234375 209.027344 235.234375 205.609375 238.691406 205.609375 C 240.421875 205.609375 243.875 203.878906 243.875 203.878906 L 245.605469 196.957031 C 245.605469 196.957031 249.070313 195.253906 250.789063 193.5 C 252.515625 191.773438 254.242188 191.773438 254.242188 191.773438 C 254.242188 191.773438 252.539063 186.601563 255.960938 183.144531 C 259.441406 179.664063 262.882813 181.402344 264.636719 181.402344 C 268.078125 181.402344 276.71875 179.6875 276.71875 179.6875 C 276.71875 179.6875 280.199219 174.515625 281.902344 172.789063 C 287.101563 169.320313 300.925781 167.605469 304.390625 164.136719 C 307.859375 160.679688 311.292969 156.445313 321.683594 156.445313 C 359.710938 156.445313 385.644531 188.328125 385.644531 207.335938 C 385.644531 240.167969 364.921875 278.050781 335.53125 278.050781 C 316.402344 278.050781 316.402344 286.332031 316.402344 293.257813 C 316.402344 310.546875 335.902344 317.554688 335.902344 317.554688 C 335.902344 317.554688 277.296875 351.253906 235.789063 351.253906 C 196.019531 351.253906 162.875 332.027344 133.488281 300.910156 C 114.46875 278.460938 96.996094 256.558594 96.996094 216.851563 C 96.996094 201.277344 94.390625 195.433594 94.390625 195.433594 C 94.390625 195.433594 119.4375 190.367188 126.371094 186.925781 C 133.285156 183.457031 148.535156 182.160156 148.535156 175.261719 C 141.601563 170.015625 132 162.5625 132 147 C 132 120.757813 154.738281 103.847656 189.742188 109.753906 Z "/>
<path style=" stroke:none;fill-rule:nonzero;fill:#4788C7;fill-opacity:1;" d="M 313.871094 384.023438 C 313.871094 384.023438 319.332031 382.175781 328.453125 373.882813 C 336.671875 366.515625 338.484375 356.375 345.792969 346.234375 C 354 335.171875 372.226563 318.601563 372.226563 318.601563 C 372.226563 318.601563 366.769531 341.640625 361.285156 352.703125 C 353.988281 368.363281 344.878906 373.894531 344.878906 373.894531 C 344.878906 373.894531 349.429688 376.65625 354.910156 373.894531 C 360.371094 371.136719 366.769531 368.363281 374.976563 369.289063 C 383.183594 370.210938 394.128906 370.210938 405.085938 363.769531 C 416.027344 357.300781 425.148438 350.867188 425.148438 350.867188 C 425.148438 350.867188 418.753906 372.058594 391.402344 383.125 C 374.0625 390.515625 354.011719 390.515625 347.628906 386.808594 C 341.230469 383.125 333.949219 381.277344 328.464844 383.125 C 323.902344 385.871094 313.871094 384.023438 313.871094 384.023438 M 400.511719 272.519531 C 400.511719 272.519531 389.566406 295.558594 385.921875 306.625 C 382.285156 317.6875 381.371094 335.183594 379.535156 343.488281 C 377.710938 351.78125 374.0625 355.464844 374.0625 355.464844 C 374.0625 355.464844 408.71875 352.703125 425.136719 340.714844 C 451.570313 322.273438 456.144531 290.953125 456.144531 290.953125 C 456.144531 290.953125 447.023438 304.777344 435.167969 312.144531 C 427.871094 316.753906 414.191406 324.121094 405.972656 329.664063 C 398.675781 335.183594 396.851563 342.5625 393.214844 340.726563 C 389.566406 338.878906 394.117188 329.664063 397.765625 322.285156 C 400.5 315.828125 402.324219 306.625 400.5 300.167969 C 400.511719 292.800781 400.511719 272.519531 400.511719 272.519531 M 414.191406 227.363281 C 414.191406 227.363281 410.542969 250.402344 411.457031 259.621094 C 412.367188 268.835938 415.105469 283.585938 414.191406 295.558594 C 413.28125 308.460938 411.457031 313.992188 411.457031 313.992188 C 411.457031 313.992188 447.9375 290.953125 457.054688 269.761719 C 462.515625 256.847656 468 234.730469 468 234.730469 C 468 234.730469 466.175781 238.414063 460.703125 245.796875 C 455.230469 254.089844 447.023438 256.859375 440.628906 266.988281 C 432.421875 279.886719 424.222656 287.28125 424.222656 287.28125 C 424.222656 287.28125 426.046875 266.074219 425.136719 259.632813 C 424.222656 252.253906 414.191406 227.363281 414.191406 227.363281 M 413.28125 175.738281 C 413.28125 175.738281 414.191406 205.246094 417.828125 212.605469 C 422.386719 221.820313 426.960938 230.113281 432.421875 243.011719 C 437.890625 255.910156 436.066406 254.074219 436.066406 254.074219 C 436.066406 254.074219 439.703125 250.402344 441.527344 247.621094 C 443.351563 244.835938 455.207031 234.71875 460.691406 214.441406 C 466.152344 194.160156 461.605469 168.359375 461.605469 168.359375 C 461.605469 168.359375 458.867188 176.652344 457.957031 183.121094 C 456.132813 190.476563 447.925781 200.617188 445.1875 209.820313 C 442.453125 219.960938 442.453125 226.402344 440.628906 226.402344 C 438.816406 226.402344 436.078125 219.9375 435.167969 213.503906 C 435.167969 207.972656 426.960938 197.832031 420.574219 187.703125 C 416.914063 179.4375 413.28125 175.738281 413.28125 175.738281 M 401.425781 133.355469 C 401.425781 133.355469 407.808594 145.332031 411.457031 155.472656 C 416.015625 165.613281 426.960938 177.589844 432.433594 184.03125 C 437.902344 190.5 439.726563 196.007813 439.726563 196.007813 C 439.726563 196.007813 442.464844 186.792969 446.125 179.4375 C 453.421875 166.535156 452.507813 162.851563 453.421875 146.257813 C 453.421875 129.671875 437.929688 106.632813 437.929688 106.632813 C 437.929688 106.632813 439.738281 114.925781 440.652344 120.457031 C 441.5625 125.988281 439.738281 148.105469 438.839844 152.710938 C 437.929688 157.320313 440.652344 169.296875 437.929688 170.230469 C 435.191406 171.15625 426.984375 156.40625 420.589844 149.039063 C 415.105469 141.636719 401.425781 133.355469 401.425781 133.355469 M 380.449219 92.796875 C 380.449219 92.796875 384.085938 106.621094 394.117188 113.089844 C 399.589844 116.761719 414.191406 127.824219 420.5625 132.445313 C 426.960938 137.0625 429.683594 141.660156 429.683594 141.660156 C 429.683594 141.660156 429.683594 106.644531 426.960938 95.578125 C 423.3125 84.515625 405.972656 70.691406 405.972656 70.691406 C 405.972656 70.691406 408.707031 78.996094 411.445313 82.667969 C 414.179688 87.277344 414.179688 96.492188 417.828125 105.707031 C 421.476563 114.925781 424.222656 119.53125 421.476563 120.457031 C 419.652344 121.378906 413.269531 116.773438 409.621094 112.164063 C 405.070313 107.554688 396.851563 104.785156 390.46875 100.1875 C 384.097656 96.480469 380.449219 92.796875 380.449219 92.796875 M 361.597656 48 C 361.597656 48 378.625 76.222656 384.097656 81.730469 C 390.492188 87.265625 405.085938 94.632813 405.085938 94.632813 C 405.085938 94.632813 397.777344 74.351563 388.667969 66.996094 C 379.535156 59.617188 361.597656 48 361.597656 48 M 96.816406 395.074219 C 96.816406 395.074219 99.539063 402.457031 114.144531 407.976563 C 127.824219 414.433594 151.535156 416.269531 163.390625 414.433594 C 175.246094 413.53125 180.71875 410.761719 194.398438 402.46875 C 208.078125 394.164063 214.464844 393.238281 222.671875 392.316406 C 230.878906 391.390625 230.878906 393.238281 230.878906 393.238281 C 230.878906 393.238281 217.199219 400.621094 203.519531 408.910156 C 190.753906 418.128906 179.195313 426.480469 179.195313 426.480469 L 184.667969 432 C 184.667969 432 188.015625 430.105469 200.773438 417.203125 C 214.453125 404.304688 235.429688 395.089844 241.824219 395.089844 C 248.207031 395.089844 265.535156 404.304688 278.304688 413.542969 C 291.070313 422.734375 296.257813 432 296.257813 432 L 300.804688 426.46875 C 300.804688 426.46875 283.765625 411.683594 275.566406 406.152344 C 268.273438 399.695313 252.769531 394.175781 252.769531 394.175781 C 252.769531 394.175781 260.976563 393.253906 266.449219 394.175781 C 271.90625 394.175781 283.777344 400.644531 294.707031 408 C 305.640625 415.355469 315.683594 417.214844 341.21875 414.457031 C 383.171875 410.785156 384.996094 396.949219 384.996094 396.949219 C 384.996094 396.949219 371.316406 404.316406 353.988281 403.402344 C 342.132813 403.402344 320.242188 396.035156 308.386719 392.339844 C 296.53125 388.667969 285.589844 385.882813 277.378906 386.820313 C 260.964844 387.742188 239.988281 391.414063 239.988281 391.414063 C 239.988281 391.414063 223.570313 389.578125 214.453125 387.742188 C 205.332031 385.894531 189.828125 386.820313 168.851563 392.339844 C 148.789063 397.871094 136.933594 401.566406 125.074219 402.492188 C 113.230469 403.378906 96.816406 395.074219 96.816406 395.074219 M 54.863281 349.921875 C 54.863281 349.921875 56.6875 354.527344 68.542969 368.351563 C 86.785156 388.644531 107.761719 389.554688 118.703125 389.554688 C 130.558594 389.554688 143.316406 384.949219 150.625 384.023438 C 157.921875 383.101563 168.863281 384.023438 168.863281 384.023438 C 168.863281 384.023438 160.65625 380.339844 152.460938 372.960938 C 144.238281 366.503906 146.0625 358.210938 134.207031 343.464844 C 122.351563 327.792969 110.496094 319.5 110.496094 319.5 C 110.496094 319.5 115.054688 344.398438 124.175781 359.113281 C 129.648438 369.253906 137.855469 372.9375 136.945313 373.859375 C 136.03125 374.785156 128.734375 374.785156 126 372.9375 C 123.265625 372.011719 115.96875 369.253906 107.761719 368.328125 C 99.539063 367.429688 87.683594 371.089844 74.015625 362.808594 C 67.632813 360.058594 54.863281 349.921875 54.863281 349.921875 M 22.03125 291.863281 C 22.03125 291.863281 30.238281 311.21875 39.371094 325.96875 C 48.492188 340.714844 72.203125 349.933594 80.410156 352.691406 C 88.621094 355.453125 105.949219 356.375 105.949219 356.375 C 105.949219 356.375 101.386719 350.84375 98.640625 340.703125 C 95.914063 331.488281 96.828125 309.371094 91.34375 297.382813 C 84.960938 283.570313 80.398438 275.28125 80.398438 275.28125 C 80.398438 275.28125 81.3125 282.636719 79.488281 287.242188 C 77.664063 296.460938 79.488281 318.574219 81.3125 327.792969 C 83.136719 336.085938 88.609375 341.617188 84.960938 343.464844 C 81.3125 345.300781 79.488281 339.78125 73.105469 333.324219 C 67.632813 326.855469 50.304688 321.359375 39.359375 312.121094 C 30.226563 302.003906 22.03125 291.863281 22.03125 291.863281 M 12 234.71875 C 12 234.71875 12.910156 243.9375 14.734375 251.304688 C 16.558594 258.671875 27.503906 282.636719 39.359375 293.699219 C 51.214844 304.765625 67.621094 315.816406 67.621094 315.816406 C 67.621094 315.816406 66.707031 306.601563 64.882813 299.230469 C 63.070313 291.863281 67.621094 277.117188 68.53125 264.226563 C 69.445313 251.328125 66.707031 229.222656 66.707031 229.222656 C 66.707031 229.222656 55.765625 250.402344 53.941406 267.910156 C 53.027344 278.050781 56.675781 289.105469 53.941406 289.105469 C 50.304688 290.027344 40.273438 268.824219 35.699219 263.316406 C 30.226563 256.847656 26.578125 254.089844 21.109375 248.566406 C 15.648438 243.9375 12 234.71875 12 234.71875 M 16.558594 170.21875 C 16.558594 170.21875 14.734375 202.476563 18.371094 217.222656 C 24.769531 241.1875 43.007813 255.925781 43.007813 255.925781 C 43.007813 255.925781 44.832031 247.632813 48.480469 239.351563 C 52.117188 231.046875 58.511719 222.769531 61.246094 216.3125 C 65.796875 203.410156 67.632813 179.449219 67.632813 179.449219 C 67.632813 179.449219 63.085938 185.902344 59.425781 191.425781 C 55.777344 196.945313 51.214844 203.398438 46.65625 211.703125 C 43.007813 220.921875 42.097656 228.289063 38.449219 229.222656 C 32.976563 230.125 37.535156 220.90625 32.976563 209.84375 C 28.429688 198.78125 21.121094 186.804688 20.207031 181.285156 C 19.296875 175.738281 16.558594 170.21875 16.558594 170.21875 M 41.171875 107.542969 C 41.171875 107.542969 28.414063 125.0625 26.59375 140.722656 C 24.769531 156.394531 25.679688 169.296875 32.050781 180.347656 C 36.613281 187.714844 37.523438 197.855469 37.523438 197.855469 C 37.523438 197.855469 39.347656 192.335938 44.820313 186.792969 C 50.292969 181.273438 59.410156 172.96875 65.796875 161.902344 C 72.191406 150.839844 77.652344 136.117188 77.652344 136.117188 C 77.652344 136.117188 67.632813 141.636719 61.246094 147.179688 C 46.65625 160.09375 39.359375 172.96875 39.359375 172.96875 C 39.359375 172.96875 35.710938 169.296875 36.625 163.753906 C 39.359375 159.15625 40.273438 150.851563 39.359375 144.394531 C 38.449219 138.863281 36.625 135.179688 38.449219 127.8125 C 39.359375 120.457031 41.171875 107.542969 41.171875 107.542969 M 75.828125 71.605469 C 75.828125 71.605469 58.5 81.742188 53.941406 94.644531 C 50.304688 104.785156 52.117188 114.925781 50.304688 125.0625 C 48.480469 135.203125 51.214844 142.570313 51.214844 142.570313 C 51.214844 142.570313 52.117188 139.8125 58.511719 133.355469 C 64.894531 126.886719 74.015625 123.214844 80.398438 118.609375 C 94.992188 108.46875 101.375 92.808594 101.375 92.808594 C 101.375 92.808594 93.167969 100.175781 88.609375 102.949219 C 84.972656 104.773438 76.753906 109.390625 71.28125 113.089844 C 66.71875 115.835938 63.972656 125.0625 63.972656 125.0625 C 63.972656 125.0625 58.511719 120.457031 60.335938 114.910156 C 62.160156 109.390625 64.882813 104.773438 65.796875 99.253906 C 66.707031 93.71875 68.53125 85.429688 71.269531 81.730469 C 73.105469 78.058594 75.828125 71.605469 75.828125 71.605469 M 88.609375 70.679688 C 76.753906 82.65625 74.027344 97.402344 74.027344 97.402344 C 74.027344 97.402344 86.785156 90.960938 97.726563 79.894531 C 106.859375 70.667969 118.402344 48 118.402344 48 C 118.402344 48 94.992188 64.234375 88.609375 70.679688 "/>
</g>
</svg>
