<?xml version="1.0" encoding="UTF-8"?>
<svg xmlns="http://www.w3.org/2000/svg" xmlns:xlink="http://www.w3.org/1999/xlink" width="480pt" height="480pt" viewBox="0 0 480 480" version="1.1">
<g id="surface1">
<path style=" stroke:none;fill-rule:nonzero;fill:#4788C7;fill-opacity:1;" d="M 324 252 L 324 216 L 300 225.46875 L 324.589844 206.53125 L 348 180 L 348 210.3125 L 372 228 L 336 228 Z "/>
<path style="fill:none;stroke-width:1;stroke-linecap:butt;stroke-linejoin:miter;stroke:#4788C7;stroke-opacity:1;stroke-miterlimit:4;" d="M 24.536133 34.5 C 27.5 34.5 29.651042 33.592122 30.382161 33.30013 " transform="matrix(12,0,0,12,0,0)"/>
<path style="fill:none;stroke-width:1;stroke-linecap:butt;stroke-linejoin:miter;stroke:#4788C7;stroke-opacity:1;stroke-miterlimit:4;" d="M 10 20 C 10 20 12.697917 18.976888 16.058919 17.954102 " transform="matrix(12,0,0,12,0,0)"/>
<path style=" stroke:none;fill-rule:nonzero;fill:#4788C7;fill-opacity:1;" d="M 84 228 L 116.746094 228 L 132 204 L 140.746094 240 L 156 264 L 126.253906 252 L 108 276 L 108 248.773438 Z "/>
<path style=" stroke:none;fill-rule:nonzero;fill:#4788C7;fill-opacity:1;" d="M 408 408 L 375.253906 408 L 360 432 L 351.253906 396 L 336 372 L 365.746094 384 L 384 360 L 384 387.226563 Z "/>
<path style=" stroke:none;fill-rule:nonzero;fill:#DFF0FE;fill-opacity:1;" d="M 265.453125 192.648438 C 256.824219 192.648438 246.046875 189.132813 243.71875 187.296875 C 230.28125 179.375 210 145.777344 210 120 C 210 79.019531 238.378906 56.566406 259.105469 40.1875 C 267.3125 33.695313 274.402344 28.09375 278.4375 22.234375 C 295.441406 38.398438 318 67.355469 318 96 C 318 122.328125 306.492188 134.710938 294.300781 147.828125 C 283.753906 159.179688 272.84375 170.914063 270.058594 191.171875 C 270 191.628906 269.988281 192.085938 270.023438 192.539063 C 269.953125 192.457031 269.773438 192.421875 269.507813 192.421875 C 268.8125 192.433594 267.46875 192.648438 265.453125 192.648438 Z "/>
<path style=" stroke:none;fill-rule:nonzero;fill:#4788C7;fill-opacity:1;" d="M 278.84375 31.140625 C 293.867188 46.777344 312 71.929688 312 96 C 312 119.964844 301.765625 130.992188 289.894531 143.746094 C 279.851563 154.558594 268.535156 166.726563 264.71875 186.636719 C 258.035156 186.457031 249.382813 183.828125 247.429688 182.578125 C 246.996094 182.230469 246.527344 181.921875 246.046875 181.644531 C 235.894531 175.703125 216 144.132813 216 120 C 216 81.925781 241.957031 61.390625 262.824219 44.890625 C 268.945313 40.042969 274.511719 35.640625 278.84375 31.140625 M 276 12 C 276 32.28125 204 52.128906 204 120 C 204 147.757813 225.371094 183.457031 240 192 C 243.839844 195.023438 256.246094 198.648438 265.453125 198.648438 C 271.835938 198.648438 276.671875 196.90625 276 192 C 281.628906 151.128906 324 148.128906 324 96 C 324 60.121094 292.128906 25.5 276 12 Z "/>
<path style=" stroke:none;fill-rule:nonzero;fill:#DFF0FE;fill-opacity:1;" d="M 296.039063 462 L 196.1875 450.035156 C 190.476563 448.90625 186 444.121094 186 438.71875 L 186 204 C 186 194.074219 194.074219 186 204 186 L 300 186 C 309.925781 186 318 194.074219 318 204 L 318 238.585938 L 306.636719 261.324219 C 306.214844 262.152344 306 263.0625 306 264 L 306 450.71875 C 306 453.371094 305.398438 462 297.71875 462 Z "/>
<path style=" stroke:none;fill-rule:nonzero;fill:#4788C7;fill-opacity:1;" d="M 300 192 C 306.613281 192 312 197.386719 312 204 L 312 237.167969 L 301.273438 258.636719 C 300.433594 260.304688 300 262.140625 300 264 L 300 450.71875 C 300 452.304688 299.773438 456 297.71875 456 L 296.746094 456 L 197.425781 444.144531 C 194.734375 443.507813 192 441.457031 192 438.71875 L 192 204 C 192 197.386719 197.386719 192 204 192 L 300 192 M 300 180 L 204 180 C 190.800781 180 180 190.800781 180 204 L 180 438.71875 C 180 447.359375 186.839844 454.320313 195.480469 456 L 296.039063 468 L 297.71875 468 C 306.359375 468 312 461.160156 312 450.71875 L 312 264 L 324 240 L 324 204 C 324 190.800781 313.199219 180 300 180 Z "/>
<path style="fill:none;stroke-width:1;stroke-linecap:butt;stroke-linejoin:miter;stroke:#4788C7;stroke-opacity:1;stroke-miterlimit:4;" d="M 26.153971 17.830078 C 28.596029 18.572917 31.5 19.732096 31.5 21.357096 C 31.5 28.080078 9.5 23.748047 9.5 30.17806 C 9.5 32.470052 12.157878 33.989909 15.160156 34.499023 " transform="matrix(12,0,0,12,0,0)"/>
<path style=" stroke:none;fill-rule:nonzero;fill:#4788C7;fill-opacity:1;" d="M 272.796875 339.15625 L 252 324 L 234.394531 348 L 237.601563 312 L 228 281.6875 L 250.402344 298.738281 L 264 276 L 260.796875 308.207031 Z "/>
<path style=" stroke:none;fill-rule:nonzero;fill:#4788C7;fill-opacity:1;" d="M 168 348 L 144 348 L 132 372 L 122.003906 342.816406 L 96 324 L 125.496094 324 L 138 300 L 146.003906 329.183594 Z "/>
<path style=" stroke:none;fill-rule:nonzero;fill:#4788C7;fill-opacity:1;" d="M 396 300 L 372 300 L 360 324 L 350.003906 294.816406 L 324 276 L 348 276 L 360.503906 252 L 369.742188 280.691406 Z "/>
</g>
</svg>
