<?xml version="1.0" standalone="no"?>
<!DOCTYPE svg PUBLIC "-//W3C//DTD SVG 1.1//EN" "http://www.w3.org/Graphics/SVG/1.1/DTD/svg11.dtd" >
<svg>
<metadata>
Created by FontForge 20120731 at Fri Aug 16 07:58:06 2019
 By www-data
----------------------------------------------------------------
  Copyright (c) Hamoonsoft, 2004. All rights reserved.
  Convert And Modified By Mojtaba Kia (c) 2007 - 2008
   Visit : http://forum.p30world.com For More Fonts
----------------------------------------------------------------
</metadata>
<defs>
<font id="Mj_Sayeh-2" horiz-adv-x="0" >
  <font-face 
    font-family="Mj_Sayeh-2"
    font-weight="400"
    font-stretch="normal"
    units-per-em="2048"
    panose-1="0 0 7 0 0 0 0 0 0 0"
    ascent="1638"
    descent="-410"
    bbox="-2822 -2267 2521 2012"
    underline-thickness="100"
    underline-position="-900"
    unicode-range="U+0020-FEFC"
  />
<missing-glyph horiz-adv-x="1024" 
d="M128 0v1298h768v-1298h-768zM256 128h512v1042h-512v-1042z" />
    <glyph glyph-name="uniFC60" unicode="&#x651;&#x64e;" arabic-form="isolated" 
d="M428 1267q5 -43 5 -78q0 -173 -117 -173q-60 0 -80 79q-49 -108 -130 -108q-72 0 -72 88q0 57 34 117h44q-18 -47 -18 -72q0 -40 44 -40q35 0 58 52q17 38 21 82l52 20q1 -57 6 -77q11 -45 49 -45q57 0 57 69q0 26 -7 68zM432 1380l-360 -97l-14 60l358 103z" />
    <glyph glyph-name="uniFC61" unicode="&#x651;&#x64f;" arabic-form="isolated" 
d="M435 1165q6 -42 6 -78q0 -173 -118 -173q-59 0 -80 78q-48 -106 -129 -106q-73 0 -73 88q0 57 34 116h44q-17 -47 -17 -71q0 -40 43 -40q35 0 58 52q17 37 21 81l53 20q1 -57 6 -77q11 -45 48 -45q57 0 57 69q0 27 -7 68zM437 1461q0 -94 -85 -154l51 -34l-41 -46
q-38 26 -54 48q-110 -72 -232 -96l-25 56q96 32 105 36q63 25 95 56q-26 42 -26 75q0 46 37 93q39 49 84 49q37 0 64 -23t27 -60zM383 1441q0 46 -53 46q-22 0 -42.5 -25t-20.5 -47q0 -46 44 -64q28 8 50 35t22 55z" />
    <glyph glyph-name="uniE818" unicode="&#x651;&#x64b;" 
d="M405 1272q6 -42 6 -78q0 -173 -118 -173q-60 0 -80 78q-48 -106 -129 -106q-73 0 -73 88q0 57 34 116h44q-18 -46 -18 -71q0 -40 44 -40q35 0 58 52q17 37 21 81l53 20q1 -56 6 -76q11 -46 48 -46q57 0 57 69q0 27 -7 68zM389 1519l-360 -96l-13 60l357 102zM397 1379
l-360 -97l-14 61l358 101z" />
    <glyph glyph-name="uniFC5E" unicode="&#x651;&#x64c;" arabic-form="isolated" 
d="M425 1203q6 -43 6 -79q0 -173 -118 -173q-59 0 -80 79q-48 -107 -129 -107q-73 0 -73 88q0 57 35 116h43q-17 -46 -17 -71q0 -40 44 -40q35 0 57 52q17 38 22 82l52 20q1 -57 6 -77q11 -46 49 -46q57 0 57 69q0 27 -7 68zM417 1484q0 -92 -84 -155l51 -35l-42 -46
q-42 22 -60 43q-90 -60 -225 -91l-26 55q11 5 23 13q34 31 34 70q0 19 -15 26q-22 10 -53 -9l-5 35q38 33 74 33q44 0 44 -52q0 -32 -28 -86q80 17 128 63q-27 41 -27 75q0 46 37 92q39 50 84 50q37 0 63.5 -22.5t26.5 -58.5zM364 1462q0 46 -53 46q-20 0 -39 -23t-19 -43
q0 -19 12.5 -40.5t29.5 -26.5q26 6 47.5 33t21.5 54z" />
    <glyph glyph-name="uniFC62" unicode="&#x651;&#x650;" arabic-form="isolated" 
d="M418 1471q6 -44 6 -79q0 -173 -118 -173q-60 0 -80 79q-49 -107 -130 -107q-72 0 -72 88q0 56 34 116h44q-18 -47 -18 -72q0 -40 44 -40q35 0 58 52q17 38 21 82l52 20q2 -57 7 -77q11 -45 48 -45q57 0 57 69q0 27 -7 68zM408 1090l-358 -96l-14 60l358 101z" />
    <glyph glyph-name="uniFC5F" unicode="&#x651;&#x64d;" arabic-form="isolated" 
d="M408 1644q6 -43 6 -78q0 -173 -118 -173q-59 0 -80 78q-48 -107 -129 -107q-73 0 -73 88q0 57 34 117h44q-17 -47 -17 -72q0 -40 43 -40q35 0 58 52q17 38 21 82l53 20q1 -57 6 -77q11 -45 49 -45q56 0 56 69q0 26 -7 67zM405 1246l-359 -96l-14 59l359 102zM413 1106
l-358 -97l-15 60l359 102z" />
    <glyph glyph-name="uniFEF5" unicode="&#xfedf;&#xfe82;" horiz-adv-x="622" arabic-form="isolated" 
d="M162 185q6 19 20 19q2 0 32 -23q4 -4 10.5 -8t14.5 -6q25 -9 52 -9q38 0 74 23t65 73q25 37 37 75.5t17 75.5q2 27 4 60.5t-2 71.5v56t-2 55q-1 68 54 68q28 0 43 -20q17 -19 21 -46t1 -57q-3 -87 -5 -132.5t-2 -49.5q-12 -106 -69 -216q-35 -56 -104 -111
q-77 -63 -148 -63q-78 0 -111 94q-15 36 -2 70zM218 659q-4 6 -4 12.5v12.5q0 50 34 50q49 0 66 -78l15 -72q7 -36 10 -72.5t7 -74.5q2 -24 -1.5 -53.5t-5.5 -64.5q-10 -67 -25 -98q-32 -40 -50 -40q-14 0 -14 22q5 24 6 49t1 54q0 55 -9.5 142.5t-29.5 210.5zM-128 651
q139 256 224 327q64 50 193 55q48 0 86 -3.5t70.5 -9t61 -9t57.5 -3.5q124 0 241 112q12 14 47 14q48 0 48 -34q0 -24 -25 -62q-30 -33 -69 -60.5t-85 -47.5q-42 -16 -79 -24t-77 -8q-36 0 -116 15q-46 8 -88.5 11.5t-80.5 3.5q-113 0 -216 -145q-12 -15 -40 -62t-68 -125
q-17 -29 -58 -29q-42 0 -42 36q0 22 16 48z" />
    <glyph glyph-name="uniFEF6" unicode="&#xfee0;&#xfe82;" horiz-adv-x="748" arabic-form="final" 
d="M203 199q4 0 16.5 -7t36.5 -23q41 -28 110 -24q-9 184 -49 301q-18 48 -37 98t-36 98q-5 13 -6 25t-1 20q0 57 35 57q32 0 58 -48q102 -207 102 -406q0 -33 -3 -62.5t-6 -58.5q-4 -4 -2 -7.5t4 -3.5q23 0 54 66q41 81 41 193q0 60 -16 137q-20 111 -10 156q8 36 43 36
q38 0 53 -36q43 -101 36 -257q-12 -186 1 -243q14 -63 129 -70v-140h-25q-26 0 -48.5 7.5t-42.5 22.5q-16 9 -29.5 23.5t-26.5 35.5q-6 7 -10.5 13t-6.5 8q-5 5 -6 7q-3 -1 -7 -6q-3 -2 -7.5 -7.5t-9.5 -12.5q-22 -36 -63 -54q-50 -34 -130 -41q-77 -8 -124 52
q-20 21 -30 49t-10 56q0 46 23 46zM-19 810q60 136 115 168q64 50 193 55q48 0 56 1.5t35.5 -4t56 -9t57.5 -3.5q124 0 204 86q12 14 47 14q48 0 48 -34q0 -24 -25 -62q-30 -33 -50.5 -47.5t-66.5 -34.5q-42 -16 -79 -24t-77 -8q-36 0 -116 15q-36 8 -48.5 6.5t-50.5 -1.5
q-113 0 -170 -88q3 4 -1 -1.5t-44 -83.5q-17 -29 -58 -29q-42 0 -42 36q0 22 16 48z" />
    <glyph glyph-name="uniFEF7" unicode="&#xfedf;&#xfe84;" horiz-adv-x="622" arabic-form="isolated" 
d="M162 185q6 19 20 19q2 0 32 -23q4 -4 10.5 -8t14.5 -6q25 -9 52 -9q38 0 74 23t65 73q25 37 37 75.5t17 75.5q2 27 4 60.5t-2 71.5v56t-2 55q-1 68 54 68q28 0 43 -20q17 -19 21 -46t1 -57q-3 -87 -5 -132.5t-2 -49.5q-12 -106 -69 -216q-35 -56 -104 -111
q-77 -63 -148 -63q-78 0 -111 94q-15 36 -2 70zM218 659q-4 6 -4 12.5v12.5q0 50 34 50q49 0 66 -78l15 -72q7 -36 10 -72.5t7 -74.5q2 -24 -1.5 -53.5t-5.5 -64.5q-10 -67 -25 -98q-32 -40 -50 -40q-14 0 -14 22q5 24 6 49t1 54q0 55 -9.5 142.5t-29.5 210.5zM61 953
q-6 12 -6 22q0 19 12 37.5t31 33.5t44 26t49 13q49 5 49 -45q0 -24 -17 -46q-17 -17 -35 -17q-19 0 -13 27q2 6 6 10.5t7 8.5q7 14 -5 14q-3 0 -12.5 -2t-23.5 -10q-21 -12 -31.5 -21t-10.5 -22q0 -30 54 -30q14 0 39.5 5t35.5 5q37 0 37 -28q0 -9 -2.5 -16.5t-11.5 -14.5
q-18 -19 -49 -44.5t-71 -55.5q-22 -16 -41 -16q-17 0 -17 18q0 20 19 36q17 7 38.5 21.5t51.5 34.5q33 26 15 26q-6 0 -20 -4q-14 -3 -26.5 -5.5t-25.5 -2.5q-51 0 -70 42z" />
    <glyph glyph-name="uniFEF8" unicode="&#xfee0;&#xfe84;" horiz-adv-x="748" arabic-form="final" 
d="M203 199q4 0 16.5 -7t36.5 -23q41 -28 110 -24q-9 184 -49 301q-18 48 -37 98t-36 98q-5 13 -6 25t-1 20q0 57 35 57q32 0 58 -48q102 -207 102 -406q0 -33 -3 -62.5t-6 -58.5q-4 -4 -2 -7.5t4 -3.5q23 0 54 66q41 81 41 193q0 60 -16 137q-20 111 -10 156q8 36 43 36
q38 0 53 -36q43 -101 36 -257q-12 -186 1 -243q14 -63 129 -70v-140h-25q-26 0 -48.5 7.5t-42.5 22.5q-16 9 -29.5 23.5t-26.5 35.5q-6 7 -10.5 13t-6.5 8q-5 5 -6 7q-3 -1 -7 -6q-3 -2 -7.5 -7.5t-9.5 -12.5q-22 -36 -63 -54q-50 -34 -130 -41q-77 -8 -124 52
q-20 21 -30 49t-10 56q0 46 23 46zM61 953q-6 12 -6 22q0 19 12 37.5t31 33.5t44 26t49 13q49 5 49 -45q0 -24 -17 -46q-17 -17 -35 -17q-19 0 -13 27q2 6 6 10.5t7 8.5q7 14 -5 14q-3 0 -12.5 -2t-23.5 -10q-21 -12 -31.5 -21t-10.5 -22q0 -30 54 -30q14 0 39.5 5t35.5 5
q37 0 37 -28q0 -9 -2.5 -16.5t-11.5 -14.5q-18 -19 -49 -44.5t-71 -55.5q-22 -16 -41 -16q-17 0 -17 18q0 20 19 36q17 7 38.5 21.5t51.5 34.5q33 26 15 26q-6 0 -20 -4q-14 -3 -26.5 -5.5t-25.5 -2.5q-51 0 -70 42z" />
    <glyph glyph-name="uniFEF9" unicode="&#xfedf;&#xfe88;" horiz-adv-x="622" arabic-form="isolated" 
d="M162 185q6 19 20 19q2 0 32 -23q4 -4 10.5 -8t14.5 -6q25 -9 52 -9q38 0 74 23t65 73q25 37 37 75.5t17 75.5q2 27 4 60.5t-2 71.5v56t-2 55q-1 68 54 68q28 0 43 -20q17 -19 21 -46t1 -57q-3 -87 -5 -132.5t-2 -49.5q-12 -106 -69 -216q-35 -56 -104 -111
q-77 -63 -148 -63q-78 0 -111 94q-15 36 -2 70zM218 659q-4 6 -4 12.5v12.5q0 50 34 50q49 0 66 -78l15 -72q7 -36 10 -72.5t7 -74.5q2 -24 -1.5 -53.5t-5.5 -64.5q-10 -67 -25 -98q-32 -40 -50 -40q-14 0 -14 22q5 24 6 49t1 54q0 55 -9.5 142.5t-29.5 210.5zM186 -223
q-6 12 -6 22q0 19 12 37.5t31 33.5t44 26t49 13q49 5 49 -45q0 -24 -17 -46q-17 -17 -35 -17q-19 0 -13 27q2 6 6 10.5t7 8.5q7 14 -5 14q-3 0 -12.5 -2t-23.5 -10q-21 -12 -31.5 -21t-10.5 -22q0 -30 54 -30q14 0 39.5 5t35.5 5q37 0 37 -28q0 -9 -2.5 -16.5t-11.5 -14.5
q-18 -19 -49 -44.5t-71 -55.5q-22 -16 -41 -16q-17 0 -17 18q0 20 19 36q17 7 38.5 21.5t51.5 34.5q33 26 15 26q-6 0 -20 -4q-14 -3 -26.5 -5.5t-25.5 -2.5q-51 0 -70 42zM186 -223q-6 12 -6 22q0 19 12 37.5t31 33.5t44 26t49 13q49 5 49 -45q0 -24 -17 -46
q-17 -17 -35 -17q-19 0 -13 27q2 6 6 10.5t7 8.5q7 14 -5 14q-3 0 -12.5 -2t-23.5 -10q-21 -12 -31.5 -21t-10.5 -22q0 -30 54 -30q14 0 39.5 5t35.5 5q37 0 37 -28q0 -9 -2.5 -16.5t-11.5 -14.5q-18 -19 -49 -44.5t-71 -55.5q-22 -16 -41 -16q-17 0 -17 18q0 20 19 36
q17 7 38.5 21.5t51.5 34.5q33 26 15 26q-6 0 -20 -4q-14 -3 -26.5 -5.5t-25.5 -2.5q-51 0 -70 42z" />
    <glyph glyph-name="uniFEFA" unicode="&#xfee0;&#xfe88;" horiz-adv-x="748" arabic-form="final" 
d="M203 199q4 0 16.5 -7t36.5 -23q41 -28 110 -24q-9 184 -49 301q-18 48 -37 98t-36 98q-5 13 -6 25t-1 20q0 57 35 57q32 0 58 -48q102 -207 102 -406q0 -33 -3 -62.5t-6 -58.5q-4 -4 -2 -7.5t4 -3.5q23 0 54 66q41 81 41 193q0 60 -16 137q-20 111 -10 156q8 36 43 36
q38 0 53 -36q43 -101 36 -257q-12 -186 1 -243q14 -63 129 -70v-140h-25q-26 0 -48.5 7.5t-42.5 22.5q-16 9 -29.5 23.5t-26.5 35.5q-6 7 -10.5 13t-6.5 8q-5 5 -6 7q-3 -1 -7 -6q-3 -2 -7.5 -7.5t-9.5 -12.5q-22 -36 -63 -54q-50 -34 -130 -41q-77 -8 -124 52
q-20 21 -30 49t-10 56q0 46 23 46zM186 -223q-6 12 -6 22q0 19 12 37.5t31 33.5t44 26t49 13q49 5 49 -45q0 -24 -17 -46q-17 -17 -35 -17q-19 0 -13 27q2 6 6 10.5t7 8.5q7 14 -5 14q-3 0 -12.5 -2t-23.5 -10q-21 -12 -31.5 -21t-10.5 -22q0 -30 54 -30q14 0 39.5 5t35.5 5
q37 0 37 -28q0 -9 -2.5 -16.5t-11.5 -14.5q-18 -19 -49 -44.5t-71 -55.5q-22 -16 -41 -16q-17 0 -17 18q0 20 19 36q17 7 38.5 21.5t51.5 34.5q33 26 15 26q-6 0 -20 -4q-14 -3 -26.5 -5.5t-25.5 -2.5q-51 0 -70 42z" />
    <glyph glyph-name="uniFEFB" unicode="&#xfedf;&#xfe8e;" horiz-adv-x="622" arabic-form="isolated" 
d="M162 185q6 19 20 19q2 0 32 -23q4 -4 10.5 -8t14.5 -6q25 -9 52 -9q38 0 74 23t65 73q25 37 37 75.5t17 75.5q2 27 4 60.5t-2 71.5v56t-2 55q-1 68 54 68q28 0 43 -20q17 -19 21 -46t1 -57q-3 -87 -5 -132.5t-2 -49.5q-12 -106 -69 -216q-35 -56 -104 -111
q-77 -63 -148 -63q-78 0 -111 94q-15 36 -2 70zM218 659q-4 6 -4 12.5v12.5q0 50 34 50q49 0 66 -78l15 -72q7 -36 10 -72.5t7 -74.5q2 -24 -1.5 -53.5t-5.5 -64.5q-10 -67 -25 -98q-32 -40 -50 -40q-14 0 -14 22q5 24 6 49t1 54q0 55 -9.5 142.5t-29.5 210.5z" />
    <glyph glyph-name="uniFEFC" unicode="&#xfee0;&#xfe8e;" horiz-adv-x="748" arabic-form="final" 
d="M203 199q4 0 16.5 -7t36.5 -23q41 -28 110 -24q-9 184 -49 301q-18 48 -37 98t-36 98q-5 13 -6 25t-1 20q0 57 35 57q32 0 58 -48q102 -207 102 -406q0 -33 -3 -62.5t-6 -58.5q-4 -4 -2 -7.5t4 -3.5q23 0 54 66q41 81 41 193q0 60 -16 137q-20 111 -10 156q8 36 43 36
q38 0 53 -36q43 -101 36 -257q-12 -186 1 -243q14 -63 129 -70v-140h-25q-26 0 -48.5 7.5t-42.5 22.5q-16 9 -29.5 23.5t-26.5 35.5q-6 7 -10.5 13t-6.5 8q-5 5 -6 7q-3 -1 -7 -6q-3 -2 -7.5 -7.5t-9.5 -12.5q-22 -36 -63 -54q-50 -34 -130 -41q-77 -8 -124 52
q-20 21 -30 49t-10 56q0 46 23 46z" />
    <glyph glyph-name="uniFDF2" unicode="&#xfedf;&#xfee0;&#xfeea;" horiz-adv-x="1075" arabic-form="isolated" 
d="M380 0h-9q-56 0 -105 32q-18 15 -39.5 16.5t-39.5 -7.5t-31 -27t-16 -41q0 -7 2.5 -19t6.5 -29q7 -24 2 -44q-17 -44 -56 -44q-41 0 -72 67q-17 43 -17 81q0 84 65 144q57 58 129 58q28 0 63 -18q39 -16 55 -18q43 -10 70 -11q74 1 107 30q35 29 35 108q0 27 -5 61.5
t-13 79.5q-25 139 -25 145q-5 41 9 69q18 32 58 15q35 -17 45 -58q18 -65 30 -138t14 -133q3 -48 13.5 -79t22.5 -52q35 -50 121 -48v-1q79 10 108 65q25 49 25 152q0 24 -2 61t-5 91q-4 105 54 105q39 0 50 -29q14 -36 22 -86t8 -120q0 -139 -26 -196q-77 -171 -236 -183v1
q-77 -3 -119 21q-44 24 -72 74q-18 -26 -45 -44t-57.5 -30t-63 -18t-61.5 -3zM456 963q4 33 19 47q16 13 41 -3q23 -14 22 -69q1 -22 5 -42q13 -34 45 -44q22 -18 63 18q33 63 31.5 96t14 47t41 -2.5t8.5 -88.5q-15 -64 -58 -102q-34 -30 -73 -35q-43 -8 -77 20
q-21 17 -38 52q-14 -23 -33 -41q-34 -30 -73 -35q-43 -8 -78 20q-32 27 -55 98q-25 76 0 99q8 6 19.5 5.5t18.5 -6.5q4 -3 17 -28q2 -42 8 -66q11 -40 36 -61q28 -17 62 12q47 53 36 86q-2 13 -2 23z" />
    <glyph glyph-name="afii57410" unicode="&#x622;" horiz-adv-x="463" arabic-form="isolated" 
d="M233 662q139 256 224 327q64 50 193 55q48 0 86 -3.5t70.5 -9t61 -9t57.5 -3.5q124 0 241 112q12 14 47 14q48 0 48 -34q0 -24 -25 -62q-30 -33 -69 -60.5t-85 -47.5q-42 -16 -79 -24t-77 -8q-36 0 -116 15q-46 8 -88.5 11.5t-80.5 3.5q-113 0 -216 -145q-12 -15 -40 -62
t-68 -125q-17 -29 -58 -29q-42 0 -42 36q0 22 16 48zM225 25q38 26 66 48t48 38q60 54 110 155q22 46 35 83t14 70q3 79 -9 82q-6 3 -18 -24q-16 -43 -22 -49q-30 -59 -48 -92t-23 -41q-16 -34 -22 -70t-6 -78q4 -21 -18 -21q-23 0 -44 21q-24 33 -17 63q79 194 149 323
q8 18 17 62q9 41 18 53q20 29 49 29q67 0 81 -179v-49q0 -200 -128 -346q-32 -37 -77 -76.5t-109 -81.5q-19 -12 -36 -12q-41 0 -41 46q0 35 31 46z" />
    <glyph glyph-name="uniFE82" unicode="&#x622;" horiz-adv-x="389" arabic-form="final" 
d="M160 393q32 92 97 185q70 96 106 96q26 0 26 -26q0 -13 -49 -97q-30 -50 -50.5 -101.5t-32.5 -107.5q-4 -23 -7 -42t-3 -39q-1 -31 10.5 -54.5t32 -37.5t48 -21.5t58.5 -7.5v-140q-156 -12 -225 95q-39 56 -39 142q0 34 6.5 73.5t21.5 82.5zM-128 651q139 256 224 327
q64 50 193 55q48 0 86 -3.5t70.5 -9t61 -9t57.5 -3.5q124 0 241 112q12 14 47 14q48 0 48 -34q0 -24 -25 -62q-30 -33 -69 -60.5t-85 -47.5q-42 -16 -79 -24t-77 -8q-36 0 -116 15q-46 8 -88.5 11.5t-80.5 3.5q-113 0 -216 -145q-12 -15 -40 -62t-68 -125q-17 -29 -58 -29
q-42 0 -42 36q0 22 16 48z" />
    <glyph glyph-name="afii57411" unicode="&#x623;" horiz-adv-x="420" arabic-form="isolated" 
d="M80 125q26 16 47 32.5t39 27.5q-3 38 15 116t58 203q37 116 68 195.5t54 117.5q21 36 57 36q38 0 43 -36q7 -31 9 -64t2 -72q0 -175 -52 -327q-56 -173 -164 -239q0 -122 -36 -122q-6 0 -11.5 2t-12.5 6q-18 10 -27 71q-17 -7 -30.5 -10t-25.5 -3q-45 0 -45 37
q0 19 12 29zM256 254q49 36 80 105t47 174q2 19 4.5 37t2.5 32q0 28 -7 28q-11 0 -36 -60q-91 -228 -91 -309v-7zM171 1113q-6 12 -6 22q0 19 12 37.5t31 33.5t44 26t49 13q49 5 49 -45q0 -24 -17 -46q-17 -17 -35 -17q-19 0 -13 27q2 6 6 10.5t7 8.5q7 14 -5 14
q-3 0 -12.5 -2t-23.5 -10q-21 -12 -31.5 -21t-10.5 -22q0 -30 54 -30q14 0 39.5 5t35.5 5q37 0 37 -28q0 -9 -2.5 -16.5t-11.5 -14.5q-18 -19 -49 -44.5t-71 -55.5q-22 -16 -41 -16q-17 0 -17 18q0 20 19 36q17 7 38.5 21.5t51.5 34.5q33 26 15 26q-6 0 -20 -4
q-14 -3 -26.5 -5.5t-25.5 -2.5q-51 0 -70 42z" />
    <glyph glyph-name="uniFE84" unicode="&#x623;" horiz-adv-x="389" arabic-form="final" 
d="M160 393q32 92 97 185q70 96 106 96q26 0 26 -26q0 -13 -49 -97q-30 -50 -50.5 -101.5t-32.5 -107.5q-4 -23 -7 -42t-3 -39q-1 -31 10.5 -54.5t32 -37.5t48 -21.5t58.5 -7.5v-140q-156 -12 -225 95q-39 56 -39 142q0 34 6.5 73.5t21.5 82.5zM171 923q-6 12 -6 22
q0 19 12 37.5t31 33.5t44 26t49 13q49 5 49 -45q0 -24 -17 -46q-17 -17 -35 -17q-19 0 -13 27q2 6 6 10.5t7 8.5q7 14 -5 14q-3 0 -12.5 -2t-23.5 -10q-21 -12 -31.5 -21t-10.5 -22q0 -30 54 -30q14 0 39.5 5t35.5 5q37 0 37 -28q0 -9 -2.5 -16.5t-11.5 -14.5
q-18 -19 -49 -44.5t-71 -55.5q-22 -16 -41 -16q-17 0 -17 18q0 20 19 36q17 7 38.5 21.5t51.5 34.5q33 26 15 26q-6 0 -20 -4q-14 -3 -26.5 -5.5t-25.5 -2.5q-51 0 -70 42z" />
    <glyph glyph-name="afii57412" unicode="&#x624;" horiz-adv-x="404" arabic-form="isolated" 
d="M-110 -67q9 10 77 34q76 26 121 56q141 86 159 168q-15 -3 -28.5 2t-24.5 13q-34 25 -34 75q0 18 5 36q35 169 139 184h16q106 0 106 -145q0 -73 -30 -143q-107 -218 -354 -298q-68 -22 -107 -22q-52 0 -52 28q0 4 7 12zM68 733q-6 12 -6 22q0 19 12 37.5t31 33.5t44 26
t49 13q49 5 49 -45q0 -24 -17 -46q-17 -17 -35 -17q-19 0 -13 27q2 6 6 10.5t7 8.5q7 14 -5 14q-3 0 -12.5 -2t-23.5 -10q-21 -12 -31.5 -21t-10.5 -22q0 -30 54 -30q14 0 39.5 5t35.5 5q37 0 37 -28q0 -9 -2.5 -16.5t-11.5 -14.5q-18 -19 -49 -44.5t-71 -55.5
q-22 -16 -41 -16q-17 0 -17 18q0 20 19 36q17 7 38.5 21.5t51.5 34.5q33 26 15 26q-6 0 -20 -4q-14 -3 -26.5 -5.5t-25.5 -2.5q-51 0 -70 42z" />
    <glyph glyph-name="uniFE86" unicode="&#x624;" horiz-adv-x="516" arabic-form="final" 
d="M-74 -243q66 8 125 26.5t112 51.5q57 33 93.5 78t51.5 94q-14 4 -28 14q-11 8 -23 22t-19 34q-3 14 -3 28q0 57 42 128q43 64 93 79q19 5 38 5q88 0 88 -136v-16t-2 -20q-1 -1 -1 -2.5t6.5 -2t24.5 -0.5v-140h-23h-16t-17 0.5t-24 0.5q-70 -134 -182 -211t-264 -97
q-12 -2 -19.5 -2h-14.5q-82 0 -82 39q0 25 44 27zM108 633q-6 12 -6 22q0 19 12 37.5t31 33.5t44 26t49 13q49 5 49 -45q0 -24 -17 -46q-17 -17 -35 -17q-19 0 -13 27q2 6 6 10.5t7 8.5q7 14 -5 14q-3 0 -12.5 -2t-23.5 -10q-21 -12 -31.5 -21t-10.5 -22q0 -30 54 -30
q14 0 39.5 5t35.5 5q37 0 37 -28q0 -9 -2.5 -16.5t-11.5 -14.5q-18 -19 -49 -44.5t-71 -55.5q-22 -16 -41 -16q-17 0 -17 18q0 20 19 36q17 7 38.5 21.5t51.5 34.5q33 26 15 26q-6 0 -20 -4q-14 -3 -26.5 -5.5t-25.5 -2.5q-51 0 -70 42z" />
    <glyph glyph-name="afii57413" unicode="&#x625;" horiz-adv-x="420" arabic-form="isolated" 
d="M80 125q26 16 47 32.5t39 27.5q-3 38 15 116t58 203q37 116 68 195.5t54 117.5q21 36 57 36q38 0 43 -36q7 -31 9 -64t2 -72q0 -175 -52 -327q-56 -173 -164 -239q0 -122 -36 -122q-6 0 -11.5 2t-12.5 6q-18 10 -27 71q-17 -7 -30.5 -10t-25.5 -3q-45 0 -45 37
q0 19 12 29zM256 254q49 36 80 105t47 174q2 19 4.5 37t2.5 32q0 28 -7 28q-11 0 -36 -60q-91 -228 -91 -309v-7zM83 -209q-6 12 -6 22q0 19 12 37.5t31 33.5t44 26t49 13q49 5 49 -45q0 -24 -17 -46q-17 -17 -35 -17q-19 0 -13 27q2 6 6 10.5t7 8.5q7 14 -5 14
q-3 0 -12.5 -2t-23.5 -10q-21 -12 -31.5 -21t-10.5 -22q0 -30 54 -30q14 0 39.5 5t35.5 5q37 0 37 -28q0 -9 -2.5 -16.5t-11.5 -14.5q-18 -19 -49 -44.5t-71 -55.5q-22 -16 -41 -16q-17 0 -17 18q0 20 19 36q17 7 38.5 21.5t51.5 34.5q33 26 15 26q-6 0 -20 -4
q-14 -3 -26.5 -5.5t-25.5 -2.5q-51 0 -70 42z" />
    <glyph glyph-name="uniFE88" unicode="&#x625;" horiz-adv-x="389" arabic-form="final" 
d="M160 393q32 92 97 185q70 96 106 96q26 0 26 -26q0 -13 -49 -97q-30 -50 -50.5 -101.5t-32.5 -107.5q-4 -23 -7 -42t-3 -39q-1 -31 10.5 -54.5t32 -37.5t48 -21.5t58.5 -7.5v-140q-156 -12 -225 95q-39 56 -39 142q0 34 6.5 73.5t21.5 82.5zM83 -209q-6 12 -6 22
q0 19 12 37.5t31 33.5t44 26t49 13q49 5 49 -45q0 -24 -17 -46q-17 -17 -35 -17q-19 0 -13 27q2 6 6 10.5t7 8.5q7 14 -5 14q-3 0 -12.5 -2t-23.5 -10q-21 -12 -31.5 -21t-10.5 -22q0 -30 54 -30q14 0 39.5 5t35.5 5q37 0 37 -28q0 -9 -2.5 -16.5t-11.5 -14.5
q-18 -19 -49 -44.5t-71 -55.5q-22 -16 -41 -16q-17 0 -17 18q0 20 19 36q17 7 38.5 21.5t51.5 34.5q33 26 15 26q-6 0 -20 -4q-14 -3 -26.5 -5.5t-25.5 -2.5q-51 0 -70 42z" />
    <glyph glyph-name="afii57414" unicode="&#x626;" horiz-adv-x="1421" arabic-form="isolated" 
d="M-1602 -949q12 -5 93 -22q36 -11 134 -14q148 -8 320.5 39t373.5 142q333 158 634 403q146 122 367 337t519 532q512 541 584 594q51 32 83 32q51 0 51 -63v-9t-4 -12q-4 -20 -9 -34t-16 -16q-63 -34 -144 -107q-27 -24 -53 -49t-54 -53q-38 -37 -114 -116.5t-187 -202.5
q-129 -143 -234.5 -254t-186.5 -193q-137 -140 -271.5 -263t-265.5 -232q-205 -171 -406 -294.5t-403 -202.5q-316 -128 -538 -120q-74 4 -134 18t-105 41q-78 45 -78 92q0 27 33 27h11zM24 732q-6 12 -6 22q0 19 12 37.5t31 33.5t44 26t49 13q49 5 49 -45q0 -24 -17 -46
q-17 -17 -35 -17q-19 0 -13 27q2 6 6 10.5t7 8.5q7 14 -5 14q-3 0 -12.5 -2t-23.5 -10q-21 -12 -31.5 -21t-10.5 -22q0 -30 54 -30q14 0 39.5 5t35.5 5q37 0 37 -28q0 -9 -2.5 -16.5t-11.5 -14.5q-18 -19 -49 -44.5t-71 -55.5q-22 -16 -41 -16q-17 0 -17 18q0 20 19 36
q17 7 38.5 21.5t51.5 34.5q33 26 15 26q-6 0 -20 -4q-14 -3 -26.5 -5.5t-25.5 -2.5q-51 0 -70 42z" />
    <glyph glyph-name="uniFE8A" unicode="&#x626;" horiz-adv-x="372" arabic-form="final" 
d="M-2777 -1860q5 -3 28.5 -6.5t62.5 -15.5q21 -2 55 -5.5t80 -5.5q295 -12 693 179q336 160 633 407q151 120 372.5 335.5t517.5 529.5q180 193 291.5 314.5t158.5 171.5q94 111 154 111q7 0 19 -2t27.5 -5t32.5 -5.5t31 -2.5v-140q-19 0 -37.5 1.5t-35.5 9.5q-8 4 -20 4
q-24 0 -65 -36l-42.5 -42.5t-41.5 -43.5q-126 -140 -252 -278t-253 -278q-210 -228 -406 -415t-383 -343q-206 -169 -406.5 -292t-402.5 -202q-314 -130 -540 -122q-73 4 -132.5 18.5t-105.5 43.5q-78 45 -78 91q0 26 32 26h6t7 -2zM-991 99q-6 12 -6 22q0 19 12 37.5
t31 33.5t44 26t49 13q49 5 49 -45q0 -24 -17 -46q-17 -17 -35 -17q-19 0 -13 27q2 6 6 10.5t7 8.5q7 14 -5 14q-3 0 -12.5 -2t-23.5 -10q-21 -12 -31.5 -21t-10.5 -22q0 -30 54 -30q14 0 39.5 5t35.5 5q37 0 37 -28q0 -9 -2.5 -16.5t-11.5 -14.5q-18 -19 -49 -44t-71 -55
q-22 -16 -41 -16q-17 0 -17 18q0 20 19 36q17 7 38.5 21t51.5 34q33 26 15 26q-6 0 -20 -4q-14 -3 -26.5 -5.5t-25.5 -2.5q-51 0 -70 42z" />
    <glyph glyph-name="uniFE8B" unicode="&#x626;" horiz-adv-x="312" arabic-form="initial" 
d="M-7 140q37 -1 65 5t51.5 20.5t45 36.5t44.5 53q7 11 14.5 27.5t16.5 30t17.5 23t16.5 6.5q20 -3 33 -27t13 -54q0 -6 -2 -11t-3 -11q-15 -47 -47 -91.5t-75 -78t-91.5 -53.5t-98.5 -16v140zM90 693q-6 12 -6 22q0 19 12 37.5t31 33.5t44 26t49 13q49 5 49 -45
q0 -24 -17 -46q-17 -17 -35 -17q-19 0 -13 27q2 6 6 10.5t7 8.5q7 14 -5 14q-3 0 -12.5 -2t-23.5 -10q-21 -12 -31.5 -21t-10.5 -22q0 -30 54 -30q14 0 39.5 5t35.5 5q37 0 37 -28q0 -9 -2.5 -16.5t-11.5 -14.5q-18 -19 -49 -44.5t-71 -55.5q-22 -16 -41 -16q-17 0 -17 18
q0 20 19 36q17 7 38.5 21.5t51.5 34.5q33 26 15 26q-6 0 -20 -4q-14 -3 -26.5 -5.5t-25.5 -2.5q-51 0 -70 42z" />
    <glyph glyph-name="uniFE8C" unicode="&#x626;" horiz-adv-x="353" arabic-form="medial" 
d="M-9 140q46 1 79 10t58 27t43 47t36 72q10 18 33 18q22 0 41.5 -18.5t19.5 -46.5q0 -19 -9.5 -45.5t-16.5 -34.5q19 -13 36.5 -21.5t46.5 -7.5v-140q-48 -4 -91.5 17.5t-65.5 54.5q-34 -33 -88.5 -52.5t-121.5 -19.5v140zM125 707q-4 6 -4.5 10.5t-0.5 10.5q0 18 11.5 36
t30.5 33.5t43 26.5t48 15q48 7 48 -47q0 -28 -19 -46q-13 -14 -32 -14q-21 0 -15 24q4 7 7 11t5 8q10 17 -1 17q-9 0 -37 -15q-41 -16 -41 -43q0 -31 54 -31q15 0 38 6t40 6q34 0 34 -28q0 -21 -12 -32q-21 -19 -51.5 -44.5t-71.5 -55.5q-27 -18 -40 -18q-17 0 -17 22
q0 20 19 34q14 7 36 22t50 36q20 12 23.5 19t-6.5 7q-3 0 -18 -4q-15 -6 -29 -7t-24 -1q-50 0 -68 42z" />
    <glyph glyph-name="afii57415" unicode="&#x627;" horiz-adv-x="420" arabic-form="isolated" 
d="M80 125q26 16 47 32.5t39 27.5q-3 38 15 116t58 203q37 116 68 195.5t54 117.5q21 36 57 36q38 0 43 -36q7 -31 9 -64t2 -72q0 -175 -52 -327q-56 -173 -164 -239q0 -122 -36 -122q-6 0 -11.5 2t-12.5 6q-18 10 -27 71q-17 -7 -30.5 -10t-25.5 -3q-45 0 -45 37
q0 19 12 29zM256 254q49 36 80 105t47 174q2 19 4.5 37t2.5 32q0 28 -7 28q-11 0 -36 -60q-91 -228 -91 -309v-7z" />
    <glyph glyph-name="uniFE8E" unicode="&#x627;" horiz-adv-x="389" arabic-form="final" 
d="M160 393q32 92 97 185q70 96 106 96q26 0 26 -26q0 -13 -49 -97q-30 -50 -50.5 -101.5t-32.5 -107.5q-4 -23 -7 -42t-3 -39q-1 -31 10.5 -54.5t32 -37.5t48 -21.5t58.5 -7.5v-140q-156 -12 -225 95q-39 56 -39 142q0 34 6.5 73.5t21.5 82.5z" />
    <glyph glyph-name="afii57416" unicode="&#x628;" horiz-adv-x="1771" arabic-form="isolated" 
d="M0 458q-6 47 35 47q20 0 36 -12q68 -44 172.5 -78t248.5 -58q265 -40 553 54q108 38 220 92.5t230 132.5q7 5 78 56t205 148q64 43 73 43q20 7 30 7q53 0 53 -51q0 -36 -49 -72q-173 -130 -305.5 -219.5t-227.5 -142.5q-159 -88 -312 -138t-297 -63q-24 -1 -49 -3t-49 -2
q-104 0 -202.5 17t-190.5 53q-79 27 -133 57t-83 63q-29 32 -36 69zM773 -112q28 30 46 30q23 0 36 -26q15 -24 10 -43q-13 -87 -68 -87q-56 0 -56 55q0 35 32 71z" />
    <glyph glyph-name="uniFE90" unicode="&#x628;" horiz-adv-x="2169" arabic-form="final" 
d="M15 30q-14 30 -17 65.5t3 71.5t18 72t29 67q28 57 66 102t88 83q14 7 22 7q13 0 13 -23q0 -38 -24 -76q-90 -118 -107 -178q-12 -29 -12 -63q0 -121 171 -179q67 -25 157 -37t202 -12q84 0 170 9q113 8 255.5 42t318.5 92q294 95 513 223q71 37 112 37q49 0 57 -49
q9 -45 23.5 -76t40.5 -50q12 -9 29 -13t33 -5v-140q-132 -5 -175 117q-12 42 -27 64t-28 23q-7 0 -19 -5t-24 -12q-65 -43 -188 -98.5t-307 -119.5q-112 -40 -222.5 -73t-222.5 -51q-93 -16 -197 -23.5t-203.5 -7t-188 10.5t-152.5 32q-41 18 -70 33.5t-51.5 33.5t-43 42
t-42.5 64zM835 -501q21 27 44 27q12 0 22.5 -7.5t16.5 -18t9 -22t0 -21.5q-13 -87 -69 -87q-54 0 -54 59q0 33 31 70z" />
    <glyph glyph-name="uniFE91" unicode="&#x628;" horiz-adv-x="317" arabic-form="initial" 
d="M-8 140q37 -1 66 5t53 20.5t45.5 36.5t42.5 53q8 11 15.5 27.5t16 30t17.5 23t17 6.5q21 -3 32.5 -27t11.5 -54q0 -6 -2 -11t-2 -11q-14 -47 -46.5 -91.5t-76 -78t-92 -53.5t-98.5 -16v140zM165 -93q25 26 44 26q23 0 36.5 -23.5t11.5 -45.5q-13 -86 -71 -86
q-55 0 -55 57q0 18 9 35t25 37z" />
    <glyph glyph-name="uniFE92" unicode="&#x628;" horiz-adv-x="354" arabic-form="medial" 
d="M-6 140q48 1 81 10t57.5 27t42.5 47t35 72q12 18 31 18q25 0 44.5 -18.5t19.5 -46.5q0 -19 -9 -45.5t-16 -34.5q16 -13 34 -21.5t47 -7.5v-140q-48 -4 -91 17.5t-67 54.5q-31 -33 -87.5 -52.5t-121.5 -19.5v140zM29 -415q25 30 45 30q22 0 36.5 -25t10.5 -46
q-17 -87 -69 -87q-56 0 -56 57q0 37 33 71z" />
    <glyph glyph-name="afii57506" unicode="&#x67e;" horiz-adv-x="1771" arabic-form="isolated" 
d="M0 463q-7 44 33 44q18 0 38 -10q67 -46 171.5 -79t249.5 -57q266 -42 553 54q216 71 450 226q7 2 78 53t205 149q30 21 48 32.5t25 12.5q9 2 16 4t14 2q53 0 53 -54q0 -37 -49 -72q-346 -255 -533 -358q-159 -91 -312 -141t-297 -63q-26 -1 -50 -1.5t-48 -0.5
q-211 0 -396 65q-156 57 -214 124q-15 14 -24 32t-11 38zM621 -496q18 7 32 11t26 4q92 21 173 92q35 26 57 56t35 59q9 27 9 46q0 23 -22 23q-7 0 -16.5 -3t-21.5 -6q-108 -42 -101 -95q1 -3 5 -7.5t10 -9.5t10 -12t2 -13q-1 -45 -37 -45q-12 0 -25.5 8.5t-25 23.5
t-19.5 33.5t-8 38.5q0 77 78 144q79 71 175 71q29 0 51 -5q78 -21 78 -95q0 -66 -64 -166q-27 -44 -52 -72.5t-47 -49.5q-36 -24 -62 -42t-43 -26q-31 -18 -61.5 -24.5t-64.5 -6.5h-16t-19 2q-12 0 -28.5 12.5t-16.5 30.5q0 8 3 12t6 11z" />
    <glyph glyph-name="uniFB57" unicode="&#x67e;" horiz-adv-x="2186" arabic-form="final" 
d="M34 30q-14 30 -17 65.5t3 71.5t18 72t29 67q29 57 66.5 102t88.5 83q13 7 20 7q16 0 16 -23q0 -20 -7.5 -38t-18.5 -38q-45 -60 -71 -105t-37 -73q-4 -16 -6.5 -31t-2.5 -32q0 -121 169 -179q67 -25 157 -37t204 -12q81 0 167 9q113 8 255 42t321 92q148 47 274.5 102.5
t237.5 120.5q71 37 113 37q48 0 55 -49q17 -89 65 -126q15 -9 30 -11.5t35 -6.5v-140q-133 -5 -176 117q-26 84 -58 87q-7 0 -19 -5t-23 -12q-132 -89 -493 -218q-113 -40 -224 -73t-223 -51q-93 -16 -197 -23.5t-203.5 -7t-187.5 10.5t-153 32q-41 18 -70.5 33.5t-52 33.5
t-42.5 42t-42 64zM516 -819q16 8 30.5 10t27.5 2q47 11 89 35t82 54q35 31 57.5 61t32.5 59q12 30 12 47q0 22 -22 22q-7 0 -17 -3t-24 -6q-104 -43 -98 -96q0 -7 14.5 -18t14.5 -23q-10 -48 -41 -48q-24 0 -52 34q-12 17 -18.5 36t-6.5 38q0 39 19.5 75.5t59.5 71.5
q77 67 176 67q24 0 51 -5q78 -19 78 -98q0 -72 -61 -168q-53 -89 -104 -117q-29 -15 -56 -32.5t-52 -33.5q-34 -15 -65 -24t-61 -9q-16 0 -30.5 1.5t-27.5 12.5q-18 13 -18 29q0 14 10 26z" />
    <glyph glyph-name="uniFB58" unicode="&#x67e;" horiz-adv-x="334" arabic-form="initial" 
d="M-129 -593q0 28 26.5 58.5t76.5 63.5q89 65 149 77q9 3 17.5 4t18.5 1q61 0 102 -76q7 -21 7 -43q0 -54 -38.5 -108t-98.5 -80q-23 -10 -41 -10q-52 0 -52 51q0 7 1 12q15 10 29.5 17.5t27.5 10.5q65 39 65 70q0 34 -41 44q-25 0 -60 -14q-22 -11 -41 -31.5t-32 -48.5
q-29 -72 -77 -68q-49 3 -39 70zM-9 140q38 -1 67 5t52.5 20.5t45 36.5t42.5 53q8 11 15.5 27.5t16.5 30t17.5 23t16.5 6.5q21 -3 32.5 -27t11.5 -54q0 -6 -1.5 -11t-2.5 -11q-14 -47 -46.5 -91.5t-75 -78t-92 -53.5t-99.5 -16v140z" />
    <glyph glyph-name="uniFB59" unicode="&#x67e;" horiz-adv-x="358" arabic-form="medial" 
d="M-153 -586q5 49 103 121q46 34 82.5 52.5t65.5 25.5q10 2 20 2.5t17 0.5q65 0 101 -76q2 -12 5.5 -21t3.5 -20q0 -27 -10.5 -54.5t-28.5 -54t-43.5 -47t-54.5 -33.5q-24 -11 -40 -11q-54 0 -54 50q0 8 1 14q31 21 57 26q64 38 64 71q0 32 -38 43q-23 5 -59 -12
q-51 -26 -76 -80q-30 -72 -75 -70q-51 5 -41 73zM-4 140q46 1 79 10t58 27t43 47t36 72q10 18 33 18q22 0 41.5 -18.5t19.5 -46.5q0 -19 -9.5 -45.5t-16.5 -34.5q19 -13 36.5 -21.5t46.5 -7.5v-140q-48 -4 -91.5 17.5t-65.5 54.5q-34 -33 -88.5 -52.5t-121.5 -19.5v140z" />
    <glyph glyph-name="afii57418" unicode="&#x62a;" horiz-adv-x="1771" arabic-form="isolated" 
d="M0 463q-9 46 35 46q16 0 36 -11q129 -93 423 -138q259 -41 550 57q109 34 220 90t227 134q8 2 78.5 53t208.5 149q29 22 47.5 33.5t25.5 13.5q14 5 28 5q55 0 55 -55q0 -37 -50 -72q-171 -126 -303.5 -215.5t-228.5 -142.5q-323 -175 -611 -200q-49 -5 -99 -5
q-103 0 -201 17t-194 51q-77 29 -129.5 58.5t-82.5 61.5q-28 33 -35 70zM367 993q37 12 73 26t73 28q62 26 119 42.5t109 33.5q200 54 324.5 80t178.5 26q67 0 67 -29q0 -19 -61 -40q-26 -7 -50 -12.5t-48 -7.5q-95 -12 -197.5 -36t-213.5 -65q-164 -56 -250 -88.5
t-96 -41.5q-57 -40 -80 -40q-15 0 -15 14q0 31 67 110z" />
    <glyph glyph-name="uniFE96" unicode="&#x62a;" horiz-adv-x="2174" arabic-form="final" 
d="M22 30q-14 30 -17 65.5t3 71.5t18 72t29 67q29 57 66.5 102t88.5 83q13 7 20 7q16 0 16 -23q0 -20 -7.5 -38t-18.5 -38q-45 -60 -71 -105t-37 -73q-4 -16 -6.5 -31t-2.5 -32q0 -121 169 -179q67 -25 157 -37t204 -12q81 0 167 9q113 8 255 42t321 92q148 47 274.5 102.5
t237.5 120.5q71 37 113 37q48 0 55 -49q17 -89 65 -126q15 -9 30 -11.5t35 -6.5v-140q-133 -5 -176 117q-26 84 -58 87q-7 0 -19 -5t-23 -12q-132 -89 -493 -218q-113 -40 -224 -73t-223 -51q-93 -16 -197 -23.5t-203.5 -7t-187.5 10.5t-153 32q-41 18 -70.5 33.5t-52 33.5
t-42.5 42t-42 64zM555 619q77 25 148 55q123 43 228 75q194 54 319 79.5t182 25.5q68 0 68 -31q0 -20 -60 -37q-27 -7 -50.5 -12.5t-48.5 -6.5q-291 -59 -411 -104q-166 -58 -252 -90t-96 -39q-57 -41 -78 -41q-15 0 -15 14q0 35 66 112z" />
    <glyph glyph-name="uniFE97" unicode="&#x62a;" horiz-adv-x="340" arabic-form="initial" 
d="M-8 140q37 -1 66.5 5t53.5 20.5t44.5 36.5t41.5 53q8 11 17 27.5t17 30t17 23t18 6.5q18 -3 30.5 -27t12.5 -54q0 -6 -2 -11t-3 -11q-14 -47 -46.5 -91.5t-75 -78t-92 -53.5t-99.5 -16v140zM134 780q98 63 247 63q72 0 102 -14q44 -13 44 -34q0 -24 -65 -27
q-163 -9 -296 -69q-14 -4 -29 -4q-42 0 -42 34q0 14 9.5 26.5t29.5 24.5z" />
    <glyph glyph-name="uniFE98" unicode="&#x62a;" horiz-adv-x="350" arabic-form="medial" 
d="M-11 140q48 1 81 10t57.5 27t43.5 47t37 72q9 18 31 18q23 0 42.5 -18.5t19.5 -46.5q0 -19 -9.5 -45.5t-15.5 -34.5q18 -13 35 -21.5t45 -7.5v-140q-46 -4 -89 17.5t-67 54.5q-32 -33 -88 -52.5t-123 -19.5v140zM61 722q48 30 101.5 44t117.5 14q57 0 88 -10
q45 -18 45 -33q0 -24 -66 -30q-41 0 -79.5 -8t-77.5 -21q-21 -6 -45 -16.5t-53 -20.5q-9 -4 -14 -6t-12 -2q-43 0 -43 38q0 27 38 51z" />
    <glyph glyph-name="afii57419" unicode="&#x62b;" horiz-adv-x="1771" arabic-form="isolated" 
d="M0 461q-6 46 33 46q18 0 38 -10q67 -46 173 -79.5t250 -57.5q261 -41 551 55q217 72 450 222q16 11 87 61.5t196 144.5q59 40 77 45q16 6 26 6q53 0 53 -54q0 -37 -49 -72q-173 -130 -306 -218.5t-227 -142.5q-159 -88 -312 -137t-297 -64l-50 -2h-48q-207 0 -393 65
q-160 60 -216 121q-30 36 -36 71zM685 918q29 12 56 13q93 26 171 91q69 59 91 117q5 15 8 26.5t3 19.5q0 22 -21 22q-8 0 -18 -2t-22 -5q-108 -43 -101 -96q0 -3 4.5 -8t10.5 -10.5t10 -11.5t2 -12q-3 -46 -37 -46q-23 0 -50 33q-27 31 -27 74q0 77 78 144q78 70 172 70
q14 0 27.5 -2t25.5 -7q78 -18 78 -92q0 -67 -60 -166q-54 -83 -105 -119q-33 -28 -63.5 -46t-56.5 -27q-32 -13 -66 -20t-76 -7q-14 0 -29.5 13.5t-15.5 29.5q0 11 11 24z" />
    <glyph glyph-name="uniFE9A" unicode="&#x62b;" horiz-adv-x="2224" arabic-form="final" 
d="M71 30q-14 30 -16.5 65.5t3 71.5t17.5 72t26 67q29 57 68.5 102t88.5 83q14 7 22 7q14 0 14 -23q0 -20 -7 -38t-19 -38q-44 -60 -70 -105t-36 -73q-12 -29 -12 -63q0 -121 171 -179q67 -25 157 -37t204 -12q82 0 168 9q113 8 255 42t320 92q146 47 273.5 102.5
t238.5 120.5q71 37 113 37q49 0 56 -49q8 -45 23 -76t40 -50q13 -9 30 -11.5t33 -6.5v-140q-130 -5 -172 117q-14 42 -29.5 64t-28.5 23q-8 0 -19.5 -5t-23.5 -12q-65 -43 -187.5 -98.5t-305.5 -119.5q-114 -40 -224.5 -73t-222.5 -51q-93 -16 -197 -23.5t-203.5 -7
t-188 10.5t-152.5 32q-41 18 -70 33.5t-51.5 33.5t-43 42t-42.5 64zM844 537q35 12 58 14q96 25 170 91q73 59 89 115q14 29 14 49q0 19 -23 19q-14 0 -39 -8q-107 -38 -100 -94q3 -7 16 -18.5t13 -23.5q-7 -45 -42 -45q-10 0 -23.5 8.5t-24.5 24t-18.5 34.5t-7.5 41
q0 78 75 144q40 36 83 51.5t91 15.5q28 0 54 -7q76 -18 76 -94q0 -67 -60 -167q-53 -82 -102 -117q-37 -29 -67 -46.5t-53 -26.5q-33 -12 -67 -19.5t-76 -7.5q-14 0 -30.5 13.5t-16.5 28.5q0 17 11 25z" />
    <glyph glyph-name="uniFE9B" unicode="&#x62b;" horiz-adv-x="347" arabic-form="initial" 
d="M67 509q15 7 25.5 13t21.5 11q148 84 148 202q0 35 -25 35q-11 0 -22 -3.5t-25 -15.5q-53 -36 -53 -78q0 -13 4 -18q2 -6 14 -10t17 -15q2 -3 2 -11q0 -35 -31 -35q-20 0 -46 17q-46 28 -46 83q0 66 54 115q61 59 141 60q99 2 99 -108q0 -56 -17 -102.5t-47 -78.5
q-77 -85 -169 -109q-16 -3 -33.5 4.5t-17.5 25.5q0 8 6 18zM-6 140q73 -2 118 25t89 90q7 11 14.5 27.5t16.5 30t18 23t18 6.5q20 -3 31 -27t11 -54q0 -8 -4 -22q-14 -47 -46.5 -91.5t-74.5 -78t-92 -53.5t-99 -16v140z" />
    <glyph glyph-name="uniFE9C" unicode="&#x62b;" horiz-adv-x="358" arabic-form="medial" 
d="M-4 140q46 1 79 10t58 27t43 47t36 72q10 18 33 18q22 0 41.5 -18.5t19.5 -46.5q0 -19 -9.5 -45.5t-16.5 -34.5q19 -13 36.5 -21.5t46.5 -7.5v-140q-48 -4 -91.5 17.5t-65.5 54.5q-34 -33 -88.5 -52.5t-121.5 -19.5v140zM69 509q11 7 23.5 13t20.5 11q150 86 150 202
q0 35 -27 35q-10 0 -20 -3.5t-22 -15.5q-58 -35 -58 -78q0 -13 6 -18q0 -6 13 -10t16 -15q6 -6 6 -11q0 -35 -35 -35q-19 0 -44 17q-45 26 -45 83q0 65 53 115q60 58 139 60q99 2 99 -108q0 -56 -14.5 -102.5t-48.5 -78.5q-37 -43 -79.5 -71t-88.5 -38q-17 -3 -33.5 4.5
t-16.5 25.5q0 3 1 8t5 10z" />
    <glyph glyph-name="afii57420" unicode="&#x62c;" horiz-adv-x="523" arabic-form="isolated" 
d="M-37 41q28 42 59.5 81.5t66.5 76.5q37 42 65 78t50 65q-87 116 -87 259q0 52 12 97t35 82q52 86 135 103q34 11 68 11q79 0 119 -55q37 -46 37 -123q0 -53 -22 -102q-22 -48 -47 -91.5t-53 -82.5q-38 -55 -86 -115q29 -32 47.5 -54t30.5 -32q6 -12 10.5 -22.5t4.5 -18.5
q0 -31 -34 -31q-11 0 -21 7q-39 37 -59.5 61t-27.5 34q-93 -123 -142 -186.5t-55 -71.5q-116 -170 -116 -303q0 -99 67 -175q73 -83 243 -83q73 0 138.5 18t123.5 57q108 67 144 67q17 0 17 -15t-27 -56q-14 -20 -24 -31t-17 -18q-89 -63 -179.5 -97t-184.5 -41
q-185 -16 -302 71q-125 92 -125 258q0 86 35 180t101 198zM258 410q105 117 128 209q5 22 5 37q0 72 -68 72q-8 0 -14.5 -1.5t-9.5 -3.5q-87 -60 -87 -145q0 -35 11 -77.5t35 -90.5zM191 -316q-21 11 -21 36q0 9 4.5 22.5t16.5 29.5q6 12 12 19.5t12 17.5q3 18 27 18
q52 0 52 -43q0 -10 -4 -15q-21 -92 -74 -92q-15 0 -25 7z" />
    <glyph glyph-name="uniFE9E" unicode="&#x62c;" horiz-adv-x="494" arabic-form="final" 
d="M261 30v-1q-48 -28 -101.5 -84.5t-117.5 -143.5q-57 -77 -94 -139.5t-60 -115.5t-32.5 -98t-9.5 -85q0 -65 22 -113.5t70 -87.5q89 -65 234 -65h35q34 4 77 12t97 23q71 21 131 45t109 55q45 29 76 29q32 0 32 -30q0 -5 -1 -10.5t-1 -9.5q-12 -15 -24.5 -25.5
t-21.5 -17.5q-42 -32 -100.5 -64t-141.5 -61q-84 -28 -159 -43t-140 -15q-34 0 -66 7q-346 55 -346 353q0 141 92 304q38 63 89 133t117 148q7 12 25.5 31.5t47.5 52.5q25 23 43 44t30 38q-45 69 -45 150q0 79 48 165q93 165 185 173q64 6 100 -35.5t36 -107.5
q0 -120 -138 -288q8 -7 38.5 -10t105.5 -3v-140h-42q-118 0 -166 14q-33 9 -33 15v1zM261 187q103 86 125 174q1 8 3 16.5t2 15.5q0 51 -36 51q-21 0 -60 -27q-61 -57 -61 -162q0 -56 27 -68zM216 -552q-22 9 -22 33q0 20 22 54q13 18 24 38q7 14 30 14q51 0 51 -40
q0 -8 -5 -18q-19 -45 -37 -68t-39 -23q-12 0 -24 10z" />
    <glyph glyph-name="uniFE9F" unicode="&#x62c;" horiz-adv-x="539" arabic-form="initial" 
d="M-9 140q15 0 38 2t52 4q-4 13 -4.5 26t-0.5 27q0 121 120 223l176 121q40 28 72 28q46 0 65 -56q23 -42 18 -108q-4 -124 -180 -256q-132 -89 -148 -92q32 -52 32 -88q0 -32 -24 -32q-15 0 -27 10q-35 47 -49 84q-58 -26 -140 -33v140zM155 228q-6 -61 5 -61q12 0 39 16
q152 88 210 200q17 22 17 36q0 24 -73 -2q-38 -14 -72.5 -37t-63.5 -49q-54 -53 -62 -103zM66 -372q25 27 48 27q21 0 36 -27q15 -21 12 -45q-13 -87 -72 -87q-29 0 -42.5 15.5t-13.5 43.5q0 36 32 73z" />
    <glyph glyph-name="uniFEA0" unicode="&#x62c;" horiz-adv-x="512" arabic-form="medial" 
d="M-6 140q34 0 68 3.5t55 8.5q-9 22 -17 39.5t-13 41.5q-8 52 22.5 102t82.5 89t114.5 63.5t117 26t92 -23.5t37.5 -83q0 -51 -39 -105q-9 -17 -29.5 -36.5t-44 -41t-48 -40.5t-44.5 -32q13 -3 35.5 -5t48 -4t49.5 -2.5t38 -0.5v-140q-26 0 -64.5 1.5t-81.5 7.5t-86 17
t-75 29q-19 -8 -47.5 -18.5t-59 -18t-60 -13t-51.5 -5.5v140zM205 169q9 6 38 15.5t73 36.5q59 36 91.5 68t32.5 82q0 32 -41 32q-23 0 -57 -13q-22 -6 -45 -18t-47 -30q-76 -57 -76 -114q1 -11 8 -31t23 -28zM67 -312q23 27 47 27q10 0 20.5 -7t17 -18t9.5 -23.5t3 -23.5
q-13 -88 -72 -88q-56 0 -56 61q0 18 8 36.5t23 35.5z" />
    <glyph glyph-name="afii57507" unicode="&#x686;" horiz-adv-x="527" arabic-form="isolated" 
d="M-32 51q27 39 58.5 79t63.5 80q39 42 67.5 76.5t50.5 63.5q-85 112 -85 257q0 101 44 181q52 83 136 102q18 5 34.5 8t32.5 3q79 0 119 -56q36 -45 36 -122q0 -58 -20 -102q-49 -102 -100 -172q-21 -29 -42.5 -58t-44.5 -58q28 -33 47 -54.5t31 -31.5q13 -22 13 -41
q0 -30 -32 -30q-7 0 -11.5 0.5t-11.5 6.5q-37 38 -57.5 59.5t-26.5 33.5q-96 -125 -145.5 -188.5t-52.5 -68.5q-59 -86 -87 -162.5t-28 -141.5q0 -99 66 -175q73 -83 244 -83q74 0 139.5 18t122.5 57q106 67 144 67q17 0 17 -14q0 -16 -29 -57q-12 -18 -22.5 -28.5
t-17.5 -18.5q-92 -63 -182.5 -98.5t-185.5 -42.5q-177 -13 -300 72q-122 91 -122 258q0 168 137 381zM23 -197q7 50 92 119q80 66 132 74q8 4 14.5 4h13.5q71 0 109 -78q11 -19 11 -41q0 -24 -9.5 -50t-27 -50t-41 -44t-50.5 -32q-20 -10 -41 -10q-47 0 -47 47q0 8 1 14
q30 17 60 28q54 30 54 61q0 29 -38 42q-33 6 -76 -26q-32 -24 -48 -62q-30 -64 -72 -63q-43 0 -37 67zM262 419q105 114 127 205q2 12 2 21.5v17.5q0 71 -63 71q-19 0 -25 -6q-87 -50 -87 -140q0 -76 46 -169z" />
    <glyph glyph-name="uniFB7B" unicode="&#x686;" horiz-adv-x="523" arabic-form="final" 
d="M290 30v-1q-45 -28 -99 -84t-119 -144q-55 -77 -93.5 -139.5t-61 -115.5t-32.5 -98t-10 -85q0 -65 24 -113.5t70 -87.5q88 -65 235 -65h33q34 4 76.5 12t96.5 23q75 21 135 45t108 55q43 29 74 29q34 0 34 -30q0 -5 -1.5 -10.5t-3.5 -9.5q-12 -15 -24 -25.5t-22 -17.5
q-78 -66 -240 -125q-84 -28 -159.5 -43t-140.5 -15q-33 0 -66 7q-344 55 -344 353q0 146 92 304q36 63 86.5 133t116.5 148q8 12 28 31.5t50 52.5q23 23 40.5 44t30.5 38q-47 69 -47 150q0 80 49 165q93 165 185 173q66 6 100 -35.5t34 -107.5q0 -121 -136 -288
q9 -7 38.5 -10t107.5 -3v-140h-42q-120 0 -169 14q-34 9 -34 15v1zM83 -759q0 51 45 64q47 14 117 128q60 101 68 149q4 16 5.5 31t1.5 29q0 49 -26 49q-28 0 -69 -36q-56 -48 -54 -112q34 -39 57 -53q6 -23 -8.5 -41t-36.5 -18t-55 18q-45 26 -45 91q0 40 13.5 78.5t37 72
t56.5 60.5t73 42q28 10 52 10q66 0 100 -72q7 -14 10.5 -30.5t3.5 -37.5q0 -108 -87 -252q-41 -66 -80.5 -113t-81.5 -73q-17 -14 -32 -18.5t-28 -4.5q-37 0 -37 39zM290 187q109 88 126 174q4 8 4 16.5v15.5q0 51 -34 51q-23 0 -59 -27q-63 -57 -63 -162q0 -56 26 -68z" />
    <glyph glyph-name="uniFB7C" unicode="&#x686;" horiz-adv-x="511" arabic-form="initial" 
d="M-10 140q16 0 38.5 2t51.5 4q-3 13 -5 26t-2 27q0 61 29.5 116.5t92.5 106.5l177 121q39 28 69 28q47 0 68 -56q22 -46 18 -108q-8 -124 -180 -256q-132 -89 -148 -92q30 -51 30 -88q0 -32 -23 -32q-14 0 -26 10q-19 24 -31 46t-20 38q-56 -26 -139 -33v140zM-35 -643
q14 4 27.5 5t22.5 1q86 20 141 53t81 83l6 18t3 16q0 25 -33 25q-7 0 -16 -0.5t-17 -2.5q-100 -28 -95 -78q0 -6 11 -15t11 -21q2 -36 -33 -36q-24 0 -50 31q-19 27 -19 55q0 29 18.5 57.5t50.5 55.5q70 51 155 51q16 0 33 -3t33 -7q64 -18 64 -75q0 -56 -64 -132
q-50 -67 -103 -92q-43 -27 -83 -38t-76 -11h-22t-18 1q-42 3 -42 36q0 14 14 23zM153 228q-8 -61 5 -61t41 16q149 88 211 200q15 25 15 36q0 24 -72 -2q-39 -14 -73.5 -37t-63.5 -49q-57 -56 -63 -103z" />
    <glyph glyph-name="uniFB7D" unicode="&#x686;" horiz-adv-x="503" arabic-form="medial" 
d="M-13 140q34 0 67.5 3.5t53.5 8.5q-8 22 -16 39.5t-13 41.5q-8 52 23 102t83 89t114 63.5t118 26t92.5 -23.5t36.5 -83q0 -46 -36 -105q-9 -17 -30 -36.5t-46 -41t-49.5 -40.5t-42.5 -32q12 -3 35.5 -5t48.5 -4t48 -2.5t36 -0.5v-140q-26 0 -64.5 1.5t-81 7.5t-85 17
t-74.5 29q-20 -8 -48 -18.5t-58 -18t-60 -13t-52 -5.5v140zM-8 -637q15 6 26.5 6.5t23.5 0.5q84 20 138.5 53t82.5 84q11 19 11 33q0 25 -36 25q-13 0 -33 -3q-97 -25 -97 -78q4 -6 13.5 -15t13.5 -20q2 -37 -35 -37q-23 0 -49 31q-9 12 -15 26.5t-6 29.5q0 28 17.5 57
t52.5 55q69 52 156 52q15 0 31 -3t31 -8q67 -18 67 -75q0 -55 -63 -134q-54 -65 -102 -91q-46 -25 -86 -36.5t-73 -11.5h-22.5t-22.5 1q-40 4 -40 36q0 13 16 22zM198 169q10 6 38.5 15.5t70.5 36.5q59 36 92 68t33 82q0 32 -39 32q-24 0 -57 -13q-21 -6 -45 -18t-48 -30
q-77 -57 -77 -114q3 -11 9 -31t23 -28z" />
    <glyph glyph-name="afii57421" unicode="&#x62d;" horiz-adv-x="518" arabic-form="isolated" 
d="M-41 44q27 42 58.5 81.5t63.5 78.5q39 42 67.5 77.5t50.5 65.5q-43 54 -64 118.5t-21 136.5q0 103 44 184q50 78 136 102q37 8 67 8q77 0 119 -53q36 -49 36 -122q0 -61 -20 -102q-24 -49 -48.5 -93t-51.5 -82q-21 -29 -42.5 -58t-44.5 -57q28 -33 47 -54.5t31 -32.5
q13 -24 13 -39q0 -34 -32 -34q-7 0 -11.5 2.5t-11.5 4.5q-37 37 -57.5 60t-26.5 33q-96 -125 -145.5 -188t-52.5 -67q-115 -173 -115 -301q0 -101 66 -178q73 -81 244 -81q151 0 262 72q106 68 144 68q17 0 17 -14q0 -19 -29 -58q-12 -17 -22.5 -30t-17.5 -18
q-174 -126 -365 -140q-183 -13 -299 73q-124 89 -124 258q-2 167 135 379zM253 411q54 60 85 112.5t42 97.5q2 9 4 19t2 19q0 70 -67 70q-18 0 -25 -4q-44 -29 -47 -38q-37 -37 -37 -106q0 -38 10 -78.5t33 -91.5z" />
    <glyph glyph-name="uniFEA2" unicode="&#x62d;" horiz-adv-x="494" arabic-form="final" 
d="M261 30v-1q-48 -28 -101.5 -84.5t-117.5 -143.5q-57 -77 -94 -139.5t-60 -115.5t-32.5 -98t-9.5 -85q0 -65 22 -113.5t70 -87.5q89 -65 234 -65h35q34 4 77 12t97 23q71 21 131 45t109 55q45 29 76 29q32 0 32 -30q0 -5 -1 -10.5t-1 -9.5q-12 -15 -24.5 -25.5
t-21.5 -17.5q-42 -32 -100.5 -64t-141.5 -61q-84 -28 -159 -43t-140 -15q-34 0 -66 7q-346 55 -346 353q0 141 92 304q38 63 89 133t117 148q7 12 25.5 31.5t47.5 52.5q25 23 43 44t30 38q-45 69 -45 150q0 79 48 165q93 165 185 173q64 6 100 -35.5t36 -107.5
q0 -120 -138 -288q8 -7 38.5 -10t105.5 -3v-140h-42q-118 0 -166 14q-33 9 -33 15v1zM261 187q103 86 125 174q1 8 3 16.5t2 15.5q0 51 -36 51q-21 0 -60 -27q-61 -57 -61 -162q0 -56 27 -68z" />
    <glyph glyph-name="uniFEA3" unicode="&#x62d;" horiz-adv-x="533" arabic-form="initial" 
d="M-12 140q17 0 40 2t53 4q-4 13 -6 26t-2 27q0 120 122 223l177 121q37 28 70 28q47 0 65 -56q25 -42 20 -108q-4 -123 -181 -256q-132 -90 -147 -92q15 -26 22.5 -47.5t7.5 -40.5q0 -32 -25 -32q-3 0 -10 2t-14 8q-37 51 -50 84q-57 -26 -142 -33v140zM154 228
q-9 -61 5 -61q13 0 40 16q152 88 210 200q16 21 16 36q0 24 -73 -2q-40 -14 -73.5 -37t-61.5 -49q-56 -55 -63 -103z" />
    <glyph glyph-name="uniFEA4" unicode="&#x62d;" horiz-adv-x="509" arabic-form="medial" 
d="M-9 140q36 0 69.5 3.5t53.5 8.5q-9 22 -16.5 39.5t-12.5 41.5q-8 52 23 102t83 89t114 63.5t118 26t92.5 -23.5t36.5 -83q0 -50 -38 -105q-11 -17 -31 -36.5t-44 -41t-48.5 -40.5t-42.5 -32q12 -3 35.5 -5t48 -4t48 -2.5t36.5 -0.5v-140q-26 0 -64.5 1.5t-81 7.5t-85 17
t-74.5 29q-20 -8 -49 -18.5t-59.5 -18t-60 -13t-51.5 -5.5v140zM204 169q10 6 38.5 15.5t70.5 36.5q59 36 92 68t33 82q0 32 -39 32q-26 0 -58 -13q-22 -6 -45 -18t-47 -30q-77 -57 -77 -114q3 -11 9 -31t23 -28z" />
    <glyph glyph-name="afii57422" unicode="&#x62e;" horiz-adv-x="534" arabic-form="isolated" 
d="M-22 43q24 41 55.5 81.5t66.5 79.5q37 38 65.5 74t51.5 69q-44 54 -65.5 118.5t-21.5 136.5q0 106 46 184q26 39 59 64t75 37q18 2 35 5t33 3q79 0 119 -52q37 -48 37 -122q0 -58 -22 -107q-45 -98 -100 -173q-21 -28 -42 -56.5t-44 -57.5q29 -32 47.5 -53.5t30.5 -33.5
q12 -23 12 -41q0 -30 -31 -30q-11 0 -21 7q-39 37 -59.5 60t-27.5 33q-93 -118 -141 -182t-54 -73q-60 -89 -89 -163t-29 -138q0 -101 67 -178q73 -81 243 -81q73 0 138.5 17.5t123.5 54.5q56 36 91 52t53 16q17 0 17 -14q0 -18 -27 -59q-26 -36 -41 -47
q-177 -126 -364 -140q-185 -16 -301 73q-124 90 -124 258q0 170 138 378zM269 411q105 118 128 210q1 9 2 19t1 19q0 70 -66 70q-17 0 -22 -4q-42 -27 -47 -33q-39 -41 -39 -111q0 -38 10 -79t33 -91zM361 1231q24 29 48 29q11 0 20.5 -7.5t16 -17.5t9 -22.5t1.5 -22.5
q-17 -92 -73 -92q-55 0 -55 62q0 37 33 71z" />
    <glyph glyph-name="uniFEA6" unicode="&#x62e;" horiz-adv-x="530" arabic-form="final" 
d="M302 30v-1q-46 -28 -99 -84t-118 -144q-57 -77 -94.5 -139.5t-60 -115.5t-32.5 -98t-10 -85q0 -126 94 -201q42 -31 100.5 -48t131.5 -17h36q34 4 76.5 12t96.5 23q72 21 132.5 45t108.5 55q44 29 76 29q34 0 34 -30q0 -5 -2 -10.5t-3 -9.5q-13 -15 -24.5 -25.5
t-21.5 -17.5q-41 -32 -100 -64t-142 -61q-83 -28 -158 -43t-141 -15q-34 0 -67 7q-342 55 -342 353q0 146 92 304q34 63 85.5 133t116.5 148q8 12 27.5 31.5t49.5 52.5q45 45 70 82q-24 36 -34 72.5t-10 77.5q0 79 48 165q94 165 185 173q65 6 100 -35.5t35 -107.5
q0 -120 -138 -288q9 -7 39.5 -10t106.5 -3v-140h-42q-119 0 -168 14q-34 10 -34 15v1zM302 187q54 43 86.5 86.5t40.5 87.5q1 8 1 16.5v15.5q0 51 -32 51q-24 0 -60 -27q-62 -60 -62 -162q0 -56 26 -68zM422 1038q24 29 48 29q23 0 34 -28q9 -12 10.5 -21.5t1.5 -20.5
q-17 -88 -72 -88q-57 0 -57 56q0 36 35 73z" />
    <glyph glyph-name="uniFEA7" unicode="&#x62e;" horiz-adv-x="545" arabic-form="initial" 
d="M-11 140q17 0 39.5 2t53.5 4q-5 13 -6 26t-1 27q0 120 120 223l177 121q37 28 72 28q43 0 66 -56q22 -44 18 -108q-5 -124 -180 -256q-133 -89 -150 -92q31 -50 31 -88q0 -32 -22 -32q-15 0 -27 10q-18 24 -30.5 46t-19.5 38q-55 -26 -141 -33v140zM156 228q-9 -61 5 -61
q11 0 37 16q151 88 211 200q15 22 15 36q0 24 -71 -2q-38 -14 -73 -37t-64 -49q-53 -54 -60 -103zM367 1029q27 27 48 27q12 0 21 -7.5t16.5 -18t10.5 -22t2 -21.5q-15 -91 -72 -91t-57 61q0 33 31 72z" />
    <glyph glyph-name="uniFEA8" unicode="&#x62e;" horiz-adv-x="509" arabic-form="medial" 
d="M-9 140q36 0 69.5 3.5t53.5 8.5q-9 22 -16.5 39.5t-12.5 41.5q-8 52 23 102t83 89t114 63.5t118 26t92.5 -23.5t36.5 -83q0 -50 -38 -105q-11 -17 -31 -36.5t-44 -41t-48.5 -40.5t-42.5 -32q12 -3 35.5 -5t48 -4t48 -2.5t36.5 -0.5v-140q-26 0 -64.5 1.5t-81 7.5t-85 17
t-74.5 29q-20 -8 -49 -18.5t-59.5 -18t-60 -13t-51.5 -5.5v140zM204 169q10 6 38.5 15.5t70.5 36.5q59 36 92 68t33 82q0 32 -39 32q-26 0 -58 -13q-22 -6 -45 -18t-47 -30q-77 -57 -77 -114q3 -11 9 -31t23 -28zM414 1004q11 13 22 20t24 7q12 0 21 -7.5t15.5 -18
t9.5 -23.5t3 -22q-13 -88 -73 -88q-54 0 -54 58q0 17 7 35.5t25 38.5z" />
    <glyph glyph-name="afii57423" unicode="&#x62f;" horiz-adv-x="425" arabic-form="isolated" 
d="M0 41q0 33 24.5 53.5t53.5 22.5h59q37 8 102 78q79 81 79 165q0 25 -7.5 48.5t-22.5 42.5q-20 26 -30.5 49t-10.5 41q0 50 48 50q39 0 58 -27q37 -42 54.5 -89t17.5 -97q0 -105 -74 -204q-28 -34 -60.5 -64t-73.5 -57q-88 -60 -146 -60q-71 0 -71 48z" />
    <glyph glyph-name="uniFEAA" unicode="&#x62f;" horiz-adv-x="660" arabic-form="final" 
d="M-16 -201q-56 0 -56 42q0 27 40 51q64 54 127 108t125 108q78 66 129.5 106.5t77.5 58.5q30 24 52 24q31 0 73 -93q8 -17 15.5 -29.5t19 -20t29.5 -11t49 -3.5v-140q-33 0 -60 4t-48.5 16.5t-37 36.5t-23.5 65q-9 45 -35 45q-17 0 -69 -35q-86 -78 -167 -150.5
t-154 -142.5q-45 -40 -87 -40z" />
    <glyph glyph-name="afii57424" unicode="&#x630;" horiz-adv-x="518" arabic-form="isolated" 
d="M92 41q0 33 25 53.5t54 22.5h58q37 8 102 78q80 81 80 165q0 48 -31 91q-41 54 -41 90q0 50 49 50q36 0 58 -27q35 -42 53.5 -89t18.5 -97q0 -107 -77 -204q-53 -70 -132 -121q-42 -29 -79 -44.5t-67 -15.5q-71 0 -71 48zM340 869q27 26 47 26q11 0 20.5 -7t16 -17.5
t9.5 -22.5t0 -23q-15 -86 -69 -86q-55 0 -55 58q0 33 31 72z" />
    <glyph glyph-name="uniFEAC" unicode="&#x630;" horiz-adv-x="770" arabic-form="final" 
d="M99 -201q-54 0 -54 42q0 29 40 51q65 54 127 108l124 108q76 66 129 106.5t79 58.5q29 24 48 24q35 0 75 -93q9 -17 16.5 -29.5t19 -20t29.5 -11t50 -3.5v-140q-32 0 -59 4t-49 16.5t-38 36.5t-24 65q-9 45 -35 45q-17 0 -67 -35q-88 -78 -169 -150.5t-154 -142.5
q-46 -40 -88 -40zM640 710q27 27 48 27q22 0 36.5 -25t8.5 -46q-12 -85 -70 -85q-51 0 -51 60q0 16 7 33t21 36z" />
    <glyph glyph-name="afii57425" unicode="&#x631;" horiz-adv-x="498" arabic-form="isolated" 
d="M-72 -51q67 29 172 121t254 247q92 100 132 100q26 0 26 -34q0 -51 -30 -81q-49 -50 -98 -99.5t-96 -99.5q-192 -180 -288 -209q-29 -9 -53.5 -13t-41.5 -4q-41 0 -41 18q0 26 64 54z" />
    <glyph glyph-name="uniFEAE" unicode="&#x631;" horiz-adv-x="556" arabic-form="final" 
d="M-55 -250q54 19 102 44.5t91 57.5q27 22 60.5 53.5t74.5 75.5q37 40 66.5 67t52.5 43q58 49 169 49v-140h-60q-66 -5 -135 -70q-247 -243 -412 -265h-23q-65 0 -65 28q0 27 79 57z" />
    <glyph glyph-name="afii57426" unicode="&#x632;" horiz-adv-x="476" arabic-form="isolated" 
d="M-72 -53q67 31 173 123t253 244q92 101 134 101q25 0 25 -32q0 -54 -30 -81l-99.5 -99.5t-95.5 -99.5q-95 -91 -167 -142.5t-121 -67.5q-58 -18 -95 -18q-41 0 -41 19q0 24 64 53zM410 817q25 28 46 28t37 -24q13 -24 12 -44q-16 -85 -71 -85q-54 0 -54 58q0 30 30 67z
" />
    <glyph glyph-name="uniFEB0" unicode="&#x632;" horiz-adv-x="554" arabic-form="final" 
d="M-51 -250q52 19 100.5 44.5t91.5 57.5q25 22 59.5 53.5t73.5 75.5q40 40 69 67t49 43q62 49 170 49v-140h-60q-67 -5 -134 -70q-247 -243 -412 -265h-21q-67 0 -67 28q0 27 81 57zM429 696q28 29 46 29q23 0 36.5 -24t10.5 -46q-15 -85 -70 -85q-53 0 -53 57q0 35 30 69z
" />
    <glyph glyph-name="afii57508" unicode="&#x698;" horiz-adv-x="478" arabic-form="isolated" 
d="M-72 -48q65 30 171.5 122.5t254.5 250.5q94 95 136 95q23 0 23 -31q0 -28 -8 -48t-25 -35q-46 -47 -95.5 -96t-98.5 -100q-194 -181 -286 -210q-31 -8 -54.5 -13.5t-41.5 -5.5q-50 0 -39 23q9 27 63 48zM282 641q15 4 27 9.5t23 8.5q158 72 181 184q2 6 2 11.5v11.5
q0 30 -29 30q-16 0 -43 -17q-75 -37 -75 -85q-5 -5 -1.5 -7t10 -7.5t14 -14t9.5 -21.5q0 -34 -32 -34q-20 0 -47 19q-35 27 -35 72q0 35 18 68.5t56 66.5q80 66 171 61q84 -4 84 -83q0 -27 -8.5 -61.5t-28.5 -72.5q-20 -34 -36 -58t-34 -41q-44 -39 -90.5 -63t-93.5 -30
q-16 -4 -32.5 6.5t-16.5 24.5q0 10 7 22z" />
    <glyph glyph-name="uniFB8B" unicode="&#x698;" horiz-adv-x="555" arabic-form="final" 
d="M-51 -250q52 19 100.5 44.5t91.5 57.5q25 22 59.5 53.5t73.5 75.5q40 40 69 67t49 43q62 49 170 49v-140h-60q-67 -5 -134 -70q-247 -243 -412 -265h-21q-67 0 -67 28q0 27 81 57zM229 422q12 7 24 12t24 6q153 76 180 184q3 13 3 24q0 32 -27 32q-17 0 -46 -15
q-73 -42 -73 -87q-5 -5 -1.5 -8.5t10.5 -9t14 -12.5t9 -19q0 -36 -32 -36q-20 0 -47 22q-37 27 -37 66q0 64 73 121q78 57 171 54q86 -4 86 -78q0 -25 -10 -55t-28 -64q-34 -59 -69 -96q-87 -79 -186 -92q-15 -3 -31.5 6t-16.5 26q0 10 10 19z" />
    <glyph glyph-name="afii57427" unicode="&#x633;" horiz-adv-x="1426" arabic-form="isolated" 
d="M-1572 -1219q-20 24 -20 45q0 45 42 45q11 0 22 -9q10 -11 38 -15.5t74 -4.5t85.5 3.5t80.5 10.5q264 52 662 357q137 105 301.5 252t357.5 336q103 103 207.5 210.5t210.5 221.5l193 213q54 65 97 118t78 95q21 26 43 26q14 0 34 -11q62 -31 116 -31q17 0 35.5 3t44.5 5
q44 11 85 30.5t79 47.5q44 35 98 107q48 52 56 54q24 4 42 -9.5t18 -33.5q0 -8 -8.5 -29t-29.5 -50q-31 -48 -72.5 -87.5t-93.5 -75.5q-118 -78 -240 -78q-60 0 -112 18q-4 3 -14 3q-17 0 -50 -36l-87 -105q-37 -44 -75.5 -87.5t-75.5 -86.5q-87 -99 -158.5 -177
t-132.5 -143q-164 -172 -311.5 -314t-279.5 -253q-171 -144 -281.5 -234t-168.5 -131q-238 -172 -472 -240q-68 -20 -133.5 -27t-128.5 1q-109 10 -156 66z" />
    <glyph glyph-name="uniFEB2" unicode="&#x633;" horiz-adv-x="892" arabic-form="final" 
d="M-2302 -1720q-22 23 -22 46q0 47 41 47q15 0 26 -12q17 -21 113 -21q46 0 86 4.5t77 10.5q268 54 664 357q137 108 299.5 254t356.5 335q106 104 210.5 211t209.5 219q47 55 96 108t99 106q19 21 62 74.5t113 141.5q63 88 103 88q26 0 31 -39q11 -99 89 -99q41 0 73 34
q16 13 45 65q24 44 40 44q12 0 27 -9q9 -10 21 -60q8 -53 33 -63q26 -7 36 -7q50 0 75 88q20 56 52 56q23 0 30 -25q16 -43 47 -68.5t68 -25.5v-140q-43 -4 -79 20.5t-60 70.5q-65 -98 -142 -98q-73 -4 -121 73q-72 -85 -150 -85q-45 0 -84 30q-19 12 -30 27.5t-18 34.5
q-45 -54 -81 -95t-63 -71q-37 -44 -75.5 -88.5t-74.5 -88.5q-86 -95 -157.5 -173t-133.5 -143q-166 -174 -313 -315t-280 -251q-169 -144 -281 -235.5t-167 -129.5q-121 -86 -238.5 -147t-236.5 -95q-132 -40 -259 -27q-108 12 -157 66z" />
    <glyph glyph-name="uniFEB3" unicode="&#x633;" horiz-adv-x="750" arabic-form="initial" 
d="M390 105q-200 -103 -397 -105v140h17q318 -3 561 250q76 90 113 90q28 0 29.5 -26t-13.5 -69q-63 -130 -310 -280z" />
    <glyph glyph-name="uniFEB4" unicode="&#x633;" horiz-adv-x="697" arabic-form="medial" 
d="M-7 140q28 0 62.5 6.5t63.5 41.5q26 54 49.5 50t24.5 -35q-19 -58 36 -71q30 0 44 19q18 16 44 49t46 37q9 2 19 -7t7 -35t9 -40.5t30 -15.5q59 0 105 73q13 43 37 40t24 -47q7 -36 34.5 -50.5t75.5 -14.5v-140q-117 1 -156 72q-18 -29 -48.5 -47t-64.5 -20.5t-62 9
t-44 40.5q-51 -52 -113 -52q-73 0 -95 41q-20 -22 -48.5 -32t-79.5 -11v140z" />
    <glyph glyph-name="afii57428" unicode="&#x634;" horiz-adv-x="798" arabic-form="isolated" 
d="M-2200 -1215q-20 21 -20 45q0 43 42 43q10 0 22 -7q21 -22 112 -22q46 0 85.5 3.5t80.5 11.5q264 50 662 357q273 211 659 589q103 104 207.5 210.5t210.5 221.5q49 53 96.5 106t96.5 107q54 63 97 117t78 96q19 24 43 24q14 0 34 -9q30 -15 59.5 -22.5t56.5 -7.5
q17 0 35.5 2.5t44.5 5.5q44 11 85 30t79 48q24 18 48 45t50 61q24 26 37 38t19 16q24 3 42 -9.5t18 -33.5q0 -9 -8.5 -30t-29.5 -50q-31 -49 -72.5 -88.5t-93.5 -75.5q-122 -78 -240 -78q-56 0 -112 20q-4 2 -14 2q-18 0 -50 -36l-87 -104q-37 -44 -75.5 -87t-75.5 -90
q-87 -95 -158.5 -174t-132.5 -144q-164 -173 -311.5 -313.5t-279.5 -253.5q-171 -144 -281.5 -234t-168.5 -130q-238 -172 -472 -242q-136 -38 -262 -25q-108 10 -156 67zM414 1465q5 34 19.5 59t39.5 47q24 16 51.5 26.5t57.5 10.5q114 0 181 -120q21 -34 21 -76
q0 -87 -111 -171q-29 -21 -59 -38.5t-61 -29.5q-35 -14 -60 -19.5t-39 -1.5q-22 1 -22 15q0 16 29 34.5t92 55.5q16 10 38 26t53 38q44 35 44 80q0 22 -10 42.5t-23.5 35.5t-31.5 24t-35 9q-95 -10 -95 -84q0 -43 25 -66q26 -28 26 -52q0 -45 -51 -45q-12 0 -19.5 3t-16.5 9
q-45 38 -45 144v22.5t2 21.5z" />
    <glyph glyph-name="uniFEB6" unicode="&#x634;" horiz-adv-x="887" arabic-form="final" 
d="M-2304 -1720q-20 22 -20 46q0 47 41 47q14 0 24 -12q16 -21 114 -21q43 0 83.5 4.5t80.5 10.5q270 55 660 357q139 108 302.5 254t357.5 335q106 104 209 211t209 219q48 55 97 108t97 106q20 21 64 74.5t111 141.5q64 88 106 88q24 0 30 -39q8 -99 87 -99q46 0 75 34
q8 7 19 23.5t26 41.5q23 44 41 44q11 0 24 -9q13 -10 22 -60q8 -53 35 -63q24 -7 36 -7q49 0 73 88q21 56 51 56q22 0 30 -25q17 -43 46.5 -68.5t66.5 -25.5v-140q-84 -5 -137 91q-64 -98 -139 -98q-77 -4 -120 73q-77 -85 -152 -85q-47 0 -84 30q-18 12 -30 27.5t-19 34.5
q-46 -54 -82 -95t-62 -71q-38 -44 -75 -88.5t-74 -88.5q-85 -95 -158 -173t-134 -143q-165 -174 -312 -315t-279 -251q-171 -144 -283 -235.5t-166 -129.5q-120 -86 -238.5 -147t-235.5 -95q-135 -40 -259 -27q-110 12 -159 66zM383 1029q12 70 63 111.5t116 41.5
q125 0 189 -130q12 -21 17.5 -41.5t5.5 -41.5q0 -144 -242 -247q-75 -30 -105 -23q-27 4 -27 26q0 20 35 38q93 41 102 44q10 8 32 25t58 46q39 36 39 87q0 21 -8.5 42.5t-22 37.5t-31.5 25.5t-36 6.5q-99 -7 -99 -86q0 -40 29 -73q12 -13 18 -26t6 -26q0 -49 -53 -49
q-22 0 -38 14q-50 42 -50 152q0 12 1 23t1 23z" />
    <glyph glyph-name="uniFEB7" unicode="&#x634;" horiz-adv-x="750" arabic-form="initial" 
d="M222 593q16 7 30 9.5t28 4.5q44 12 87 34t82 55q72 61 91 117q7 15 10 26.5t3 20.5q0 23 -25 23q-7 0 -16 -3.5t-22 -7.5q-56 -20 -79 -43t-21 -52q0 -7 14.5 -17.5t14.5 -22.5q-9 -45 -41 -45q-10 0 -23.5 8.5t-25 22.5t-19.5 33t-8 41q0 76 76 144q78 69 175 69
q15 0 28 -1t25 -5q78 -20 78 -95q0 -69 -61 -165q-25 -42 -52 -72t-51 -49q-68 -51 -128.5 -73.5t-117.5 -22.5q-23 0 -43.5 12t-20.5 31q0 11 12 23zM390 105q-200 -103 -397 -105v140h17q318 -3 561 250q76 90 113 90q28 0 29.5 -26t-13.5 -69q-63 -130 -310 -280z" />
    <glyph glyph-name="uniFEB8" unicode="&#x634;" horiz-adv-x="697" arabic-form="medial" 
d="M-7 140q28 0 62.5 6.5t63.5 41.5q26 54 49.5 50t24.5 -35q-19 -58 36 -71q30 0 44 19q18 16 44 49t46 37q9 2 19 -7t7 -35t9 -40.5t30 -15.5q59 0 105 73q13 43 37 40t24 -47q7 -36 34.5 -50.5t75.5 -14.5v-140q-117 1 -156 72q-18 -29 -48.5 -47t-64.5 -20.5t-62 9
t-44 40.5q-51 -52 -113 -52q-73 0 -95 41q-20 -22 -48.5 -32t-79.5 -11v140zM174 590q17 4 30 7.5t25 3.5q43 13 84 33.5t79 52.5q33 28 54 56t33 54q10 27 10 46q0 22 -21 22q-7 0 -16 -3l-24 -8q-103 -38 -96 -89q4 -7 15.5 -17.5t12.5 -22.5q3 -11 -9 -27.5t-27 -16.5
q-11 0 -24 9t-24 23.5t-18 32.5t-7 39q0 69 74 136q38 33 78.5 49.5t85.5 16.5q12 0 25 -0.5t25 -7.5q73 -18 73 -89q0 -69 -57 -158q-52 -81 -98 -113q-71 -50 -103 -64q-33 -15 -69.5 -21.5t-78.5 -6.5q-12 0 -27 11t-15 28q0 12 10 24z" />
    <glyph glyph-name="afii57429" unicode="&#x635;" horiz-adv-x="836" arabic-form="isolated" 
d="M-2175 -1230q-12 11 -15.5 21.5t-3.5 22.5q0 45 41 45q11 0 21 -10q17 -19 116 -19q43 0 83 3.5t81 10.5q268 51 660 358q137 104 300.5 251.5t358.5 337.5q210 205 417 430q50 55 98.5 107.5t97.5 105.5l137 154q60 71 110 71q47 0 79 -59q39 -63 32 -63q3 0 3 4
q9 37 173 299q167 273 199 290q18 12 37 -13q16 -20 21 -43q7 -23 9 -49.5t-1 -55.5q0 -69 -35 -166q-39 -123 -115 -225q-210 -290 -294 -290q-7 0 -13 2.5t-12 5.5q-6 4 -12 9q-1 0 -4 -6q-78 -155 -112 -155q-14 0 -14 19q0 13 3 24.5t9 28.5q4 8 16 28t29 52
q26 47 21 64q-2 23 -5.5 45t-8.5 45q-8 42 -29 42q-27 0 -105 -94q-38 -45 -77 -89.5t-77 -87.5q-82 -96 -154 -175.5t-133 -145.5q-165 -173 -312 -314t-279 -252q-171 -143 -283 -233t-166 -131q-238 -171 -475 -241q-135 -38 -260 -25q-111 12 -157 66zM579 633
q-31 -67 -46.5 -99.5t-15.5 -34.5q0 -1 2 -2q13 0 93 91q75 89 130 227q8 21 12 37.5t4 30.5q0 13 -7 13q-15 0 -49 -65q-53 -86 -83 -134.5t-40 -63.5z" />
    <glyph glyph-name="uniFEBA" unicode="&#x635;" horiz-adv-x="703" arabic-form="final" 
d="M-2350 -1627q-20 21 -20 45q0 46 41 46q15 0 22 -11q21 -20 116 -20q43 0 82.5 4t77.5 10q270 55 663 358q139 104 302 251t360 337q103 104 207.5 211.5t207.5 218.5q51 56 98.5 108t97.5 106q29 32 71.5 85.5t101.5 126.5q33 35 53 52.5t34 17.5q11 0 22 -7
q12 -12 23 -25.5t23 -27.5q15 -20 32.5 -31.5t34.5 -9.5q-3 100 99 240q88 121 150 161q81 54 132 54q59 0 59 -80v-18t-2 -20q-11 -78 -45 -149t-90 -137q-36 -42 -63 -65.5t-61 -42.5q15 -3 30.5 -6t40.5 -6.5t62.5 -6t97.5 -2.5v-140q-50 -3 -110 0t-114.5 14t-98 31.5
t-60.5 50.5q-26 1 -47.5 3.5t-41 9t-36.5 19t-37 35.5q-45 -52 -80 -92t-61 -71q-40 -46 -77.5 -89.5t-76.5 -88.5q-84 -95 -155.5 -173.5t-133.5 -144.5q-167 -174 -313.5 -314.5t-278.5 -252.5q-337 -284 -448 -363q-122 -86 -240 -146t-236 -95q-133 -40 -258 -28
q-109 14 -157 68zM395 213q21 3 92 71q22 22 43 46.5t37 49.5t26 51t10 52q0 16 -13 16q-15 0 -45 -22q-22 -16 -48 -47t-49 -66t-38 -71t-15 -65v-15z" />
    <glyph glyph-name="uniFEBB" unicode="&#x635;" horiz-adv-x="662" arabic-form="initial" 
d="M-9 140q65 -2 97.5 19t46.5 66q7 16 14 25.5t21 9.5q19 0 24 -27q5 -24 18 -47.5t31 -41.5t36 -29.5t30 -11.5h5q5 31 22.5 72.5t40.5 83t49 82t49 69.5q38 46 74 46q27 0 48 -19.5t35 -47.5t21 -60t3 -56q-2 -48 -25.5 -98t-59.5 -93.5t-81.5 -73t-96.5 -35.5
q-2 -6 -2 -14q0 -22 6 -58t19 -86q1 -7 1.5 -12t0.5 -12q0 -35 -21 -35q-9 0 -17 7.5t-22 20.5q-12 12 -22 42t-17 63t-11 62.5t-1 41.5q-18 3 -36.5 13.5t-37.5 24t-34 28t-24 25.5q-16 -24 -39.5 -41t-49.5 -26.5t-50 -14.5t-45 -2v140zM398 101q28 8 52 26t43 42.5
t33 53.5t18 58q0 4 1 14t1 19.5t-2.5 15.5t-8.5 6q-5 0 -16 -9.5t-23 -24t-21 -29t-12 -24.5q-18 -30 -34.5 -66t-30.5 -82z" />
    <glyph glyph-name="uniFEBC" unicode="&#x635;" horiz-adv-x="710" arabic-form="medial" 
d="M-8 140q54 0 105 18.5t72 45.5q24 36 49 36q12 0 21.5 -8t21.5 -22q15 -28 19 -55q10 -50 80 -50q25 0 19 10q-10 16 -16 34t-6 38q0 125 214 290q7 8 16 14.5t23 9.5q21 10 40 10q38 0 63.5 -27t18.5 -69q-5 -37 -18.5 -72.5t-33.5 -69.5q-7 -12 -20.5 -27.5t-28.5 -33
t-30 -34t-27 -26.5q22 -5 38 -8t32 -3.5t34 -0.5h44v-140q-53 0 -90.5 0.5t-69.5 4.5t-58.5 14.5t-53.5 28.5h-4q-12 -11 -33.5 -25t-46 -26t-50 -21t-46.5 -9q-63 0 -83 93q-7 38 -18 38q-13 0 -33 -36q-12 -21 -28.5 -34.5t-35 -20t-39 -7t-41.5 -0.5v140zM477 249
q-6 -14 -5 -39q3 -15 4.5 -22t9.5 -7h1q19 13 37.5 31.5t35 39.5t28.5 41.5t15 38.5q1 6 1 15q0 16 -16 16q-17 0 -38 -15q-10 -7 -17.5 -15t-14.5 -19q-16 -14 -25 -30.5t-16 -34.5z" />
    <glyph glyph-name="afii57430" unicode="&#x636;" horiz-adv-x="836" arabic-form="isolated" 
d="M-2175 -1237q-12 10 -15.5 22t-3.5 23q0 43 41 43q9 0 21 -7q18 -23 116 -23q43 0 83 5t81 12q266 48 660 355q137 106 300.5 252.5t358.5 338.5q104 103 208.5 210t208.5 218q50 55 98.5 108.5t97.5 107.5l137 153q60 70 110 70q47 0 79 -60q36 -58 32 -58h3q5 16 48 92
t125 206q166 278 199 288q18 16 37 -10q9 -10 13 -21t8 -21q7 -26 9 -51.5t-1 -54.5q0 -68 -35 -166q-39 -122 -115 -224q-210 -290 -294 -290q-7 0 -13 2t-12 6l-12 8l-4 -6q-78 -157 -112 -157q-14 0 -14 24q0 11 3 23.5t9 28.5q4 8 16 26.5t29 51.5q26 47 21 65
q-7 46 -14 88q-8 45 -29 45q-14 0 -40 -25.5t-65 -71.5q-38 -44 -77 -87t-77 -90q-82 -96 -154 -174.5t-133 -143.5q-165 -173 -312 -314.5t-279 -251.5q-171 -144 -283 -234t-166 -131q-238 -172 -475 -241q-135 -39 -260 -25q-111 10 -157 66zM579 623q-62 -130 -62 -131
t2 -3q13 0 93 92q75 88 130 226q8 22 12 38t4 33q0 10 -7 10q-15 0 -49 -63q-53 -86 -83 -136.5t-40 -65.5zM614 1538q25 31 48 31q22 0 36 -24.5t8 -45.5q-9 -88 -70 -88q-54 0 -54 59q0 32 32 68z" />
    <glyph glyph-name="uniFEBE" unicode="&#x636;" horiz-adv-x="830" arabic-form="final" 
d="M-2222 -1627q-20 24 -20 45q0 46 41 46q12 0 23 -11q10 -11 38 -15.5t76 -4.5q44 0 83.5 4t78.5 10q135 28 300 116t362 242q138 104 302 251t359 337q208 206 418 430q49 56 97 108t96 106q29 32 72.5 85.5t102.5 126.5q34 35 53.5 52.5t34.5 17.5q9 0 20 -7
q12 -12 23 -25.5t22 -27.5q18 -20 35 -31.5t34 -9.5q-2 102 99 240q87 121 148 161q80 54 134 54q60 0 60 -80q0 -9 -1 -18t-2 -20q-12 -78 -45.5 -149t-88.5 -137q-37 -42 -63.5 -65.5t-61.5 -42.5q16 -3 31 -6t39.5 -6.5t61.5 -6t98 -2.5v-140q-49 -1 -109 1t-115 13
t-97.5 31.5t-59.5 50.5q-27 1 -48.5 3.5t-40.5 9t-37 19t-36 35.5q-46 -52 -81.5 -92t-60.5 -71q-39 -46 -77 -89.5t-76 -88.5q-84 -95 -156 -173.5t-135 -144.5q-165 -174 -312 -314.5t-279 -252.5q-335 -284 -450 -363q-119 -86 -238 -146t-235 -95q-133 -40 -259 -28
q-111 14 -158 68zM523 213q21 3 91 71q22 22 43.5 46.5t37.5 49.5t27 51t11 52q0 16 -16 16q-14 0 -44 -22q-22 -16 -49 -47t-49.5 -66t-37.5 -71t-15 -65q0 -7 1 -15zM589 1070q26 31 48 31q21 0 35 -24q9 -21 7 -28q-13 -65 -46 -92q-23 -19 -41 -19q-39 0 -39 55
q0 20 7.5 40t28.5 37z" />
    <glyph glyph-name="uniFEBF" unicode="&#x636;" horiz-adv-x="662" arabic-form="initial" 
d="M-9 140q65 -2 97.5 19t46.5 66q7 16 14 25.5t21 9.5q19 0 24 -27q5 -24 18 -47.5t31 -41.5t36 -29.5t30 -11.5h5q5 31 22.5 72.5t40.5 83t49 82t49 69.5q38 46 74 46q27 0 48 -19.5t35 -47.5t21 -60t3 -56q-2 -48 -25.5 -98t-59.5 -93.5t-81.5 -73t-96.5 -35.5
q-2 -6 -2 -14q0 -22 6 -58t19 -86q1 -7 1.5 -12t0.5 -12q0 -35 -21 -35q-9 0 -17 7.5t-22 20.5q-12 12 -22 42t-17 63t-11 62.5t-1 41.5q-18 3 -36.5 13.5t-37.5 24t-34 28t-24 25.5q-16 -24 -39.5 -41t-49.5 -26t-50 -14t-45 -3v140zM526 961q23 28 45 28q24 0 38.5 -25
t9.5 -46q-13 -87 -70 -87q-55 0 -55 59q0 35 32 71zM398 101q28 8 52 26t43 42.5t33 53.5t18 58q0 4 1 14t1 19.5t-2.5 15.5t-8.5 6q-5 0 -16 -9.5t-23 -24t-21 -29t-12 -24.5q-18 -30 -34.5 -66t-30.5 -82z" />
    <glyph glyph-name="uniFEC0" unicode="&#x636;" horiz-adv-x="707" arabic-form="medial" 
d="M-11 140q27 0 53.5 5.5t50.5 14t42.5 20t26.5 24.5q28 36 53 36q22 0 40 -30q8 -13 13.5 -27t7.5 -28q6 -50 78 -50q28 0 19 10q-19 31 -19 72q0 125 210 290q9 8 19 14.5t23 9.5q17 10 39 10q38 0 62 -27t20 -69q-8 -73 -51 -142q-7 -12 -20.5 -27.5t-28.5 -33
t-29.5 -34t-26.5 -26.5q22 -5 37 -8t31 -3.5t33.5 -0.5h42.5v-140q-50 0 -88 0.5t-69 4.5t-57.5 14.5t-53.5 28.5h-5q-13 -11 -35 -25t-46 -26t-49 -21t-45 -9q-64 0 -86 93q-4 38 -19 38q-12 0 -29 -36q-12 -21 -29 -34.5t-37 -18.5t-78 -9v140zM561 1013q26 27 46 27
t40 -24q11 -23 8 -47q-13 -86 -70 -86q-56 0 -56 60q0 18 9 35t23 35zM472 249q-3 -7 -5 -16.5t1 -22.5q3 -29 11 -29h4q20 13 38.5 31.5t34 39.5t27 41.5t16.5 38.5q1 6 1 15q0 16 -17 16q-19 0 -37 -15q-9 -7 -17.5 -15t-15.5 -19q-29 -29 -41 -65z" />
    <glyph glyph-name="afii57431" unicode="&#x637;" horiz-adv-x="665" arabic-form="isolated" 
d="M0 305q0 27 17 27q34 0 53 -37q6 -11 24 -18.5t39.5 -13.5t43 -8t32.5 0q79 167 304 393q37 38 67 56t54 18q51 0 68 -85q6 -25 8.5 -49t-2.5 -45q-19 -208 -138 -325q-42 -42 -94.5 -65.5t-114.5 -35.5q-50 -12 -77.5 -13t-30.5 1q0 -15 -2 -39.5t-5 -58.5
q-23 -14 -37 -14q-28 0 -31 55q-1 62 -5 67q-19 2 -48.5 15.5t-57 37t-47 58t-20.5 79.5zM247 498q38 54 61 100.5t34 88.5q15 50 15 152q0 99 18 177q8 40 40 40q20 0 34 -18q12 -16 17 -35.5t5 -45.5q4 -301 -149 -513q-16 -24 -58 -24q-37 0 -37 30q0 15 20 48zM310 264
q68 0 151 68q43 35 69.5 70t39.5 73l7 28t3 24q0 21 -16 21q-35 0 -121 -90q-8 -9 -27.5 -31.5t-48.5 -59.5q-34 -46 -52 -71t-22 -32h17z" />
    <glyph glyph-name="uniFEC2" unicode="&#x637;" horiz-adv-x="625" arabic-form="final" 
d="M66 210q9 -21 31.5 -35t50.5 -21t57 -5t48 14q-4 14 -4 41q0 127 72 233q28 40 47 65t33 35q124 111 216 111q81 0 81 -93q0 -18 -4 -38t-10 -46q-16 -54 -49 -105.5t-71.5 -93t-75.5 -72.5t-62 -47q39 -9 95 -11t112 -2v-140h-21.5h-50.5t-66.5 1t-72.5 5.5t-67 14
t-49 23.5q-83 -43 -149 -43q-130 0 -130 128q0 81 39 81zM229 480q80 81 94 295q-2 32 -2 62t-1 59q1 100 25 108q8 0 14.5 2t11.5 2q57 0 57 -141q0 -45 -5.5 -92.5t-13.5 -97.5q-26 -116 -66 -172q-58 -115 -107 -115q-33 0 -33 38q0 16 7 28t19 24zM351 225q0 -4 5 -4
t22 15.5t39 39t46 52.5t44 57.5t33 52t13 33.5q0 27 -28 27q-16 0 -37 -12.5t-41.5 -30.5t-37 -38t-26.5 -34q-24 -41 -31.5 -80t-0.5 -78z" />
    <glyph glyph-name="uniFEC3" unicode="&#x637;" horiz-adv-x="596" arabic-form="initial" 
d="M-6 140q27 0 56.5 0.5t41.5 10.5q38 83 115.5 178.5t194.5 213.5q76 78 122 78q16 0 37.5 -25t27.5 -84q2 -37 -5 -79.5t-19 -90.5q-28 -101 -77.5 -166t-108.5 -102.5t-122.5 -54t-118.5 -17.5q-2 -15 -2 -28.5v-24.5q0 -52 -28 -52q-17 0 -31 31t-14 73
q-5 0 -14.5 -0.5t-20 -0.5h-20.5h-14v140zM133 389q38 43 64.5 103t38.5 138q10 50 -12 223q-5 68 47 68q49 0 56 -60q12 -72 12 -133q0 -116 -37.5 -218t-113.5 -191q-17 -20 -37 -20q-36 0 -36 43q0 26 18 47zM174 145q2 -1 4 -0.5t5 0.5h5q36 2 74.5 15t72 29.5
t61.5 36.5t43 40q39 52 39 139q-4 34 -18 34q-20 0 -73 -46q-15 -12 -47 -46t-65 -73t-62 -75t-39 -54z" />
    <glyph glyph-name="uniFEC4" unicode="&#x637;" horiz-adv-x="570" arabic-form="medial" 
d="M-12 0q4 77 0 140q73 0 123 8t75 26q-2 8 -2 16v20q0 174 190 368q32 34 75 53t82 16t65.5 -31.5t26.5 -93.5v-17t-1 -16q-3 -33 -21.5 -78.5t-49.5 -92.5t-74 -89t-94 -71q7 -3 17 -6t31 -5t57 -4.5t94 -2.5v-140q-76 -4 -133 5t-97 21t-63.5 24t-34.5 19
q-30 -16 -64.5 -29.5t-70.5 -22.5t-69.5 -14.5t-61.5 -2.5zM144 449q32 51 54 86t29 53q13 27 18.5 59t5.5 69q0 27 -2.5 69.5t-9.5 101.5q-3 3 -3 14q0 66 54 66t64 -95q5 -50 5 -97q0 -202 -130 -356q-32 -41 -78 -41q-29 0 -29 25q0 17 22 46zM284 227q12 1 37.5 19
t58.5 51q41 38 66.5 75.5t34.5 66.5q5 16 5 29q0 33 -24 33q-20 0 -43.5 -19.5t-47.5 -53.5q-46 -68 -68 -117.5t-19 -83.5z" />
    <glyph glyph-name="afii57432" unicode="&#x638;" horiz-adv-x="665" arabic-form="isolated" 
d="M0 305q0 27 17 27q34 0 53 -37q6 -11 24 -18.5t39.5 -13.5t43 -8t32.5 0q79 167 304 393q37 38 67 56t54 18q51 0 68 -85q6 -25 8.5 -49t-2.5 -45q-19 -208 -138 -325q-42 -42 -94.5 -65.5t-114.5 -35.5q-50 -12 -77.5 -13t-30.5 1q0 -15 -2 -39.5t-5 -58.5
q-23 -14 -37 -14q-28 0 -31 55q-1 62 -5 67q-19 2 -48.5 15.5t-57 37t-47 58t-20.5 79.5zM247 498q38 54 61 100.5t34 88.5q15 50 15 152q0 99 18 177q8 40 40 40q20 0 34 -18q12 -16 17 -35.5t5 -45.5q4 -301 -149 -513q-16 -24 -58 -24q-37 0 -37 30q0 15 20 48zM310 264
q68 0 151 68q43 35 69.5 70t39.5 73l7 28t3 24q0 21 -16 21q-35 0 -121 -90q-8 -9 -27.5 -31.5t-48.5 -59.5q-34 -46 -52 -71t-22 -32h17zM627 1111q25 28 45 28q22 0 36 -27q13 -23 10 -42q-16 -87 -70 -87t-54 57q0 19 8 35.5t25 35.5z" />
    <glyph glyph-name="uniFEC6" unicode="&#x638;" horiz-adv-x="625" arabic-form="final" 
d="M66 210q9 -21 31.5 -35t50.5 -21t57 -5t48 14q-4 14 -4 41q0 127 72 233q28 40 47 65t33 35q124 111 216 111q81 0 81 -93q0 -18 -4 -38t-10 -46q-16 -54 -49 -105.5t-71.5 -93t-75.5 -72.5t-62 -47q39 -9 95 -11t112 -2v-140h-21.5h-50.5t-66.5 1t-72.5 5.5t-67 14
t-49 23.5q-83 -43 -149 -43q-130 0 -130 128q0 81 39 81zM229 480q80 81 94 295q-2 32 -2 62t-1 59q1 100 25 108q8 0 14.5 2t11.5 2q57 0 57 -141q0 -45 -5.5 -92.5t-13.5 -97.5q-26 -116 -66 -172q-58 -115 -107 -115q-33 0 -33 38q0 16 7 28t19 24zM351 225q0 -4 5 -4
t22 15.5t39 39t46 52.5t44 57.5t33 52t13 33.5q0 27 -28 27q-16 0 -37 -12.5t-41.5 -30.5t-37 -38t-26.5 -34q-24 -41 -31.5 -80t-0.5 -78zM603 957q27 30 44 30q12 0 21 -7t15.5 -18t9 -24t-1.5 -23q-10 -84 -68 -84q-53 0 -53 57q0 36 33 69z" />
    <glyph glyph-name="uniFEC7" unicode="&#x638;" horiz-adv-x="612" arabic-form="initial" 
d="M-7 140q29 0 59 0.5t42 10.5q37 83 114.5 178.5t193.5 213.5q78 78 121 78q17 0 38.5 -25t27.5 -84q3 -37 -4.5 -79.5t-21.5 -90.5q-25 -101 -75 -166t-110 -102.5t-123 -54t-118 -17.5q-1 -15 -1 -28.5v-24.5q0 -52 -28 -52q-17 0 -31.5 31t-12.5 73q-5 0 -15.5 -0.5
t-21 -0.5h-20h-14.5v140zM134 389q39 43 64.5 103t37.5 138q6 26 3 81.5t-13 141.5q-5 68 43 68q49 0 57 -60q6 -36 9 -69t3 -64q0 -116 -38 -218t-113 -191q-15 -20 -35 -20q-38 0 -38 43q0 26 20 47zM174 145q4 -1 8.5 -0.5t5.5 0.5q36 2 74 15t72 29.5t62.5 36.5t42.5 40
q42 54 39 139q-2 34 -17 34q-21 0 -73 -46q-16 -12 -48 -46t-65 -73t-61.5 -75t-39.5 -54zM593 1008q26 26 48 26q21 0 35 -24t9 -45q-11 -86 -71 -86q-51 0 -51 59q0 17 7.5 34t22.5 36z" />
    <glyph glyph-name="uniFEC8" unicode="&#x638;" horiz-adv-x="570" arabic-form="medial" 
d="M-12 0q4 77 0 140q73 0 123 8t75 26q-2 8 -2 16v20q0 174 190 368q32 34 75 53t82 16t65.5 -31.5t26.5 -93.5v-17t-1 -16q-3 -33 -21.5 -78.5t-49.5 -92.5t-74 -89t-94 -71q7 -3 17 -6t31 -5t57 -4.5t94 -2.5v-140q-76 -4 -133 5t-97 21t-63.5 24t-34.5 19
q-30 -16 -64.5 -29.5t-70.5 -22.5t-69.5 -14.5t-61.5 -2.5zM144 449q32 51 54 86t29 53q13 27 18.5 59t5.5 69q0 27 -2.5 69.5t-9.5 101.5q-3 3 -3 14q0 66 54 66t64 -95q5 -50 5 -97q0 -202 -130 -356q-32 -41 -78 -41q-29 0 -29 25q0 17 22 46zM284 227q12 1 37.5 19
t58.5 51q41 38 66.5 75.5t34.5 66.5q5 16 5 29q0 33 -24 33q-20 0 -43.5 -19.5t-47.5 -53.5q-46 -68 -68 -117.5t-19 -83.5zM532 1040q9 15 20.5 21.5t22.5 6.5t20.5 -7.5t16 -17.5t9 -22t1.5 -23q-14 -84 -69 -84q-54 0 -54 55q0 33 33 71z" />
    <glyph glyph-name="afii57433" unicode="&#x639;" horiz-adv-x="527" arabic-form="isolated" 
d="M-138 -169q9 32 89 188q95 175 164 298t112 198l26 39q23 30 23 55q0 44 -63 69q-112 43 -112 158q0 65 46 119q48 61 145 90q38 13 71 18t61 5q125 0 111 -99q-1 -12 -4.5 -24t-11.5 -24q-20 -31 -34 -31q-22 0 -30 40q-5 25 -53 25q-60 0 -144 -46q-50 -33 -50 -66
q0 -72 131 -115q70 -27 70 -77q0 -32 -40 -110l-245 -431q-59 -107 -98 -187t-59 -137q-45 -125 -45 -228q0 -174 137 -257q110 -69 304 -69q246 0 422 79q80 38 114 38q17 0 17 -12q0 -20 -24.5 -47.5t-53.5 -43.5q-31 -15 -63.5 -29.5t-66.5 -30.5q-146 -55 -320 -55
q-71 0 -139 8q-447 54 -447 416q0 42 6.5 88.5t21.5 94.5q7 25 15 47.5t17 45.5z" />
    <glyph glyph-name="uniFECA" unicode="&#x639;" horiz-adv-x="587" arabic-form="final" 
d="M-20 -625q-19 -48 -28.5 -92t-9.5 -86q0 -92 30 -159t80.5 -112t117.5 -69t140.5 -33t148.5 -2t142 26q47 11 92 24.5t91 26.5q33 9 58.5 16t43.5 13q6 1 12 2.5t11 1.5q35 0 35 -22q0 -29 -104 -77q-137 -69 -267.5 -101t-240.5 -32q-144 0 -252.5 52.5t-173 143
t-79.5 214.5t30 271q61 208 291 558q100 151 100 207q0 12 -8 12q-3 0 -12.5 -4.5t-21.5 -9t-24 -8.5t-20 -4q-22 0 -40 21t-18 42q0 17 10 29.5t27 22.5q70 42 115.5 63.5t67.5 28.5q24 8 41 11t28 3q54 0 54 -51q0 -12 -3 -25.5t-9 -30.5q-7 -22 -7 -40q0 -21 14.5 -34
t38.5 -20t54 -9.5t62 -2.5q3 -45 3 -81t-3 -59q-93 -4 -149.5 14.5t-80.5 54.5q-25 -26 -66 -97t-102 -186l-106 -182q-36 -65 -64 -122t-49 -107z" />
    <glyph glyph-name="uniFECB" unicode="&#x639;" horiz-adv-x="628" arabic-form="initial" 
d="M-6 140q29 0 53.5 2.5t46.5 9.5t40.5 21.5t37.5 38.5q-67 64 -67 124q0 110 192 200q19 7 34 11t31 4q58 0 58 -42q0 -11 -7 -23q-9 -23 -75 -64q-76 -50 -76 -72q0 -24 71 -30q20 -1 121 55q53 28 83.5 43.5t35.5 18.5q17 3 30 -18.5t13 -53.5q0 -45 -30 -75
q-20 -23 -53 -41q-7 -2 -24 -11.5t-42 -21.5q-19 -7 -36 -12.5t-36 -12.5q-31 -14 -54.5 -26t-41.5 -26q-43 -42 -76 -67t-56 -39q-36 -16 -79 -26.5t-94 -6.5v140z" />
    <glyph glyph-name="uniFECC" unicode="&#x639;" horiz-adv-x="403" arabic-form="medial" 
d="M-9 140q88 0 106 25.5t-47 68.5q-12 7 -15.5 17t-4.5 18q-4 52 41 80q16 11 49 15t70.5 4t70.5 -3t48 -9q38 -14 38 -54v-12t-3 -13q-1 -11 -8 -27t-17 -31t-20 -28.5t-18 -21.5q12 -11 45.5 -20.5t88.5 -8.5v-140q-35 0 -60 2.5t-46 9t-38.5 18t-37.5 29.5
q-12 9 -25 15.5t-20 -0.5q-8 -8 -26.5 -20.5t-44.5 -24.5t-58 -20.5t-68 -8.5v140z" />
    <glyph glyph-name="afii57434" unicode="&#x63a;" horiz-adv-x="527" arabic-form="isolated" 
d="M-138 -165q7 21 29 66.5t60 119.5q95 173 164 296.5t112 197.5l26 39q23 34 23 58q0 41 -63 68q-56 21 -84 61t-28 95q0 33 11 63.5t35 57.5q48 60 145 89q77 24 128 24q129 0 115 -101q-1 -10 -4.5 -21.5t-11.5 -23.5q-20 -30 -35 -30q-21 0 -29 36q-5 25 -53 25
q-60 0 -144 -46q-50 -33 -50 -66q0 -70 131 -115q70 -23 70 -77q0 -31 -40 -108l-245 -433q-59 -107 -98 -186t-59 -137q-45 -128 -45 -229q0 -173 137 -257q110 -69 304 -69q123 0 229.5 21t192.5 63q83 36 114 36q17 0 17 -15q0 -9 -6.5 -20.5t-17.5 -24t-25.5 -24.5
t-28.5 -19q-31 -16 -63.5 -31t-66.5 -31q-73 -28 -153 -41.5t-167 -13.5q-35 0 -70.5 2t-68.5 5q-448 54 -448 416q0 50 14.5 119.5t46.5 160.5zM339 1433q0 16 6.5 33.5t15.5 32t20.5 24.5t23.5 13q4 1 14 1q44 0 44 -47q0 -11 -3 -23t-11 -25q-23 -57 -64 -57
q-21 0 -35.5 14t-10.5 34z" />
    <glyph glyph-name="uniFECE" unicode="&#x63a;" horiz-adv-x="676" arabic-form="final" 
d="M70 -625q-37 -98 -37 -178q0 -92 30.5 -159t81 -112t117 -69t139 -33t147.5 -2t143 26q47 11 92.5 24.5t91.5 26.5q35 9 59.5 16t42.5 13q6 1 12 2.5t10 1.5q34 0 34 -22q0 -26 -102 -77q-136 -69 -266.5 -101t-243.5 -32q-142 0 -251 52.5t-173.5 143t-79 214.5
t29.5 271q64 211 292 558q50 76 75.5 127t25.5 80q0 12 -9 12q-3 0 -12 -4.5t-21 -9t-24 -8.5t-21 -4q-21 0 -39 21t-18 42q0 32 36 52q68 42 114.5 63.5t67.5 28.5q23 8 40.5 11t29.5 3q54 0 54 -51q0 -12 -2.5 -25.5t-8.5 -30.5q-8 -21 -8 -40q0 -21 14 -34t37.5 -20
t54 -9.5t62.5 -2.5q7 -93 0 -140q-93 -4 -150 14.5t-81 54.5q-45 -54 -167 -283l-105 -182q-36 -65 -65 -122t-49 -107zM391 801q27 28 46 28q25 0 38 -26q12 -24 9 -45q-13 -85 -70 -85q-53 0 -53 59q0 18 8 34t22 35z" />
    <glyph glyph-name="uniFECF" unicode="&#x63a;" horiz-adv-x="614" arabic-form="initial" 
d="M-11 140q29 0 53 2.5t45 9.5t40 21.5t38 38.5q-67 64 -67 124q0 110 191 200q39 15 65 15q60 0 60 -42q0 -12 -9 -23q-6 -22 -74 -64q-77 -50 -77 -72q0 -23 73 -30q21 -2 119 55q54 28 84.5 43.5t34.5 18.5q18 3 30.5 -18.5t12.5 -53.5q0 -46 -29 -75q-11 -12 -24 -21.5
t-30 -19.5q-7 -2 -24 -11.5t-41 -21.5q-19 -7 -35.5 -12.5t-34.5 -12.5q-65 -26 -95 -52q-46 -42 -79 -67t-57 -39q-33 -16 -77.5 -26.5t-92.5 -6.5v140zM338 1013q24 27 48 27q22 0 36 -24q7 -12 9 -22t2 -21q-15 -86 -71 -86t-56 56q0 18 7.5 35t24.5 35z" />
    <glyph glyph-name="uniFED0" unicode="&#x63a;" horiz-adv-x="401" arabic-form="medial" 
d="M-11 140q90 0 107.5 25.5t-48.5 68.5q-9 7 -14 17t-5 18q-4 52 41 80q17 11 50.5 15t70 4t69.5 -3t49 -9q37 -14 37 -54v-12t-3 -13q-1 -11 -8 -27t-16.5 -31t-20 -28.5t-18.5 -21.5q12 -11 45.5 -20.5t87.5 -8.5v-140q-35 0 -60 2.5t-45.5 9t-38.5 18t-38 29.5
q-12 9 -24 15.5t-20 -0.5q-8 -8 -26.5 -20.5t-44.5 -24.5t-58.5 -20.5t-68.5 -8.5v140zM162 767q23 27 47 27q12 0 21.5 -7t15.5 -18t8.5 -23t0.5 -23q-11 -86 -70 -86q-55 0 -55 59q0 17 8.5 35.5t23.5 35.5z" />
    <glyph glyph-name="afii57441" unicode="&#x641;" horiz-adv-x="1672" arabic-form="isolated" 
d="M21 498q8 67 31 93q12 14 22 14q28 0 27 -90q-6 -93 33 -177q48 -93 129 -117q91 -26 202 -26q416 0 956 353q70 45 93 75q20 28 -3 28q-12 0 -31 -7.5t-32 -7.5q-28 0 -48.5 22.5t-20.5 57.5q0 61 60 124q54 55 103 55q24 0 44.5 -11.5t41.5 -32.5q28 -38 32 -71
q0 -13 2 -24.5t2 -23.5q0 -105 -56 -169l-37 -37t-35 -34q-54 -43 -125 -87.5t-164 -93.5q-165 -87 -331 -142.5t-331 -84.5q-37 -3 -71.5 -5t-66.5 -2q-113 0 -197.5 30.5t-141.5 95.5q-48 50 -70 109.5t-22 133.5q0 25 5 52zM1398 1292q17 13 33.5 21t26.5 8q44 0 44 -58
q0 -49 -34 -70q-22 -27 -47 -27q-51 0 -51 60q0 19 7 34t21 32z" />
    <glyph glyph-name="uniFED2" unicode="&#x641;" horiz-adv-x="2175" arabic-form="final" 
d="M97 356q54 84 74 97q12 10 28 10q25 0 25 -29q0 -33 -39 -92q-88 -141 -88 -231q0 -72 55 -115q13 -8 38.5 -21.5t64.5 -29.5q113 -51 371 -51q180 0 365.5 32t382.5 97q122 42 243.5 96t236.5 120q-5 15 -11.5 46.5t-6.5 56.5q0 169 104 236q45 22 80 21.5t59 -18.5
t37.5 -50.5t13.5 -73.5q0 -37 -10.5 -72t-27.5 -65t-37.5 -55.5t-42.5 -43.5q22 -30 45.5 -46.5t46.5 -25t43.5 -9t37.5 -0.5v-140q-198 -5 -281 145q-27 -34 -191 -106q-99 -44 -200.5 -82.5t-209.5 -69.5q-136 -38 -259.5 -63.5t-239.5 -32.5q-51 -4 -97.5 -5.5
t-89.5 -1.5q-617 0 -617 305q0 122 97 267zM1927 1010q20 29 50 29q47 0 47 -42q0 -13 -7 -28q-25 -91 -72 -91q-10 0 -17 5q-31 12 -31 47q0 32 30 80zM1944 404q-1 -7 -0.5 -22t2 -29.5t5.5 -38.5q0 -8 26 22q26 27 35 67v12q0 34 -26 34q-31 0 -42 -45z" />
    <glyph glyph-name="uniFED3" unicode="&#x641;" horiz-adv-x="296" arabic-form="initial" 
d="M-11 140q21 1 53 3t62.5 7.5t52 18t21.5 35.5q0 8 -5 14t-14 3q-13 -3 -29 -1.5t-33 4.5t-30 8t-17 10q-23 21 -23 63q0 58 41 136q34 70 118 70q86 0 98 -83q7 -30 9.5 -57.5t2.5 -53.5q0 -142 -74 -233q-83 -89 -233 -84v140zM171 865q29 35 59 35q20 0 29 -13
q14 -12 14 -34q0 -61 -59 -103q-6 -1 -10 -2.5t-11 -1.5q-49 0 -49 48q0 29 27 71zM157 375q-15 -19 -15 -33q0 -29 51 -22q5 21 3.5 34t-3.5 23q-5 7 -15 6q-9 0 -13.5 -2.5t-7.5 -5.5z" />
    <glyph glyph-name="uniFED4" unicode="&#x641;" horiz-adv-x="424" arabic-form="medial" 
d="M-10 140q37 0 62.5 2.5t41.5 5.5t24 5.5t10 4.5q-15 19 -22 36.5t-11 47.5q-2 34 6.5 65t24.5 58q8 13 18.5 25.5t25.5 26.5q40 34 84 34q25 0 47 -13t40 -35t29 -49t11 -52q-3 -49 -16.5 -90.5t-35.5 -58.5q7 -2 20 -5t29 -5t31.5 -2.5t26.5 -0.5v-140q-24 0 -36.5 0.5
t-18.5 0.5h-9q-90 8 -148 47q-39 -24 -92.5 -36t-141.5 -12v140zM191 921q24 34 55 34q20 0 33 -12.5t13 -33.5q0 -57 -60 -103q-5 -3 -18 -3q-54 0 -54 50q0 32 31 68zM203 284q-18 -43 25 -89q17 22 27.5 40t10.5 38q2 32 -15 40q-26 16 -48 -29z" />
    <glyph glyph-name="afii57442" unicode="&#x642;" horiz-adv-x="1111" arabic-form="isolated" 
d="M41 505q82 104 168.5 181t180.5 123q51 27 79 27q23 0 23 -19q0 -16 -21 -31q-7 -7 -14 -14.5t-14 -14.5q-38 -32 -75 -62t-75 -62q-63 -55 -103.5 -98t-60.5 -78q-20 -40 -30 -76t-10 -69q0 -99 92 -149q80 -48 202 -48q93 0 166 30q57 20 110.5 51t101.5 73
q126 108 182 253q-148 7 -148 129q0 63 56 189q15 29 36.5 44.5t50.5 15.5q46 0 84.5 -36t45.5 -90q2 -29 4 -53.5t2 -42.5q0 -169 -95 -325q-20 -34 -49.5 -70t-70.5 -73q-48 -48 -96 -80.5t-92 -52.5q-90 -39 -170.5 -58t-161.5 -19q-186 0 -277 103q-77 82 -77 211
q0 121 56 191zM636 1164q-12 12 -12 41q0 44 39 62q150 77 422 77q55 0 81 -4q60 -12 60 -41q0 -25 -89 -25q-88 0 -280 -48q-3 -1 -221 -62zM924 666q0 -18 49 -18q10 0 2 39q0 22 -4.5 34.5t-11.5 13.5q-6 2 -13 -5t-11.5 -17.5t-7.5 -23t-3 -23.5z" />
    <glyph glyph-name="uniFED6" unicode="&#x642;" horiz-adv-x="953" arabic-form="final" 
d="M-177 -313q-14 40 -14 79q0 98 89 216.5t263 262.5q116 91 151 91q16 0 16 -17q0 -50 -57 -91q-64 -55 -115 -101.5t-87 -83.5q-78 -62 -115 -126t-37 -128q0 -81 65 -132q76 -53 193 -53q29 0 57.5 2.5t58.5 9.5q168 31 290 132q34 25 63 58t54.5 67t44 67t29.5 61
q0 1 -9.5 1.5t-25.5 8.5q-42 13 -67 40q-36 36 -36 100q0 48 23 109q24 61 57 92t81 31q52 0 87 -47q13 -18 20.5 -45.5t7.5 -66.5q0 -21 -3 -46t-3 -27q0 -6 5 -7q15 -3 21 -3.5t8.5 -0.5h8h18.5v-140h-74q-117 -331 -435 -460q-74 -33 -143.5 -48t-137.5 -15
q-135 0 -232 64q-47 29 -76 65t-44 81zM349 637q-10 16 -10 41q0 44 40 61q149 82 428 82q25 0 43 -2t30 -4q61 -14 61 -40q0 -24 -89 -25q-45 -1 -116 -14t-166 -37q-55 -14 -110 -30t-111 -32zM738 155q4 -3 11.5 -6.5t22.5 -4.5q13 -4 21.5 -2t14.5 4q0 46 -3.5 71
t-21.5 25q-17 0 -40 -39q-18 -33 -5 -48z" />
    <glyph glyph-name="uniFED7" unicode="&#x642;" horiz-adv-x="302" arabic-form="initial" 
d="M-12 140q21 1 53 3t62.5 7.5t51 18t20.5 35.5q0 8 -4.5 14t-13.5 3q-12 -3 -29.5 -1.5t-33.5 4.5t-29.5 8t-16.5 10q-22 19 -22 63q0 56 41 136q36 70 117 70q89 0 99 -83q6 -30 9 -57.5t3 -53.5q0 -142 -75 -233q-81 -89 -232 -84v140zM51 803q95 58 250 58
q32 0 58.5 -1.5t42.5 -8.5q46 -12 46 -34q0 -25 -67 -25q-81 -6 -155.5 -23t-141.5 -47q-8 -5 -14.5 -6t-13.5 -1q-42 0 -42 35q0 30 37 53zM156 375q-15 -19 -15 -33q0 -28 51 -22q4 21 3 34t-6 23q0 8 -14 6q-10 0 -19 -8z" />
    <glyph glyph-name="uniFED8" unicode="&#x642;" horiz-adv-x="431" arabic-form="medial" 
d="M-7 140q76 0 105 7.5t32 10.5q-15 19 -21.5 36.5t-8.5 47.5q-3 34 5 65t24 58q7 13 17.5 25.5t27.5 26.5q40 34 84 34q23 0 45 -13t40 -35t28.5 -49t10.5 -52q-1 -49 -15 -90.5t-36 -58.5q8 -2 21.5 -5t29 -5t31.5 -2.5t25 -0.5l1 -140q-22 0 -35.5 0.5t-19 0.5h-8.5
q-47 4 -83 16t-66 31q-40 -24 -92 -36t-142 -12v140zM78 825q94 62 243 62q32 0 58 -2.5t44 -9.5q45 -16 45 -32q0 -25 -67 -30q-78 -4 -150.5 -21t-142.5 -48q-14 -7 -27 -7q-44 0 -44 34q0 28 41 54zM208 284q-17 -47 24 -89q18 22 28 40t10 38q3 30 -17 40
q-25 16 -45 -29z" />
    <glyph glyph-name="afii57443" unicode="&#x643;" horiz-adv-x="1477" arabic-form="isolated" 
d="M656 702q-13 -3 -27 8.5t-14 28.5q0 53 50 74q112 41 260.5 119.5t313.5 180t334.5 218.5t327 234t290.5 228.5t222 203.5q16 15 37 15q25 0 45 -15t20 -30q0 -6 -2 -9q-35 -42 -59.5 -69.5t-40.5 -41.5q-59 -59 -149 -137t-201.5 -165t-238 -179t-258 -180.5
t-261.5 -169t-249.5 -145.5t-222 -109.5t-177.5 -59.5zM97 354q18 87 58 87q34 0 34 -48q0 -15 -4 -41.5t-4 -39.5q0 -48 38 -100q63 -79 236 -79q273 0 506 186q56 46 96.5 88.5t64.5 83.5q38 72 44 157q3 41 3 85t3 88q3 51 60 51q59 0 55 -80v-127q-7 -113 -38 -179
q-62 -148 -257 -288q-227 -169 -482 -187q-40 -4 -71 -4q-191 0 -280 94q-69 69 -69 183q0 18 1.5 35t5.5 35z" />
    <glyph glyph-name="uniFB8F" unicode="&#x6a9;" horiz-adv-x="1289" arabic-form="final" 
d="M643 511q-12 1 -24 9.5t-12 28.5q0 51 51 72q393 144 972 554q251 180 444 336t330 296q8 7 18.5 11.5t20.5 4.5q24 0 44 -15t20 -32v-10q-73 -85 -103 -110q-243 -243 -749 -597q-313 -219 -562 -354t-450 -194zM5 122q-5 25 -5 41q0 50 30 50q6 0 12 -2t13 -6
q3 -1 13 -12t26 -30q15 -18 29.5 -31t30.5 -24q33 -21 79 -30t104 -9q116 0 236.5 27t252.5 80q41 18 90 51.5t93 76.5t78.5 88t47.5 85q8 24 29.5 37t46.5 13q52 0 52 -69q0 -21 -8 -52t-22 -70q-15 -34 -23.5 -68.5t-5.5 -62.5t23 -46t71 -19l-2 -140q-71 -4 -112 18.5
t-63 54t-30 63t-12 45.5q-5 0 -23 -13t-36 -22q-153 -95 -323 -150.5t-361 -55.5q-49 0 -103.5 7t-102.5 27t-82.5 55.5t-42.5 92.5z" />
    <glyph glyph-name="uniFB90" unicode="&#x6a9;" horiz-adv-x="379" arabic-form="initial" 
d="M74 571q-20 -8 -35 1t-15 19q0 69 75 108q113 65 301 183.5t452 294.5q111 78 226.5 161t236.5 174q86 68 137 104t67 43q24 9 42.5 14.5t35.5 5.5q48 0 48 -28q0 -8 -7 -17q-130 -115 -358.5 -282t-557.5 -387q-117 -77 -211.5 -137t-173.5 -107.5t-143.5 -84
t-119.5 -65.5zM-17 0v140h19q217 -8 297 213q2 10 5 23.5t3 28.5q0 53 -31 53q-28 0 -84 -48q-10 -9 -30.5 -35t-53.5 -68q-29 -36 -49.5 -56.5t-32.5 -29.5q-8 -8 -21 -8q-15 0 -15 20q0 30 39 99q27 47 59.5 95t68 86.5t75 62.5t81.5 24q115 0 115 -147q0 -72 -16 -136.5
t-43.5 -118.5t-65.5 -95t-82 -62q-46 -20 -100 -30.5t-119 -10.5h-19z" />
    <glyph glyph-name="uniFB91" unicode="&#x6a9;" horiz-adv-x="432" arabic-form="medial" 
d="M102 600q-14 -3 -26 7t-12 20q0 69 73 110q113 63 300 181.5t451 295.5q113 78 228.5 160.5t234.5 170.5q87 70 138.5 106.5t68.5 43.5q21 9 41.5 14.5t36.5 5.5q48 0 48 -27q0 -7 -9 -18q-129 -117 -357 -283.5t-561 -384.5q-115 -77 -210.5 -139t-176 -111t-146.5 -87
t-122 -65zM-7 140q33 -1 57 2t34 4q-18 13 -32.5 43t-14.5 72q0 137 109 248q86 86 156 86q93 0 114 -119q3 -15 3.5 -31.5t0.5 -33.5q0 -44 -9 -89t-31 -89q-15 -35 -31.5 -54.5t-29.5 -31.5q35 -6 70 -6.5t50 -0.5q0 -67 0.5 -103t-0.5 -37q-91 -4 -151 10t-89 29
q-31 -18 -87.5 -30.5t-117.5 -8.5zM199 188q29 11 51 34.5t38 58.5q26 51 26 108q-6 88 -34 88q-27 0 -51.5 -22t-43.5 -54t-31 -64t-12 -52q0 -14 3.5 -30t9.5 -30.5t18 -25t26 -11.5z" />
    <glyph glyph-name="afii57509" unicode="&#x6af;" horiz-adv-x="1477" arabic-form="isolated" 
d="M656 702q-13 -3 -27 8.5t-14 28.5q0 53 50 74q112 41 260.5 119.5t313.5 180t334.5 218.5t327 234t290.5 228.5t222 203.5q16 15 37 15q25 0 45 -15t20 -30q0 -6 -2 -9q-35 -42 -59.5 -69.5t-40.5 -41.5q-59 -59 -149 -137t-201.5 -165t-238 -179t-258 -180.5
t-261.5 -169t-249.5 -145.5t-222 -109.5t-177.5 -59.5zM97 354q18 87 58 87q34 0 34 -48q0 -15 -4 -41.5t-4 -39.5q0 -48 38 -100q63 -79 236 -79q273 0 506 186q56 46 96.5 88.5t64.5 83.5q38 72 44 157q3 41 3 85t3 88q3 51 60 51q59 0 55 -80v-127q-7 -113 -38 -179
q-62 -148 -257 -288q-227 -169 -482 -187q-40 -4 -71 -4q-191 0 -280 94q-69 69 -69 183q0 18 1.5 35t5.5 35zM793 974q-16 21 -16 36q0 28 53 55q108 48 176 79.5t95 46.5q80 42 170.5 100t197.5 134q25 22 45 22q35 0 35 -46q0 -10 -6 -15q-68 -58 -154.5 -115.5
t-194.5 -117.5q-119 -66 -218 -111t-183 -68z" />
    <glyph glyph-name="uniFB93" unicode="&#x6af;" horiz-adv-x="1289" arabic-form="final" 
d="M643 511q-12 1 -24 9.5t-12 28.5q0 51 51 72q393 144 972 554q251 180 444 336t330 296q8 7 18.5 11.5t20.5 4.5q24 0 44 -15t20 -32v-10q-73 -85 -103 -110q-243 -243 -749 -597q-313 -219 -562 -354t-450 -194zM5 122q-5 25 -5 41q0 50 30 50q6 0 12 -2t13 -6
q3 -1 13 -12t26 -30q15 -18 29.5 -31t30.5 -24q33 -21 79 -30t104 -9q116 0 236.5 27t252.5 80q41 18 90 51.5t93 76.5t78.5 88t47.5 85q8 24 29.5 37t46.5 13q52 0 52 -69q0 -21 -8 -52t-22 -70q-15 -34 -23.5 -68.5t-5.5 -62.5t23 -46t68 -19l1 -140q-71 -4 -112 18.5
t-63 54t-30 63t-12 45.5q-5 0 -23 -13t-36 -22q-153 -95 -323 -150.5t-361 -55.5q-49 0 -103.5 7t-102.5 27t-82.5 55.5t-42.5 92.5zM660 680q-17 18 -17 35q0 31 54 55q107 51 174.5 81.5t95.5 44.5q80 42 171 99.5t194 135.5q28 21 46 21q35 0 35 -43q0 -15 -6 -17
q-63 -58 -148.5 -116t-198.5 -122q-117 -65 -215 -108t-185 -66z" />
    <glyph glyph-name="uniFB94" unicode="&#x6af;" horiz-adv-x="381" arabic-form="initial" 
d="M76 571q-20 -8 -35 1t-15 19q0 69 75 108q113 65 301 183.5t452 294.5q111 78 226.5 161t236.5 174q86 68 137 104t67 43q24 9 42.5 14.5t35.5 5.5q48 0 48 -28q0 -8 -7 -17q-130 -115 -358.5 -282t-557.5 -387q-117 -77 -211.5 -137t-173.5 -107.5t-143.5 -84
t-119.5 -65.5zM-15 0v140h19q217 -8 297 213q2 10 5 23.5t3 28.5q0 53 -31 53q-28 0 -84 -48q-10 -9 -30.5 -35t-53.5 -68q-29 -36 -49.5 -56.5t-32.5 -29.5q-8 -8 -21 -8q-15 0 -15 20q0 30 39 99q27 47 59.5 95t68 86.5t75 62.5t81.5 24q115 0 115 -147q0 -72 -16 -136.5
t-43.5 -118.5t-65.5 -95t-82 -62q-46 -20 -100 -30.5t-119 -10.5h-19zM101 780q-7 0 -7 12q0 8 4.5 19.5t11 23t13.5 21t13 11.5q52 33 104.5 62.5t106.5 61.5q90 54 162 105t129 97q18 19 38 19q28 0 23 -23q0 -12 -0.5 -24t-10.5 -20q-61 -64 -251 -184q-98 -64 -182 -108
t-154 -73z" />
    <glyph glyph-name="uniFB95" unicode="&#x6af;" horiz-adv-x="432" arabic-form="medial" 
d="M102 600q-14 -3 -26 7t-12 20q0 69 73 110q113 63 300 181.5t451 295.5q113 78 228.5 160.5t234.5 170.5q87 70 138.5 106.5t68.5 43.5q21 9 41.5 14.5t36.5 5.5q48 0 48 -27q0 -7 -9 -18q-129 -117 -357 -283.5t-561 -384.5q-115 -77 -210.5 -139t-176 -111t-146.5 -87
t-122 -65zM-7 140q33 -1 57 2t34 4q-18 13 -32.5 43t-14.5 72q0 137 109 248q86 86 156 86q93 0 114 -119q3 -15 3.5 -31.5t0.5 -33.5q0 -44 -9 -89t-31 -89q-15 -35 -31.5 -54.5t-29.5 -31.5q35 -6 70 -6.5t50 -0.5q0 -67 0.5 -103t-0.5 -37q-91 -4 -151 10t-89 29
q-31 -18 -87.5 -30.5t-117.5 -8.5zM163 813q-11 0 -11 12q0 10 4.5 21.5t10.5 23t13 21t13 11.5q54 30 107 60.5t106 60.5q90 54 162.5 106.5t127.5 99.5q17 16 38 16q30 0 23 -21q0 -12 -1 -23.5t-12 -23.5q-31 -32 -93 -76.5t-157 -103.5q-97 -64 -179.5 -109t-151.5 -75z
M199 188q29 11 51 34.5t38 58.5q26 51 26 108q-6 88 -34 88q-27 0 -51.5 -22t-43.5 -54t-31 -64t-12 -52q0 -14 3.5 -30t9.5 -30.5t18 -25t26 -11.5z" />
    <glyph glyph-name="afii57444" unicode="&#x644;" horiz-adv-x="1230" arabic-form="isolated" 
d="M148 -123q-136 105 -136 245q0 117 88 239q38 54 86.5 98.5t105.5 81.5q64 43 94 43q29 0 29 -25q0 -7 -1.5 -12.5t-4.5 -12.5q-19 -27 -35 -45t-28 -28q-52 -47 -84.5 -75.5t-41.5 -38.5q-99 -112 -99 -203q0 -51 28 -91q45 -74 114 -111.5t161 -37.5q66 0 129.5 21
t128.5 60q72 45 132.5 108t113.5 146q80 128 114 247q49 185 70 605q4 100 69 100q54 0 49 -135q-1 -141 -11.5 -262t-29.5 -222q-24 -122 -75.5 -241.5t-137.5 -235.5q-99 -138 -245 -227q-78 -45 -152 -67t-151 -22q-157 0 -280 98z" />
    <glyph glyph-name="uniFEDE" unicode="&#x644;" horiz-adv-x="1205" arabic-form="final" 
d="M30 -366q11 78 50.5 154.5t113.5 156.5q21 21 59 54.5t95 80.5q21 17 42 28.5t41 20.5q16 4 30 4q27 0 27 -18q0 -32 -76 -92q-38 -34 -85 -82t-99 -112q-42 -48 -61.5 -94.5t-19.5 -89.5q0 -99 98 -164q48 -28 106.5 -44t126.5 -16q76 0 144 19.5t133 51.5
q102 58 169 165q39 56 61.5 120t34.5 133q8 35 9.5 70t1.5 73q0 28 -1.5 72t-9.5 103q-6 74 -8 129.5t-5 100.5q-3 114 67 114q33 0 47 -29q19 -54 17 -68l23 -287q0 -3 2.5 -11t7 -16t15 -14.5t26.5 -6.5v-140q-31 0 -54 11q-15 -240 -114.5 -406t-288.5 -248
q-120 -53 -272 -53q-183 0 -312 73q-143 84 -143 222v17t2 18z" />
    <glyph glyph-name="uniFEDF" unicode="&#x644;" horiz-adv-x="252" arabic-form="initial" 
d="M-10 140q81 9 110 65q25 49 25 152q0 24 -2 61t-5 91q-4 105 54 105q39 0 50 -29q14 -36 22 -86t8 -120q0 -139 -26 -196q-77 -171 -236 -183v140z" />
    <glyph glyph-name="uniFEE0" unicode="&#x644;" horiz-adv-x="403" arabic-form="medial" 
d="M-9 140q80 0 115 29.5t35 108.5q0 27 -5 61.5t-13 79.5q-25 139 -25 145q-5 41 9 69q18 32 58 15q35 -17 45 -58q18 -65 30 -138t14 -133q3 -48 13.5 -79t22.5 -52q35 -50 121 -48v-140q-78 -4 -121.5 20.5t-71.5 74.5q-18 -26 -45 -44t-57.5 -30t-63 -18t-61.5 -3v140z
" />
    <glyph glyph-name="afii57445" unicode="&#x645;" horiz-adv-x="780" arabic-form="isolated" 
d="M17 -883q29 115 38 187q15 72 24 184t12 265q4 180 10.5 298.5t13.5 176.5q29 266 155 379q47 43 135 84t221 79q-7 19 -7 40q0 39 23 62t60 23q8 0 19 -3t22 -5q80 -30 80 -99q3 -30 -9 -54t-41 -42.5t-78 -33.5t-121 -29q-38 -8 -74 -23.5t-73 -35.5
q-35 -21 -59.5 -39.5t-39.5 -38.5q-126 -153 -126 -619q0 -93 -4 -190t-10 -202q-7 -90 -13.5 -143t-11.5 -68q-37 -115 -83 -144t-63 -9z" />
    <glyph glyph-name="uniFEE2" unicode="&#x645;" horiz-adv-x="692" arabic-form="final" 
d="M-158 -1149q-22 0 -22 36q0 4 4 19.5t14 39.5q19 49 27 129q4 48 2 114.5t-5.5 137t-7 136t-6.5 110.5q-4 108 7 181.5t39 137.5q37 90 104.5 151.5t187.5 93.5q7 2 32 10.5t52 18.5t47.5 19.5t16.5 13.5q-14 14 -22.5 35t-8.5 39q0 26 12 51t46 47q65 44 131 44
q73 0 100 -55q18 -39 12 -70t-19.5 -55t-29 -38.5t-20.5 -15.5q3 -12 23 -19t47 -12t54 -7.5t45 -2.5v-140q-112 -6 -180 18.5t-112 76.5q-24 -20 -67 -37t-128 -40q-43 -11 -74.5 -25t-54.5 -33q-39 -36 -65.5 -76.5t-41 -88t-19 -101.5t-4.5 -117q0 -67 4.5 -152.5
t6.5 -171.5t-6 -164t-34 -130q-48 -108 -87 -108z" />
    <glyph glyph-name="uniFEE3" unicode="&#x645;" horiz-adv-x="371" arabic-form="initial" 
d="M-6 140q34 5 59 16.5t46 30.5t41 46.5t43 63.5q7 9 20.5 18t29.5 13t31.5 3.5t28.5 -11.5q43 -30 61.5 -78t18.5 -113q0 -118 -91 -118q-53 0 -72 55q-5 11 -17 11q-8 0 -26 -9t-47 -31q-51 -37 -126 -37v140z" />
    <glyph glyph-name="uniFEE4" unicode="&#x645;" horiz-adv-x="487" arabic-form="medial" 
d="M-9 140q29 -1 56 8.5t44 27.5q16 18 62 61q20 24 51 24q15 0 30 -6.5t32 -21.5q13 -12 24.5 -23t23.5 -23q37 -31 84 -39t97 -8v-140q-45 0 -77 7t-42 12.5t-20 -23.5q-7 -14 -12.5 -26t-10.5 -19q-33 -38 -79 -38q-62 0 -79 56q-26 75 -43 75q-7 0 -17 -7
q-26 -20 -57.5 -30.5t-66.5 -6.5v140z" />
    <glyph glyph-name="afii57446" unicode="&#x646;" horiz-adv-x="1482" arabic-form="isolated" 
d="M-180 -1075q-103 199 -103 406q0 126 37.5 251t115.5 253q54 94 127 182t165 178q47 42 93.5 82.5t94.5 79.5q74 69 724 569q686 532 774 575q35 18 59 18q35 0 35 -34q0 -15 -8 -28q-7 -20 -22 -38t-41 -34q-185 -136 -345 -256.5t-301 -228.5q-217 -168 -401 -313.5
t-338 -272.5q-157 -127 -270.5 -238.5t-183.5 -211.5q-189 -260 -189 -541q0 -22 1.5 -43.5t4.5 -42.5q15 -171 158 -359q72 -95 154.5 -170t180.5 -134q68 -42 82 -55q6 -6 6 -10q0 -27 -70 -27q-38 0 -84.5 14.5t-96.5 45.5q-43 27 -82 59t-72 69q-78 82 -129 145.5
t-76 109.5zM954 1743q30 45 58 45q44 0 44 -66q0 -42 -26 -72q-17 -27 -45 -27q-55 0 -55 56q0 28 24 64z" />
    <glyph glyph-name="uniFEE6" unicode="&#x646;" horiz-adv-x="1165" arabic-form="final" 
d="M-651 -1395q-3 116 30.5 222.5t91.5 204t137 185t165 166t175 147.5t171 128l912 669q31 11 47 0.5t21.5 -30.5t-0.5 -43t-19 -38q-13 -12 -18.5 -25.5t3 -24t34 -18t78.5 -8.5v-140q-108 -4 -161.5 26.5t-43.5 95.5q-71 -53 -134.5 -100t-106.5 -77
q-128 -96 -270.5 -194.5t-283 -200t-268.5 -210t-227 -226t-157 -246t-58 -271.5q0 -278 259 -552q192 -161 317 -254q11 -9 11 -23q0 -35 -54 -35q-36 0 -72 22q-299 171 -448 409q-131 211 -131 441zM674 774q0 73 59 104q7 0 12 0.5t10 0.5q22 0 39 -18t17 -46
q0 -34 -22 -65q-27 -43 -63 -43q-53 0 -52 67z" />
    <glyph glyph-name="uniFEE7" unicode="&#x646;" horiz-adv-x="269" arabic-form="initial" 
d="M-7 140q37 -1 66 5t52.5 20.5t44.5 36.5t42 53q7 11 15 27.5t17 30t18 23t19 6.5q19 -3 31 -27t12 -54q0 -6 -4 -22q-14 -47 -46.5 -91.5t-75.5 -78t-92 -53.5t-99 -16v140zM235 817q12 12 23 19t23 7q24 0 37 -24.5t10 -47.5q-15 -84 -71 -84q-54 0 -54 57q0 19 8.5 36
t23.5 37z" />
    <glyph glyph-name="uniFEE8" unicode="&#x646;" horiz-adv-x="354" arabic-form="medial" 
d="M-7 140q48 1 81 10t57.5 27t43.5 47t37 72q9 18 31 18q23 0 42.5 -18.5t19.5 -46.5q0 -19 -9.5 -45.5t-15.5 -34.5q18 -13 35 -21.5t45 -7.5v-140q-46 -4 -89 17.5t-67 54.5q-32 -33 -88 -52.5t-123 -19.5v140zM213 774q24 27 45 27q22 0 38 -26q7 -10 8.5 -20.5
t0.5 -20.5q-13 -86 -69 -86t-56 55q0 19 9 36t24 35z" />
    <glyph glyph-name="afii57448" unicode="&#x648;" horiz-adv-x="404" arabic-form="isolated" 
d="M-110 -67q9 10 77 34q76 26 121 56q141 86 159 168q-15 -3 -28.5 2t-24.5 13q-34 25 -34 75q0 18 5 36q35 169 139 184h16q106 0 106 -145q0 -73 -30 -143q-107 -218 -354 -298q-68 -22 -107 -22q-52 0 -52 28q0 4 7 12z" />
    <glyph glyph-name="uniFEEE" unicode="&#x648;" horiz-adv-x="516" arabic-form="final" 
d="M-74 -243q66 8 125 26.5t112 51.5q57 33 93.5 78t51.5 94q-14 4 -28 14q-11 8 -23 22t-19 34q-3 14 -3 28q0 57 42 128q43 64 93 79q19 5 38 5q88 0 88 -136v-16t-2 -20q-1 -1 -1 -2.5t6.5 -2t24.5 -0.5v-140h-23h-16t-17 0.5t-24 0.5q-70 -134 -182 -211t-264 -97
q-12 -2 -19.5 -2h-14.5q-82 0 -82 39q0 25 44 27z" />
    <glyph glyph-name="afii57470" unicode="&#x647;" horiz-adv-x="478" arabic-form="isolated" 
d="M75 44q-49 43 -49 101q0 101 105 197q-32 27 -32 57q0 23 19 45q16 17 35 17q24 0 23 -33q1 -11 74 -56q42 -25 73 -48.5t52 -42.5q33 -35 51 -68t21 -68q2 -54 -76 -97q-74 -47 -164 -47q-41 0 -73 11t-59 32zM135 174q0 -59 86 -59q21 0 39 5t33 12q19 9 27 20t8 29
q0 52 -130 118q-10 -9 -22 -23.5t-20.5 -31.5t-14.5 -36t-6 -34z" />
    <glyph glyph-name="uniFEEA" unicode="&#x647;" horiz-adv-x="377" arabic-form="final" 
d="M16 -96q-17 43 -17 81q0 84 65 144q57 58 129 58q28 0 63 -18q39 -16 55 -18q47 -11 74 -11v-140h-21q-56 0 -105 32q-18 15 -39.5 16.5t-39.5 -7.5t-31 -27t-16 -41q0 -7 2.5 -19t6.5 -29q7 -24 2 -44q-17 -44 -56 -44q-41 0 -72 67z" />
    <glyph glyph-name="uniFEEB" unicode="&#x647;" horiz-adv-x="660" arabic-form="initial" 
d="M-11 140q57 0 93 3.5t55 14.5q-73 39 -73 120q0 47 28 83q27 35 64 67.5t88 60.5q-32 24 -47 47t-15 40q0 11 12 21t26 8q128 -57 213 -82.5t145 -46.5q125 -44 125 -109q0 -14 -7.5 -34t-27.5 -43q-68 -95 -154.5 -131t-201.5 -33q-65 -57 -150.5 -91t-172.5 -35v140z
M244 228q25 25 44 45t32 40l11 22t21 36q4 10 5 17.5t1 14.5q0 26 -29 26q-27 0 -49 -18q-17 -13 -32 -28t-30 -35q-39 -51 -39 -79q0 -41 65 -41zM516 278q48 35 48 76q0 53 -82 53q-4 -32 -20 -63t-40 -67q-34 -47 -36 -49q82 9 130 50z" />
    <glyph glyph-name="uniFEEC" unicode="&#x647;" horiz-adv-x="675" arabic-form="medial" 
d="M-10 0q2 133 -4 140q189 0 400 114q26 7 44 -0.5t27 -31t8.5 -49.5t-38.5 -56q-63 -37 -145 -94.5t-146 -135.5q-8 -12 -12.5 -25t-4.5 -27q0 -18 6 -28.5t26 -10.5q19 0 35 15.5t38 44.5q5 1 16 13t53 54.5t60 60.5t45 43.5t42 37.5t26 20t16 11q33 21 68 32t71 12h62
v-140q-157 2 -228.5 -37.5t-128.5 -94.5q-10 -12 -58 -68t-66 -71.5t-39 -26.5t-44 -11q-27 0 -45.5 11.5t-29.5 29.5t-17 41t-6 44q0 32 9.5 59.5t27.5 51.5q41 43 88.5 77t96.5 72q-130 -62 -178.5 -71.5t-74.5 -5.5z" />
    <glyph glyph-name="afii57417" unicode="&#x629;" horiz-adv-x="478" arabic-form="isolated" 
d="M75 44q-49 43 -49 101q0 101 105 197q-32 27 -32 57q0 23 19 45q16 17 35 17q24 0 23 -33q1 -11 74 -56q42 -25 73 -48.5t52 -42.5q33 -35 51 -68t21 -68q2 -54 -76 -97q-74 -47 -164 -47q-41 0 -73 11t-59 32zM135 174q0 -59 86 -59q21 0 39 5t33 12q19 9 27 20t8 29
q0 52 -130 118q-10 -9 -22 -23.5t-20.5 -31.5t-14.5 -36t-6 -34zM24 732q-6 12 -6 22q0 19 12 37.5t31 33.5t44 26t49 13q49 5 49 -45q0 -24 -17 -46q-17 -17 -35 -17q-19 0 -13 27q2 6 6 10.5t7 8.5q7 14 -5 14q-3 0 -12.5 -2t-23.5 -10q-21 -12 -31.5 -21t-10.5 -22
q0 -30 54 -30q14 0 39.5 5t35.5 5q37 0 37 -28q0 -9 -2.5 -16.5t-11.5 -14.5q-18 -19 -49 -44.5t-71 -55.5q-22 -16 -41 -16q-17 0 -17 18q0 20 19 36q17 7 38.5 21.5t51.5 34.5q33 26 15 26q-6 0 -20 -4q-14 -3 -26.5 -5.5t-25.5 -2.5q-51 0 -70 42z" />
    <glyph glyph-name="uniFBA5" unicode="&#x6c0;" horiz-adv-x="377" arabic-form="final" 
d="M16 -96q-17 43 -17 81q0 84 65 144q57 58 129 58q28 0 63 -18q39 -16 55 -18q47 -11 74 -11v-140h-21q-56 0 -105 32q-18 15 -39.5 16.5t-39.5 -7.5t-31 -27t-16 -41q0 -7 2.5 -19t6.5 -29q7 -24 2 -44q-17 -44 -56 -44q-41 0 -72 67zM24 519q-6 12 -6 22q0 19 12 37.5
t31 33.5t44 26t49 13q49 5 49 -45q0 -24 -17 -46q-17 -17 -35 -17q-19 0 -13 27q2 6 6 10.5t7 8.5q7 14 -5 14q-3 0 -12.5 -2t-23.5 -10q-21 -12 -31.5 -21t-10.5 -22q0 -30 54 -30q14 0 39.5 5t35.5 5q37 0 37 -28q0 -9 -2.5 -16.5t-11.5 -14.5q-18 -19 -49 -44.5
t-71 -55.5q-22 -16 -41 -16q-17 0 -17 18q0 20 19 36q17 7 38.5 21.5t51.5 34.5q33 26 15 26q-6 0 -20 -4q-14 -3 -26.5 -5.5t-25.5 -2.5q-51 0 -70 42z" />
    <glyph glyph-name="afii57450" unicode="&#x64a;" horiz-adv-x="1421" arabic-form="isolated" 
d="M-1602 -949q12 -5 93 -22q36 -11 134 -14q148 -8 320.5 39t373.5 142q333 158 634 403q146 122 367 337t519 532q512 541 584 594q51 32 83 32q51 0 51 -63v-9t-4 -12q-4 -20 -9 -34t-16 -16q-63 -34 -144 -107q-27 -24 -53 -49t-54 -53q-38 -37 -114 -116.5t-187 -202.5
q-129 -143 -234.5 -254t-186.5 -193q-137 -140 -271.5 -263t-265.5 -232q-205 -171 -406 -294.5t-403 -202.5q-316 -128 -538 -120q-74 4 -134 18t-105 41q-78 45 -78 92q0 27 33 27h11z" />
    <glyph glyph-name="uniFBFD" unicode="&#x6cc;" horiz-adv-x="372" arabic-form="final" 
d="M-2777 -1860q5 -3 28.5 -6.5t62.5 -15.5q21 -2 55 -5.5t80 -5.5q295 -12 693 179q336 160 633 407q151 120 372.5 335.5t517.5 529.5q180 193 291.5 314.5t158.5 171.5q94 111 154 111q7 0 19 -2t27.5 -5t32.5 -5.5t31 -2.5v-140q-19 0 -37.5 1.5t-35.5 9.5q-8 4 -20 4
q-24 0 -65 -36l-42.5 -42.5t-41.5 -43.5q-126 -140 -252 -278t-253 -278q-210 -228 -406 -415t-383 -343q-206 -169 -406.5 -292t-402.5 -202q-314 -130 -540 -122q-73 4 -132.5 18.5t-105.5 43.5q-78 45 -78 91q0 26 32 26h6t7 -2z" />
    <glyph glyph-name="uniFBFE" unicode="&#x6cc;" horiz-adv-x="305" arabic-form="initial" 
d="M-7 140q37 -1 66 5t52.5 20.5t44.5 36.5t42 53q7 11 15 27.5t17.5 30t18 23t18.5 6.5q18 -3 29 -27t11 -54q0 -8 -2 -22q-14 -47 -46.5 -91.5t-75 -78t-92.5 -53.5t-98 -16v140zM22 -427q45 28 104 44t130 16q32 0 55 -3t43 -9q45 -16 45 -34q0 -24 -68 -29
q-74 -2 -143 -20t-137 -47q-8 -2 -13 -4t-13 -2q-45 0 -45 36q0 23 42 52z" />
    <glyph glyph-name="uniFBFF" unicode="&#x6cc;" horiz-adv-x="358" arabic-form="medial" 
d="M-4 140q46 1 79 10t58 27t43 47t36 72q10 18 33 18q22 0 41.5 -18.5t19.5 -46.5q0 -19 -9.5 -45.5t-16.5 -34.5q19 -13 36.5 -21.5t46.5 -7.5v-140q-48 -4 -91.5 17.5t-65.5 54.5q-34 -33 -88.5 -52.5t-121.5 -19.5v140zM-90 -501q94 63 239 63q34 0 56.5 -2.5t39.5 -9.5
q47 -15 47 -31q0 -28 -66 -30q-77 -6 -147.5 -23t-138.5 -46q-7 -3 -13.5 -4.5t-13.5 -1.5q-42 0 -42 35q0 26 39 50z" />
    <glyph glyph-name="afii57449" unicode="&#x649;" horiz-adv-x="1421" arabic-form="isolated" 
d="M-1602 -949q12 -5 93 -22q36 -11 134 -14q148 -8 320.5 39t373.5 142q333 158 634 403q146 122 367 337t519 532q512 541 584 594q51 32 83 32q51 0 51 -63v-9t-4 -12q-4 -20 -9 -34t-16 -16q-63 -34 -144 -107q-27 -24 -53 -49t-54 -53q-38 -37 -114 -116.5t-187 -202.5
q-129 -143 -234.5 -254t-186.5 -193q-137 -140 -271.5 -263t-265.5 -232q-205 -171 -406 -294.5t-403 -202.5q-316 -128 -538 -120q-74 4 -134 18t-105 41q-78 45 -78 92q0 27 33 27h11z" />
    <glyph glyph-name="uniFEF0" unicode="&#x649;" horiz-adv-x="372" arabic-form="final" 
d="M-2777 -1860q5 -3 28.5 -6.5t62.5 -15.5q21 -2 55 -5.5t80 -5.5q295 -12 693 179q336 160 633 407q151 120 372.5 335.5t517.5 529.5q180 193 291.5 314.5t158.5 171.5q94 111 154 111q7 0 19 -2t27.5 -5t32.5 -5.5t31 -2.5v-140q-19 0 -37.5 1.5t-35.5 9.5q-8 4 -20 4
q-24 0 -65 -36l-42.5 -42.5t-41.5 -43.5q-126 -140 -252 -278t-253 -278q-210 -228 -406 -415t-383 -343q-206 -169 -406.5 -292t-402.5 -202q-314 -130 -540 -122q-73 4 -132.5 18.5t-105.5 43.5q-78 45 -78 91q0 26 32 26h6t7 -2z" />
    <glyph glyph-name=".notdef" horiz-adv-x="1024" 
d="M128 0v1298h768v-1298h-768zM256 128h512v1042h-512v-1042z" />
    <glyph glyph-name="glyph1" 
 />
    <glyph glyph-name="glyph2" horiz-adv-x="483" 
 />
    <glyph glyph-name="space" unicode=" " horiz-adv-x="483" 
 />
    <glyph glyph-name="exclam" unicode="!" horiz-adv-x="409" 
d="M249 744q3 -16 16 -114q10 -118 10 -213q0 -81 -9 -129q-14 -84 -43 -84q-30 0 -42 73q0 8 -8 214q-9 196 -24 291q-2 10 -2 19q0 50 36 50q15 0 30.5 -14.5t22.5 -48.5q6 -23 13 -44zM164 90q13 73 78 73q15 0 29 -7q22 -12 22 -55q0 -63 -30 -87q-22 -18 -48 -18
q-56 0 -56 64q0 14 5 30z" />
    <glyph glyph-name="percent" unicode="%" horiz-adv-x="592" 
d="M489 797q-238 -353 -370 -772q-12 -43 -43 -43q-25 0 -25 48q0 29 8 71q46 163 153 379q98 198 210 363q31 44 63 44q27 0 27 -33q0 -23 -23 -57zM154 811q12 56 61 56q12 0 23 -7q17 -11 17 -42q0 -50 -25 -72q-17 -12 -34 -12q-44 0 -44 53q0 10 2 24zM328 77
q13 55 60 55q12 0 23 -6q17 -9 17 -43q0 -50 -24 -69q-16 -13 -35 -13q-42 0 -42 52q0 13 1 24z" />
    <glyph glyph-name="parenleft" unicode="(" horiz-adv-x="779" 
d="M563 -262q-185 233 -260 451q-156 442 151 819q27 36 51 43q35 11 46 -24q12 -31 -5 -61q-41 -61 -110 -184q-125 -290 -19 -591q40 -116 116 -231q49 -83 112 -157q56 -67 56 -65l8 -24q21 -57 -8 -67q-53 -17 -138 91z" />
    <glyph glyph-name="parenright" unicode=")" horiz-adv-x="634" 
d="M188 -193q28 90 112 240q77 142 101 226q40 142 11 315q-23 153 -108 291q-23 36 -73 95q-60 70 -66.5 77.5t-11.5 28.5q-6 48 29 54q30 5 73 -37q233 -214 272 -476q58 -348 -204 -799q-50 -85 -101 -105q-39 -12 -44 24q-4 24 10 66z" />
    </font>
</defs>
</svg>
